<svg width="157" height="54" viewBox="0 0 157 54" fill="none" xmlns="http://www.w3.org/2000/svg">
    <path d="M26.73 41.066a14.344 14.344 0 1 1 11.001-23.548 6.155 6.155 0 0 0 4.725 2.197A6.2 6.2 0 0 0 47.158 9.49a26.727 26.727 0 1 0 .05 34.414 6.15 6.15 0 0 0-4.685-10.127h-.228A6.022 6.022 0 0 0 37.7 35.97a14.318 14.318 0 0 1-10.97 5.097z" fill="url(#hx74qytz1a)"/>
    <path d="M26.73 30.303v23.15C10.784 38.93.59 29.855 0 26.725h23.154a3.586 3.586 0 0 1 3.577 3.577z" fill="url(#g8xt3m1g2b)"/>
    <path style="mix-blend-mode:multiply" d="M12.417 25.7a14.228 14.228 0 0 1 3.385-8.249H1.671a26.448 26.448 0 0 0-1.663 8.607v.668h12.377c0-.34.009-.681.031-1.027z" fill="url(#j848lam0yc)"/>
    <path style="mix-blend-mode:overlay" d="M.009 26.726A26.726 26.726 0 0 0 26.73 53.452V41.066C8.526 42.622.01 26.726.01 26.726z" fill="url(#xcm1dwh5jd)"/>
    <path style="mix-blend-mode:overlay" d="M.009 26.726h12.377c0-.34 0-.681.031-1.026a14.344 14.344 0 0 1 25.314-8.181c-1.98-2.9-4.73-5.191-7.939-6.617-8.678-3.985-18.957-1.13-24.655 6.518a40.715 40.715 0 0 0-5.106 9.306H.01z" fill="url(#cqp2qlrpye)"/>
    <path d="M63.511 34.817c-.454 0-.8-.126-1.04-.377-.239-.25-.358-.604-.358-1.058V24.31h-3.174c-.777 0-1.166-.383-1.166-1.148 0-.765.389-1.147 1.166-1.147h9.127c.777 0 1.165.382 1.165 1.148 0 .765-.388 1.147-1.165 1.147h-3.174v9.073c0 .454-.12.807-.359 1.058-.227.251-.568.377-1.022.377zm8.548.035c-1.124 0-1.955-.31-2.493-.932-.526-.622-.789-1.554-.789-2.797V27.07c0-.908.449-1.362 1.345-1.362.909 0 1.363.454 1.363 1.362v4.125c0 1.04.448 1.56 1.345 1.56.514 0 .932-.18 1.255-.538.335-.37.502-.855.502-1.453V27.07c0-.908.448-1.362 1.345-1.362.908 0 1.363.454 1.363 1.362v6.366c0 .92-.437 1.38-1.31 1.38-.43 0-.758-.119-.986-.358-.227-.239-.34-.574-.34-1.004-.586.932-1.453 1.398-2.6 1.398zm16.659.08c-1.908 0-3.54-.377-4.896-1.13a7.822 7.822 0 0 1-3.138-3.163c-.72-1.373-1.08-2.988-1.08-4.845 0-1.841.36-3.44 1.08-4.795a7.781 7.781 0 0 1 3.138-3.188c1.356-.753 2.988-1.13 4.895-1.13.837 0 1.682.109 2.536.326.87.218 1.623.511 2.26.88.518.3.836.677.953 1.129.117.452.076.878-.125 1.28a1.624 1.624 0 0 1-.879.854c-.402.167-.853.108-1.356-.176a5.648 5.648 0 0 0-1.581-.653 7.114 7.114 0 0 0-1.682-.2c-1.69 0-2.97.493-3.84 1.48-.854.971-1.281 2.369-1.281 4.193 0 1.824.427 3.23 1.28 4.217.87.988 2.15 1.481 3.841 1.481.536 0 1.08-.067 1.632-.2a6.453 6.453 0 0 0 1.632-.628c.535-.285 1.004-.343 1.405-.176.402.15.695.419.879.803.2.369.25.779.15 1.23-.1.436-.384.795-.853 1.08-.636.418-1.406.745-2.31.979-.886.234-1.773.351-2.66.351zm12.064-.08c-.944 0-1.77-.185-2.474-.555a4.064 4.064 0 0 1-1.614-1.596c-.383-.694-.574-1.512-.574-2.457 0-.932.191-1.74.574-2.42a3.916 3.916 0 0 1 1.614-1.596c.705-.37 1.53-.556 2.474-.556.944 0 1.763.185 2.457.556.705.37 1.249.902 1.631 1.595.395.682.592 1.489.592 2.421 0 .945-.197 1.764-.592 2.457a4.032 4.032 0 0 1-1.631 1.596c-.694.37-1.513.556-2.457.556zm0-2.026c.574 0 1.04-.209 1.399-.627.37-.419.556-1.07.556-1.955 0-.872-.186-1.512-.556-1.918-.359-.419-.825-.628-1.399-.628-.574 0-1.04.21-1.399.628-.358.406-.537 1.046-.537 1.918 0 .885.179 1.536.537 1.955.36.418.825.627 1.399.627zm7.69 1.99c-.908 0-1.363-.46-1.363-1.38V27.07c0-.908.443-1.362 1.327-1.362.885 0 1.327.454 1.327 1.362v.072a2.94 2.94 0 0 1 1.202-1.094 3.712 3.712 0 0 1 1.685-.376c1.04 0 1.817.305 2.331.914.514.598.771 1.524.771 2.78v4.07c0 .92-.454 1.38-1.363 1.38-.43 0-.765-.119-1.004-.358-.227-.239-.34-.58-.34-1.022v-3.945c0-.61-.114-1.046-.341-1.309-.227-.275-.562-.412-1.004-.412-.574 0-1.034.18-1.381.538-.335.358-.502.837-.502 1.434v3.694c0 .92-.448 1.38-1.345 1.38zm13.623.036c-2.475 0-3.712-1.2-3.712-3.604v-3.37h-.753c-.705 0-1.058-.335-1.058-1.005 0-.681.353-1.022 1.058-1.022h.753v-1.363c0-.92.454-1.38 1.363-1.38.896 0 1.345.46 1.345 1.38v1.363h1.703c.693 0 1.04.34 1.04 1.022 0 .67-.347 1.004-1.04 1.004h-1.703v3.264c0 .502.113.878.34 1.13.239.25.616.376 1.13.376.179 0 .347-.018.502-.054.155-.036.299-.06.43-.072a.48.48 0 0 1 .413.162c.107.12.161.364.161.735a1.9 1.9 0 0 1-.143.771.892.892 0 0 1-.502.448c-.156.06-.371.108-.646.144-.263.048-.49.072-.681.072zm5.904 0c-.657 0-1.237-.125-1.739-.376a3.142 3.142 0 0 1-1.201-1.022 2.56 2.56 0 0 1-.431-1.453c0-.633.168-1.141.502-1.524.335-.382.879-.651 1.632-.807.753-.167 1.751-.25 2.995-.25h.645v-.305c0-.526-.119-.897-.358-1.112-.24-.227-.646-.34-1.22-.34-.323 0-.675.041-1.058.125a6.52 6.52 0 0 0-1.237.376c-.335.144-.616.156-.843.036a.94.94 0 0 1-.448-.574 1.194 1.194 0 0 1 .054-.789c.119-.263.346-.454.681-.573a8.405 8.405 0 0 1 1.578-.449 7.417 7.417 0 0 1 1.381-.143c1.363 0 2.379.31 3.048.932.67.61 1.004 1.56 1.004 2.851v3.981c0 .92-.418 1.38-1.255 1.38-.849 0-1.273-.46-1.273-1.38v-.108a2.245 2.245 0 0 1-.915 1.112c-.418.275-.932.413-1.542.413zm.61-1.81a1.73 1.73 0 0 0 1.273-.52c.347-.347.52-.795.52-1.345v-.359h-.627c-.921 0-1.572.084-1.955.251-.382.155-.574.43-.574.825 0 .335.114.61.341.825.239.215.58.322 1.022.322zm7.758 5.002c-.909 0-1.363-.46-1.363-1.38V27.07c0-.908.442-1.362 1.327-1.362.896 0 1.345.454 1.345 1.362v.054a2.716 2.716 0 0 1 1.111-1.058 3.436 3.436 0 0 1 1.65-.394c.765 0 1.435.185 2.008.556.586.37 1.04.896 1.363 1.578.323.681.484 1.494.484 2.438 0 .945-.161 1.764-.484 2.457-.323.681-.777 1.213-1.363 1.596-.573.37-1.243.556-2.008.556a3.488 3.488 0 0 1-1.614-.377 2.835 2.835 0 0 1-1.111-1.004v3.191c0 .921-.449 1.381-1.345 1.381zm3.263-5.218c.574 0 1.04-.209 1.399-.627.358-.419.538-1.07.538-1.955 0-.872-.18-1.512-.538-1.918-.359-.419-.825-.628-1.399-.628-.586 0-1.058.21-1.416.628-.359.406-.538 1.046-.538 1.918 0 .885.179 1.536.538 1.955.358.418.83.627 1.416.627zm7.681 5.218c-.909 0-1.363-.46-1.363-1.38V27.07c0-.908.443-1.362 1.327-1.362.897 0 1.345.454 1.345 1.362v.054a2.719 2.719 0 0 1 1.112-1.058 3.432 3.432 0 0 1 1.649-.394c.765 0 1.435.185 2.009.556.585.37 1.04.896 1.362 1.578.323.681.485 1.494.485 2.438 0 .945-.162 1.764-.485 2.457-.322.681-.777 1.213-1.362 1.596-.574.37-1.244.556-2.009.556a3.487 3.487 0 0 1-1.613-.377 2.831 2.831 0 0 1-1.112-1.004v3.191c0 .921-.448 1.381-1.345 1.381zm3.263-5.218c.574 0 1.04-.209 1.399-.627.359-.419.538-1.07.538-1.955 0-.872-.179-1.512-.538-1.918-.359-.419-.825-.628-1.399-.628-.585 0-1.057.21-1.416.628-.359.406-.538 1.046-.538 1.918 0 .885.179 1.536.538 1.955.359.418.831.627 1.416.627z" fill="#424242"/>
    <defs>
        <linearGradient id="hx74qytz1a" x1="42.895" y1="47.212" x2="11.377" y2="7.289" gradientUnits="userSpaceOnUse">
            <stop offset=".01" stop-color="#6ABF4B"/>
            <stop offset=".52" stop-color="#6ABF4B"/>
            <stop offset="1" stop-color="#9DF27A"/>
        </linearGradient>
        <linearGradient id="g8xt3m1g2b" x1="34.1" y1="54.156" x2="2.582" y2="14.233" gradientUnits="userSpaceOnUse">
            <stop offset=".01" stop-color="#9DF27A"/>
            <stop offset=".52" stop-color="#9DF27A"/>
            <stop offset="1" stop-color="#6ABF4B"/>
        </linearGradient>
        <linearGradient id="j848lam0yc" x1="7.903" y1="18.056" x2="7.903" y2="27.067" gradientUnits="userSpaceOnUse">
            <stop stop-color="#fff"/>
            <stop offset="1" stop-color="#127F00"/>
        </linearGradient>
        <linearGradient id="xcm1dwh5jd" x1="2.752" y1="25.462" x2="20.679" y2="47.674" gradientUnits="userSpaceOnUse">
            <stop stop-color="#fff"/>
            <stop offset=".26" stop-color="#fff" stop-opacity=".76"/>
            <stop offset=".85" stop-color="#fff" stop-opacity=".16"/>
            <stop offset="1" stop-color="#fff" stop-opacity="0"/>
        </linearGradient>
        <linearGradient id="cqp2qlrpye" x1="38.655" y1="12.444" x2="7.612" y2="19.876" gradientUnits="userSpaceOnUse">
            <stop stop-color="#fff"/>
            <stop offset=".26" stop-color="#fff" stop-opacity=".76"/>
            <stop offset=".85" stop-color="#fff" stop-opacity=".16"/>
            <stop offset="1" stop-color="#fff" stop-opacity="0"/>
        </linearGradient>
    </defs>
</svg>
