<svg width="213" height="73" viewBox="0 0 213 73" fill="none" xmlns="http://www.w3.org/2000/svg">
<path d="M36.5063 56.0844C33.2108 56.085 29.9683 55.2543 27.0791 53.6691C24.1898 52.0839 21.7472 49.7955 19.9772 47.0156C18.2072 44.2357 17.1671 41.0542 16.9531 37.7656C16.7391 34.477 17.3582 31.1876 18.7531 28.2018C20.1479 25.216 22.2734 22.6303 24.9329 20.6841C27.5924 18.7379 30.6999 17.494 33.9677 17.0676C37.2356 16.6412 40.5582 17.0461 43.628 18.2447C46.6978 19.4434 49.4157 21.3971 51.53 23.925C52.3207 24.8665 53.3083 25.6231 54.4232 26.1414C55.5381 26.6597 56.7532 26.9271 57.9827 26.9248C59.5991 26.9215 61.1808 26.4556 62.5409 25.5822C63.9009 24.7087 64.9826 23.4641 65.658 21.9956C66.3333 20.527 66.5742 18.8958 66.3521 17.2947C66.1301 15.6937 65.4543 14.1896 64.4048 12.9603C59.5767 7.23891 53.1061 3.14051 45.8702 1.22065C38.6343 -0.699203 30.983 -0.347642 23.9536 2.22767C16.9242 4.80299 10.8567 9.47749 6.57365 15.6175C2.29058 21.7575 -0.000923608 29.066 0.00980311 36.5523C0.0205298 44.0386 2.33297 51.3405 6.63363 57.4682C10.9343 63.5959 17.0151 68.253 24.0518 70.8082C31.0886 73.3633 38.7408 73.693 45.9712 71.7524C53.2016 69.8118 59.6604 65.6949 64.4721 59.9597C65.5075 58.7379 66.172 57.2456 66.3873 55.6587C66.6026 54.0717 66.3597 52.4563 65.6874 51.0028C65.015 49.5494 63.9411 48.3184 62.5923 47.455C61.2435 46.5916 59.676 46.1318 58.0745 46.1298H57.7623C56.5611 46.1402 55.3768 46.4136 54.2927 46.9308C53.2085 47.448 52.2509 48.1965 51.4871 49.1236C49.6493 51.3067 47.3559 53.0611 44.7679 54.2636C42.1799 55.4661 39.36 56.0876 36.5063 56.0844Z" fill="url(#paint0_linear_1264_6477)"/>
<path d="M36.5062 41.3854V73C14.7268 53.1676 0.80678 40.7748 3.64273e-05 36.5H31.6207C32.9154 36.5032 34.1562 37.019 35.0717 37.9345C35.9872 38.85 36.5029 40.0907 36.5062 41.3854Z" fill="url(#paint1_linear_1264_6477)"/>
<path style="mix-blend-mode:multiply" d="M16.9577 35.0977C17.2518 30.9446 18.8721 26.9957 21.5799 23.833H2.28303C0.877361 27.5975 0.109706 31.5702 0.0117188 35.5874C0.0117188 35.8936 0.0117188 36.1997 0.0117188 36.4996H16.9148C16.9148 36.0344 16.9271 35.5691 16.9577 35.0977Z" fill="url(#paint2_linear_1264_6477)"/>
<path style="mix-blend-mode:overlay" d="M0.0117188 36.5C0.0117186 46.1793 3.85639 55.4623 10.7001 62.3072C17.5439 69.1521 26.8262 72.9984 36.5056 73V56.0846C11.6437 58.209 0.0117188 36.5 0.0117188 36.5Z" fill="url(#paint3_linear_1264_6477)"/>
<path style="mix-blend-mode:overlay" d="M0.0117188 36.4997H16.9148C16.9148 36.0344 16.9148 35.5691 16.9577 35.0977C17.2352 31.2029 18.6703 27.4799 21.0787 24.4065C23.487 21.3331 26.7589 19.0495 30.4744 17.8487C34.1898 16.648 38.1793 16.5849 41.9308 17.6675C45.6824 18.7501 49.0248 20.9291 51.5292 23.9249C48.8239 19.9648 45.0697 16.836 40.687 14.8886C28.8346 9.44608 14.7966 13.3459 7.01541 23.7902C4.14642 27.7042 1.80213 31.977 0.0423218 36.4997H0.0117188Z" fill="url(#paint4_linear_1264_6477)"/>
<path d="M86.7374 48.4064C86.1171 48.4064 85.6436 48.235 85.3171 47.8922C84.9906 47.5493 84.8273 47.0677 84.8273 46.4474V34.0562H80.4929C79.4317 34.0562 78.9011 33.5338 78.9011 32.489C78.9011 31.4441 79.4317 30.9217 80.4929 30.9217H92.9575C94.0187 30.9217 94.5492 31.4441 94.5492 32.489C94.5492 33.5338 94.0187 34.0562 92.9575 34.0562H88.623V46.4474C88.623 47.0677 88.4598 47.5493 88.1333 47.8922C87.8231 48.235 87.3578 48.4064 86.7374 48.4064ZM98.4108 48.4554C96.8762 48.4554 95.7415 48.0309 95.0069 47.182C94.2885 46.3331 93.9294 45.0597 93.9294 43.3618V37.8274C93.9294 36.5867 94.5416 35.9663 95.766 35.9663C97.0068 35.9663 97.6271 36.5867 97.6271 37.8274V43.4598C97.6271 44.8801 98.2393 45.5903 99.4638 45.5903C100.166 45.5903 100.737 45.3454 101.178 44.8556C101.635 44.3495 101.864 43.6883 101.864 42.872V37.8274C101.864 36.5867 102.476 35.9663 103.7 35.9663C104.941 35.9663 105.561 36.5867 105.561 37.8274V46.5208C105.561 47.7779 104.966 48.4064 103.774 48.4064C103.186 48.4064 102.737 48.2432 102.427 47.9167C102.117 47.5902 101.962 47.133 101.962 46.5453C101.162 47.8187 99.978 48.4554 98.4108 48.4554ZM121.162 48.5632C118.556 48.5632 116.328 48.0489 114.476 47.0204C112.625 45.9919 111.196 44.552 110.191 42.7006C109.208 40.8264 108.717 38.6209 108.717 36.0839C108.717 33.5697 109.208 31.387 110.191 29.5356C111.196 27.6615 112.625 26.2101 114.476 25.1816C116.328 24.1531 118.556 23.6388 121.162 23.6388C122.304 23.6388 123.459 23.7874 124.624 24.0845C125.813 24.3817 126.841 24.7816 127.71 25.2845C128.418 25.6959 128.853 26.2101 129.013 26.8272C129.173 27.4443 129.115 28.0272 128.841 28.5757C128.59 29.1242 128.19 29.5128 127.641 29.7414C127.093 29.9699 126.476 29.8899 125.79 29.5014C125.104 29.09 124.384 28.7928 123.63 28.61C122.876 28.4271 122.11 28.3357 121.333 28.3357C119.025 28.3357 117.276 29.01 116.088 30.3585C114.922 31.6841 114.339 33.5926 114.339 36.0839C114.339 38.5751 114.922 40.495 116.088 41.8435C117.276 43.192 119.025 43.8663 121.333 43.8663C122.064 43.8663 122.807 43.7749 123.561 43.592C124.339 43.4092 125.081 43.1235 125.79 42.7349C126.521 42.3464 127.161 42.2664 127.71 42.4949C128.258 42.7006 128.658 43.0663 128.91 43.592C129.184 44.0948 129.253 44.6548 129.115 45.2719C128.978 45.8662 128.59 46.3576 127.95 46.7461C127.081 47.3175 126.03 47.7632 124.796 48.0832C123.584 48.4032 122.373 48.5632 121.162 48.5632ZM137.638 48.4554C136.348 48.4554 135.222 48.2024 134.259 47.6963C133.312 47.1738 132.577 46.4474 132.055 45.5168C131.532 44.5699 131.271 43.4516 131.271 42.1619C131.271 40.8885 131.532 39.7865 132.055 38.8559C132.577 37.9091 133.312 37.1826 134.259 36.6765C135.222 36.1704 136.348 35.9173 137.638 35.9173C138.928 35.9173 140.046 36.1704 140.993 36.6765C141.956 37.1826 142.699 37.9091 143.222 38.8559C143.76 39.7865 144.03 40.8885 144.03 42.1619C144.03 43.4516 143.76 44.5699 143.222 45.5168C142.699 46.4474 141.956 47.1738 140.993 47.6963C140.046 48.2024 138.928 48.4554 137.638 48.4554ZM137.638 45.6882C138.422 45.6882 139.058 45.4025 139.548 44.8311C140.054 44.2597 140.307 43.37 140.307 42.1619C140.307 40.9701 140.054 40.0967 139.548 39.5416C139.058 38.9702 138.422 38.6845 137.638 38.6845C136.855 38.6845 136.218 38.9702 135.728 39.5416C135.238 40.0967 134.993 40.9701 134.993 42.1619C134.993 43.37 135.238 44.2597 135.728 44.8311C136.218 45.4025 136.855 45.6882 137.638 45.6882ZM148.14 48.4064C146.9 48.4064 146.279 47.7779 146.279 46.5208V37.8274C146.279 36.5867 146.883 35.9663 148.091 35.9663C149.3 35.9663 149.904 36.5867 149.904 37.8274V37.9254C150.312 37.2724 150.859 36.7744 151.544 36.4316C152.23 36.0888 152.997 35.9173 153.846 35.9173C155.267 35.9173 156.328 36.3336 157.03 37.1662C157.732 37.9825 158.083 39.2478 158.083 40.9619V46.5208C158.083 47.7779 157.462 48.4064 156.222 48.4064C155.634 48.4064 155.177 48.2432 154.85 47.9167C154.54 47.5902 154.385 47.1249 154.385 46.5208V41.1334C154.385 40.3008 154.23 39.7049 153.92 39.3457C153.61 38.9702 153.152 38.7825 152.548 38.7825C151.765 38.7825 151.136 39.0274 150.663 39.5171C150.206 40.0069 149.977 40.6599 149.977 41.4762V46.5208C149.977 47.7779 149.365 48.4064 148.14 48.4064ZM166.745 48.4554C163.366 48.4554 161.676 46.8147 161.676 43.5332V38.9294H160.647C159.684 38.9294 159.203 38.4723 159.203 37.5581C159.203 36.6275 159.684 36.1622 160.647 36.1622H161.676V34.3011C161.676 33.044 162.296 32.4155 163.537 32.4155C164.761 32.4155 165.374 33.044 165.374 34.3011V36.1622H167.7C168.647 36.1622 169.12 36.6275 169.12 37.5581C169.12 38.4723 168.647 38.9294 167.7 38.9294H165.374V43.3863C165.374 44.072 165.529 44.5862 165.839 44.9291C166.165 45.2719 166.68 45.4433 167.382 45.4433C167.627 45.4433 167.855 45.4188 168.067 45.3699C168.28 45.3209 168.475 45.2882 168.655 45.2719C168.884 45.2556 169.071 45.3291 169.218 45.4923C169.365 45.6556 169.439 45.9902 169.439 46.4963C169.439 46.9045 169.373 47.2555 169.243 47.5493C169.112 47.8269 168.884 48.0309 168.557 48.1615C168.345 48.2432 168.051 48.3085 167.676 48.3575C167.316 48.4228 167.006 48.4554 166.745 48.4554ZM174.809 48.4554C173.911 48.4554 173.119 48.284 172.434 47.9412C171.748 47.5983 171.201 47.133 170.793 46.5453C170.401 45.9576 170.205 45.2964 170.205 44.5617C170.205 43.6965 170.434 43.0027 170.891 42.4802C171.348 41.9578 172.091 41.5905 173.119 41.3783C174.148 41.1497 175.511 41.0354 177.209 41.0354H178.09V40.6191C178.09 39.9008 177.927 39.3947 177.601 39.1008C177.274 38.7906 176.719 38.6355 175.935 38.6355C175.495 38.6355 175.013 38.6927 174.491 38.807C173.968 38.9049 173.405 39.0763 172.801 39.3212C172.344 39.5171 171.96 39.5335 171.65 39.3702C171.34 39.1906 171.136 38.9294 171.038 38.5866C170.94 38.2274 170.964 37.8682 171.111 37.5091C171.274 37.1499 171.585 36.8887 172.042 36.7255C172.809 36.4316 173.527 36.2275 174.197 36.1132C174.882 35.9826 175.511 35.9173 176.082 35.9173C177.943 35.9173 179.331 36.3418 180.245 37.1907C181.16 38.0233 181.617 39.3212 181.617 41.0844V46.5208C181.617 47.7779 181.045 48.4064 179.903 48.4064C178.743 48.4064 178.164 47.7779 178.164 46.5208V46.3739C177.919 47.0106 177.503 47.5167 176.915 47.8922C176.344 48.2677 175.642 48.4554 174.809 48.4554ZM175.642 45.9821C176.327 45.9821 176.907 45.7454 177.38 45.2719C177.854 44.7985 178.09 44.1863 178.09 43.4353V42.9455H177.233C175.976 42.9455 175.086 43.0598 174.564 43.2884C174.042 43.5006 173.78 43.8761 173.78 44.4148C173.78 44.8719 173.935 45.2474 174.246 45.5413C174.572 45.8351 175.037 45.9821 175.642 45.9821ZM186.236 52.8143C184.995 52.8143 184.375 52.1858 184.375 50.9287V37.8274C184.375 36.5867 184.979 35.9663 186.187 35.9663C187.412 35.9663 188.024 36.5867 188.024 37.8274V37.9009C188.367 37.2968 188.873 36.8152 189.542 36.4561C190.211 36.0969 190.962 35.9173 191.795 35.9173C192.84 35.9173 193.754 36.1704 194.538 36.6765C195.338 37.1826 195.958 37.9009 196.399 38.8315C196.84 39.762 197.06 40.8722 197.06 42.1619C197.06 43.4516 196.84 44.5699 196.399 45.5168C195.958 46.4474 195.338 47.1738 194.538 47.6963C193.754 48.2024 192.84 48.4554 191.795 48.4554C190.995 48.4554 190.26 48.284 189.591 47.9412C188.938 47.5983 188.432 47.1412 188.073 46.5698V50.9287C188.073 52.1858 187.461 52.8143 186.236 52.8143ZM190.693 45.6882C191.477 45.6882 192.113 45.4025 192.603 44.8311C193.093 44.2597 193.338 43.37 193.338 42.1619C193.338 40.9701 193.093 40.0967 192.603 39.5416C192.113 38.9702 191.477 38.6845 190.693 38.6845C189.893 38.6845 189.248 38.9702 188.759 39.5416C188.269 40.0967 188.024 40.9701 188.024 42.1619C188.024 43.37 188.269 44.2597 188.759 44.8311C189.248 45.4025 189.893 45.6882 190.693 45.6882ZM201.183 52.8143C199.942 52.8143 199.322 52.1858 199.322 50.9287V37.8274C199.322 36.5867 199.926 35.9663 201.134 35.9663C202.358 35.9663 202.97 36.5867 202.97 37.8274V37.9009C203.313 37.2968 203.819 36.8152 204.489 36.4561C205.158 36.0969 205.909 35.9173 206.742 35.9173C207.786 35.9173 208.701 36.1704 209.484 36.6765C210.284 37.1826 210.905 37.9009 211.345 38.8315C211.786 39.762 212.007 40.8722 212.007 42.1619C212.007 43.4516 211.786 44.5699 211.345 45.5168C210.905 46.4474 210.284 47.1738 209.484 47.6963C208.701 48.2024 207.786 48.4554 206.742 48.4554C205.942 48.4554 205.207 48.284 204.538 47.9412C203.885 47.5983 203.379 47.1412 203.019 46.5698V50.9287C203.019 52.1858 202.407 52.8143 201.183 52.8143ZM205.64 45.6882C206.423 45.6882 207.06 45.4025 207.55 44.8311C208.04 44.2597 208.284 43.37 208.284 42.1619C208.284 40.9701 208.04 40.0967 207.55 39.5416C207.06 38.9702 206.423 38.6845 205.64 38.6845C204.84 38.6845 204.195 38.9702 203.705 39.5416C203.215 40.0967 202.97 40.9701 202.97 42.1619C202.97 43.37 203.215 44.2597 203.705 44.8311C204.195 45.4025 204.84 45.6882 205.64 45.6882Z" fill="#FAFAFA"/>
<defs>
<linearGradient id="paint0_linear_1264_6477" x1="58.5826" y1="64.4778" x2="15.5381" y2="9.95433" gradientUnits="userSpaceOnUse">
<stop offset="0.01" stop-color="#6ABF4B"/>
<stop offset="0.52" stop-color="#6ABF4B"/>
<stop offset="1" stop-color="#9DF27A"/>
</linearGradient>
<linearGradient id="paint1_linear_1264_6477" x1="46.5702" y1="73.9612" x2="3.52568" y2="19.4377" gradientUnits="userSpaceOnUse">
<stop offset="0.01" stop-color="#9DF27A"/>
<stop offset="0.52" stop-color="#9DF27A"/>
<stop offset="1" stop-color="#6ABF4B"/>
</linearGradient>
<linearGradient id="paint2_linear_1264_6477" x1="10.7927" y1="24.6595" x2="10.7927" y2="36.9649" gradientUnits="userSpaceOnUse">
<stop stop-color="white"/>
<stop offset="1" stop-color="#127F00"/>
</linearGradient>
<linearGradient id="paint3_linear_1264_6477" x1="3.75845" y1="34.7736" x2="28.2408" y2="65.1086" gradientUnits="userSpaceOnUse">
<stop stop-color="white"/>
<stop offset="0.26" stop-color="white" stop-opacity="0.76"/>
<stop offset="0.85" stop-color="white" stop-opacity="0.16"/>
<stop offset="1" stop-color="white" stop-opacity="0"/>
</linearGradient>
<linearGradient id="paint4_linear_1264_6477" x1="52.7904" y1="16.9946" x2="10.3948" y2="27.1451" gradientUnits="userSpaceOnUse">
<stop stop-color="white"/>
<stop offset="0.26" stop-color="white" stop-opacity="0.76"/>
<stop offset="0.85" stop-color="white" stop-opacity="0.16"/>
<stop offset="1" stop-color="white" stop-opacity="0"/>
</linearGradient>
</defs>
</svg>
