<svg width="300" height="300" viewBox="0 0 300 300" fill="none" xmlns="http://www.w3.org/2000/svg">
<path d="M257.533 176.664C256.492 168.768 254.756 160.98 252.343 153.39C249.769 144.99 246.769 136.524 247.081 127.764C247.303 121.59 249.169 115.602 250.081 109.488C251.575 99.7138 250.651 89.6518 248.077 80.0878C246.223 73.2178 243.475 66.4858 239.077 60.8878C235.141 55.8778 229.993 51.8878 224.449 48.7798C209.797 40.4938 192.649 37.8838 175.849 36.7798C159.721 35.6998 143.263 35.8978 127.741 40.3798C118.088 43.1525 109.107 47.8759 101.352 54.2579C93.5977 60.6399 87.2347 68.5448 82.6569 77.4838C72.6789 97.0198 66.9069 118.974 52.9269 136.284C45.5469 145.422 35.9229 153.192 31.6989 164.148C25.6569 179.814 33.1629 198.69 46.8549 208.41C55.4889 214.542 65.9469 217.47 75.3309 222.384C83.9889 226.914 91.6809 233.106 100.207 237.882C131.527 255.42 170.401 252 204.979 242.544C222.271 237.834 240.379 230.856 250.303 215.928C257.911 204.462 259.201 190.572 257.533 176.664Z" fill="#6ABF4B"/>
<path opacity="0.8" d="M257.533 176.664C256.492 168.768 254.756 160.98 252.343 153.39C249.769 144.99 246.769 136.524 247.081 127.764C247.303 121.59 249.169 115.602 250.081 109.488C251.575 99.7138 250.651 89.6518 248.077 80.0878C246.223 73.2178 243.475 66.4858 239.077 60.8878C235.141 55.8778 229.993 51.8878 224.449 48.7798C209.797 40.4938 192.649 37.8838 175.849 36.7798C159.721 35.6998 143.263 35.8978 127.741 40.3798C118.088 43.1525 109.107 47.8759 101.352 54.2579C93.5977 60.6399 87.2347 68.5448 82.6569 77.4838C72.6789 97.0198 66.9069 118.974 52.9269 136.284C45.5469 145.422 35.9229 153.192 31.6989 164.148C25.6569 179.814 33.1629 198.69 46.8549 208.41C55.4889 214.542 65.9469 217.47 75.3309 222.384C83.9889 226.914 91.6809 233.106 100.207 237.882C131.527 255.42 170.401 252 204.979 242.544C222.271 237.834 240.379 230.856 250.303 215.928C257.911 204.462 259.201 190.572 257.533 176.664Z" fill="white"/>
<path d="M153.768 261.51C209.7 261.51 255.042 258.388 255.042 254.538C255.042 250.687 209.7 247.566 153.768 247.566C97.8361 247.566 52.4941 250.687 52.4941 254.538C52.4941 258.388 97.8361 261.51 153.768 261.51Z" fill="#263238"/>
<path d="M92.9276 202.014C92.5076 199.986 91.9496 197.076 91.4396 193.56C91.2896 192.546 91.1456 191.472 91.0136 190.362C91.4696 190.278 95.0936 189.57 96.5036 188.562C97.7876 187.656 99.1676 186.162 99.2216 184.482C99.2526 184.089 99.1997 183.694 99.0664 183.323C98.9331 182.951 98.7225 182.613 98.4485 182.329C98.1745 182.045 97.8434 181.823 97.4771 181.677C97.1108 181.531 96.7176 181.465 96.3236 181.482C93.9716 181.644 91.7996 185.292 91.2896 187.338C91.2596 187.47 91.0496 189.054 90.9596 189.87C90.8816 189.198 90.8036 188.532 90.7316 187.836C90.6236 186.828 90.5396 185.766 90.4556 184.734C90.4556 184.194 90.4016 183.654 90.3776 183.108C90.3536 182.562 90.3776 182.028 90.3776 181.476C90.3776 180.672 90.4376 179.838 90.4796 179.01C91.5116 178.962 94.5296 178.764 95.8796 178.08C97.2296 177.396 98.8796 176.094 99.1856 174.48C99.2696 174.099 99.2728 173.704 99.1951 173.322C99.1174 172.939 98.9605 172.577 98.7344 172.259C98.5083 171.941 98.2181 171.674 97.8825 171.474C97.5468 171.275 97.1732 171.148 96.7856 171.102C94.4396 170.91 91.7336 174.186 90.9296 176.13C90.8996 176.19 90.7736 176.622 90.6236 177.132C90.6956 176.322 90.7616 175.512 90.8636 174.696C91.1396 172.386 91.4996 170.034 91.8476 167.676C91.9196 167.184 91.9856 166.698 92.0576 166.206C92.9216 166.164 96.1976 165.984 97.6196 165.27C99.0416 164.556 100.62 163.278 100.926 161.67C101.011 161.289 101.014 160.894 100.937 160.511C100.86 160.128 100.703 159.766 100.477 159.447C100.251 159.129 99.96 158.862 99.6238 158.663C99.2877 158.464 98.9136 158.337 98.5256 158.292C96.1736 158.1 93.4736 161.376 92.6636 163.32C92.6636 163.386 92.4836 163.92 92.3156 164.472C92.4896 163.194 92.6396 161.91 92.7536 160.638C92.9648 158.445 93.0269 156.24 92.9396 154.038C93.2456 154.038 97.0856 153.888 98.6696 153.096C100.08 152.394 101.67 151.11 101.976 149.496C102.061 149.115 102.064 148.721 101.987 148.338C101.91 147.956 101.753 147.594 101.527 147.276C101.3 146.958 101.01 146.691 100.673 146.492C100.337 146.294 99.9633 146.169 99.5756 146.124C97.2236 145.926 94.5236 149.208 93.7136 151.146C93.6536 151.284 93.1136 153.144 92.9516 153.81C92.9486 153.784 92.9486 153.758 92.9516 153.732C92.8127 151.577 92.4835 149.439 91.9676 147.342C91.5147 145.467 90.9538 143.62 90.2876 141.81C89.6876 140.13 89.0336 138.624 88.4456 137.298C88.1216 136.578 87.8096 135.93 87.5156 135.33H87.5636C87.6056 135.33 87.4916 132.48 87.4676 132.33C87.1436 130.254 85.3016 126.426 82.9736 126.054C82.5855 126.002 82.1908 126.033 81.8155 126.145C81.4401 126.256 81.0924 126.445 80.7951 126.7C80.4979 126.955 80.2577 127.269 80.0903 127.623C79.9229 127.977 79.832 128.363 79.8236 128.754C79.7276 130.416 80.9696 132.042 82.1636 133.062C83.3576 134.082 86.5856 135.078 87.3776 135.306C87.6716 135.942 87.9776 136.62 88.3076 137.376C88.8656 138.714 89.5076 140.226 90.0416 141.918C90.1916 142.368 90.3356 142.86 90.4856 143.328C90.0716 142.584 89.4896 141.57 89.4176 141.48C88.1756 139.782 84.7736 137.232 82.5416 137.976C82.1734 138.109 81.8373 138.318 81.5554 138.589C81.2734 138.861 81.0519 139.189 80.9052 139.552C80.7586 139.915 80.6901 140.305 80.7043 140.696C80.7185 141.087 80.815 141.471 80.9876 141.822C81.6656 143.34 83.5196 144.222 85.0556 144.564C86.5916 144.906 90.0116 144.3 90.7436 144.156C91.0556 145.206 91.3436 146.292 91.5956 147.444C92.0492 149.514 92.3183 151.62 92.3996 153.738C92.3996 153.864 92.3996 153.99 92.3996 154.116C92.2556 153.708 91.3196 151.554 91.2416 151.41C90.1916 149.61 87.0896 146.676 84.7856 147.168C84.4045 147.26 84.0471 147.432 83.7367 147.671C83.4263 147.911 83.1699 148.213 82.9842 148.559C82.7985 148.904 82.6877 149.284 82.659 149.676C82.6303 150.067 82.6843 150.459 82.8176 150.828C83.3276 152.406 85.0796 153.48 86.5616 153.996C88.2716 154.596 92.2496 154.212 92.3936 154.2C92.4263 156.325 92.3201 158.449 92.0756 160.56C91.9016 162.126 91.6616 163.704 91.4036 165.282C91.2056 164.76 90.3416 162.756 90.2576 162.618C89.2136 160.818 86.1116 157.89 83.8076 158.382C83.4272 158.474 83.0705 158.646 82.7606 158.885C82.4508 159.124 82.1947 159.426 82.0091 159.77C81.8235 160.115 81.7125 160.495 81.6833 160.885C81.6541 161.276 81.7073 161.668 81.8396 162.036C82.3496 163.62 84.0956 164.688 85.5836 165.21C87.2516 165.81 91.0616 165.444 91.3856 165.414C91.2656 166.128 91.1516 166.848 91.0316 167.568C90.6296 169.908 90.2216 172.26 89.8916 174.588C89.7716 175.398 89.6876 176.196 89.6036 176.988C89.2856 176.214 88.6796 174.822 88.6136 174.708C87.5636 172.908 84.4616 169.974 82.1576 170.472C81.7772 170.564 81.4205 170.736 81.1106 170.975C80.8008 171.214 80.5447 171.516 80.3591 171.86C80.1735 172.205 80.0625 172.585 80.0333 172.975C80.0041 173.366 80.0573 173.758 80.1896 174.126C80.6996 175.71 82.4456 176.778 83.9336 177.3C85.4216 177.822 88.6316 177.594 89.5376 177.522C89.3996 178.854 89.2976 180.18 89.2556 181.488C89.2556 182.052 89.2016 182.634 89.2556 183.174C89.3096 183.714 89.2556 184.266 89.2916 184.8C89.3636 185.91 89.4176 186.942 89.5076 187.974C89.5496 188.496 89.5976 188.988 89.6456 189.492C89.4416 188.664 89.0936 187.35 89.0456 187.236C88.2836 185.274 85.6616 181.932 83.3036 182.07C82.9138 182.105 82.5356 182.221 82.1936 182.411C81.8515 182.602 81.5532 182.861 81.3179 183.174C81.0827 183.487 80.9157 183.846 80.8278 184.227C80.7398 184.608 80.733 185.004 80.8076 185.388C81.0716 187.026 82.6076 188.352 84.0236 189.09C85.5596 189.9 89.2496 190.14 89.6996 190.17C89.8196 191.406 89.9516 192.612 90.0896 193.734C90.5336 197.298 91.0316 200.244 91.4096 202.308C91.7876 204.372 92.0576 205.542 92.0576 205.542C92.0757 205.655 92.1171 205.763 92.1791 205.86C92.2412 205.956 92.3225 206.038 92.4181 206.102C92.5136 206.165 92.6212 206.208 92.7341 206.227C92.847 206.247 92.9627 206.242 93.0739 206.215C93.1851 206.187 93.2894 206.137 93.3802 206.067C93.471 205.997 93.5463 205.91 93.6013 205.809C93.6564 205.709 93.69 205.598 93.7 205.484C93.71 205.37 93.6963 205.255 93.6596 205.146C93.6596 205.146 93.3476 204.048 92.9276 202.014Z" fill="#6ABF4B"/>
<path d="M90.9119 143.718C90.9119 143.718 94.8719 142.518 96.2459 141.276C97.4459 140.232 98.6459 138.57 98.4719 136.908C98.4531 136.517 98.3522 136.135 98.1758 135.786C97.9993 135.437 97.7513 135.129 97.4479 134.882C97.1445 134.635 96.7925 134.455 96.4148 134.354C96.0371 134.252 95.6422 134.231 95.2559 134.292C92.9399 134.724 91.1939 138.6 90.9299 140.688C90.9059 140.868 90.8699 143.73 90.9119 143.718Z" fill="#6ABF4B"/>
<path d="M93.0003 206.214C93.0981 206.282 93.1801 206.369 93.2409 206.471C93.3018 206.574 93.3399 206.687 93.3528 206.806C93.3656 206.924 93.3529 207.043 93.3155 207.156C93.2781 207.269 93.2169 207.372 93.1359 207.459C93.055 207.546 92.9563 207.615 92.8466 207.66C92.7368 207.706 92.6186 207.727 92.4998 207.723C92.3811 207.718 92.2647 207.689 92.1584 207.635C92.0522 207.582 91.9587 207.507 91.8843 207.414V207.414C91.8843 207.414 91.0083 206.574 89.5623 205.068C88.1163 203.562 86.0643 201.372 83.7303 198.648C82.9923 197.784 82.2243 196.848 81.4383 195.888C81.0483 196.11 77.8383 197.946 76.1103 198.114C74.5443 198.264 72.5103 198.024 71.3823 196.8C71.108 196.521 70.8954 196.188 70.7583 195.822C70.6212 195.455 70.5626 195.064 70.5864 194.674C70.6101 194.284 70.7157 193.903 70.8962 193.556C71.0768 193.209 71.3282 192.904 71.6343 192.66C73.5243 191.244 77.5563 192.588 79.2723 193.806C79.3743 193.878 80.3883 194.778 81.0123 195.354C80.6943 194.958 80.4123 194.58 80.0583 194.154C79.4163 193.344 78.7983 192.516 78.1323 191.622L77.2023 190.29C76.8783 189.852 76.6023 189.348 76.2903 188.874C75.6003 187.758 74.9583 186.594 74.3403 185.406C73.6263 185.964 71.0703 187.92 69.5403 188.31C68.0103 188.7 65.9403 188.766 64.6683 187.71C64.3544 187.476 64.0933 187.179 63.9019 186.837C63.7105 186.495 63.5932 186.117 63.5575 185.727C63.5219 185.337 63.5687 184.944 63.6949 184.574C63.8212 184.203 64.024 183.863 64.2903 183.576C65.9463 181.896 70.1343 182.61 72.0123 183.576C72.1323 183.636 73.4043 184.464 74.0943 184.932C73.7283 184.212 73.3563 183.498 73.0083 182.76C72.0003 180.636 71.0463 178.452 70.0863 176.274C69.7923 175.608 69.4863 174.948 69.1923 174.282C68.9403 174.486 65.9523 176.88 64.2423 177.312C62.7183 177.702 60.6423 177.768 59.3703 176.712C59.0564 176.478 58.7953 176.181 58.6039 175.839C58.4125 175.497 58.2952 175.119 58.2595 174.729C58.2239 174.339 58.2707 173.946 58.3969 173.576C58.5232 173.205 58.726 172.865 58.9923 172.578C60.6423 170.898 64.8303 171.612 66.7143 172.578C66.8583 172.65 68.6883 173.844 69.1143 174.168C68.4543 172.71 67.7883 171.264 67.0683 169.86C66.107 167.965 65.0247 166.133 63.8283 164.376C63.7083 164.472 60.6063 166.986 58.8483 167.43C57.3243 167.814 55.2483 167.886 53.9763 166.83C53.662 166.596 53.4007 166.299 53.2093 165.957C53.0179 165.615 52.9008 165.236 52.8657 164.846C52.8306 164.456 52.8782 164.063 53.0055 163.692C53.1328 163.322 53.3368 162.982 53.6043 162.696C55.2543 161.016 59.4423 161.73 61.3203 162.696C61.4703 162.768 63.4383 164.052 63.7803 164.31C63.7083 164.208 63.6483 164.1 63.5763 163.998C62.3198 162.278 60.9143 160.672 59.3763 159.198C58.5363 158.37 57.6903 157.626 56.8503 156.918C56.3163 157.446 53.8503 159.828 52.3323 160.404C50.8143 160.98 48.8343 161.25 47.4243 160.356C47.0868 160.158 46.7948 159.892 46.5672 159.574C46.3396 159.256 46.1816 158.893 46.1035 158.51C46.0254 158.127 46.0289 157.731 46.1138 157.349C46.1987 156.968 46.3631 156.608 46.5963 156.294C48.0543 154.44 52.2963 154.686 54.2703 155.418C54.3783 155.46 55.4223 155.982 56.1783 156.372C55.7943 156.06 55.4043 155.73 55.0323 155.442C53.6283 154.338 52.2783 153.414 51.0783 152.61C50.3883 152.16 49.7583 151.764 49.1643 151.41C48.3723 151.656 45.1743 152.61 43.5783 152.412C41.9823 152.214 40.0803 151.548 39.2403 150.108C39.0333 149.776 38.8982 149.405 38.8437 149.018C38.7892 148.63 38.8165 148.236 38.924 147.86C39.0314 147.484 39.2165 147.135 39.4674 146.834C39.7182 146.534 40.0292 146.29 40.3803 146.118C42.5283 145.146 46.1763 147.318 47.5803 148.878C47.7003 149.016 49.3803 151.338 49.3323 151.35H49.2843C49.8843 151.686 50.4843 152.058 51.1443 152.478C52.3443 153.258 53.7423 154.152 55.1763 155.226C56.7283 156.369 58.2147 157.599 59.6283 158.91C61.2124 160.381 62.6658 161.987 63.9723 163.71C63.9827 163.734 63.9969 163.756 64.0143 163.776C63.7863 163.128 63.2103 161.28 63.1803 161.136C62.7843 159.072 63.2343 154.842 65.2983 153.708C65.6466 153.53 66.0286 153.427 66.4194 153.405C66.8102 153.384 67.201 153.446 67.5666 153.585C67.9321 153.725 68.2642 153.94 68.5411 154.217C68.8181 154.493 69.0339 154.825 69.1743 155.19C69.8223 156.726 69.1743 158.676 68.4183 160.038C67.5303 161.574 64.4043 163.812 64.1583 163.986C65.4376 165.772 66.5981 167.64 67.6323 169.578C68.2323 170.706 68.8323 171.858 69.3843 173.022C69.2043 172.452 69.0483 171.942 69.0363 171.87C68.6403 169.806 69.0843 165.576 71.1543 164.442C71.503 164.264 71.8853 164.161 72.2764 164.14C72.6675 164.119 73.0585 164.181 73.4242 164.322C73.7898 164.462 74.1217 164.678 74.3985 164.955C74.6752 165.232 74.8905 165.564 75.0303 165.93C75.6783 167.46 75.0303 169.41 74.2743 170.772C73.5183 172.134 70.8483 174.114 70.1463 174.624C70.3563 175.074 70.5723 175.518 70.7823 175.968C71.7963 178.122 72.7923 180.282 73.8363 182.37C74.2023 183.102 74.5923 183.81 74.9763 184.524C74.8203 184.02 74.6943 183.594 74.6763 183.522C74.2803 181.458 74.7303 177.234 76.7943 176.1C77.1426 175.922 77.5246 175.819 77.9154 175.797C78.3062 175.776 78.697 175.838 79.0626 175.977C79.4281 176.117 79.7602 176.332 80.0371 176.609C80.3141 176.885 80.5299 177.217 80.6703 177.582C81.3183 179.112 80.7003 181.068 79.9143 182.43C79.1283 183.792 76.7463 185.574 75.9123 186.186C76.3323 186.9 76.7463 187.62 77.1843 188.298C77.4963 188.754 77.7843 189.216 78.0963 189.654L79.0563 190.968C79.6983 191.778 80.3523 192.624 81.0003 193.398C81.4443 193.944 81.8763 194.454 82.3143 194.97C81.9363 194.244 81.2343 192.804 81.1923 192.678C80.4843 190.692 80.2863 186.45 82.1583 185.016C82.4755 184.787 82.8373 184.627 83.2204 184.547C83.6034 184.466 83.999 184.468 84.3815 184.55C84.764 184.633 85.1249 184.795 85.4406 185.026C85.7564 185.257 86.02 185.552 86.2143 185.892C87.0843 187.308 86.7663 189.336 86.2143 190.8C85.6143 192.414 82.9563 195 82.6143 195.324C83.3403 196.176 84.0483 196.992 84.7383 197.76C87.1023 200.406 89.1723 202.524 90.6423 203.988C92.1123 205.452 93.0003 206.214 93.0003 206.214ZM56.8023 156.456C56.8023 156.456 59.4363 153.258 59.9043 151.476C60.3003 149.958 60.3843 147.876 59.3583 146.604C59.1266 146.288 58.8308 146.024 58.4904 145.83C58.1499 145.636 57.7724 145.516 57.3824 145.477C56.9923 145.439 56.5986 145.483 56.2268 145.607C55.8549 145.731 55.5134 145.931 55.2243 146.196C53.5323 147.834 54.2163 152.028 55.1463 153.918C55.2003 154.08 56.7723 156.486 56.8023 156.456Z" fill="#6ABF4B"/>
<path opacity="0.1" d="M93.0003 206.214C93.0981 206.282 93.1801 206.369 93.2409 206.471C93.3018 206.574 93.3399 206.687 93.3528 206.806C93.3656 206.924 93.3529 207.043 93.3155 207.156C93.2781 207.269 93.2169 207.372 93.1359 207.459C93.055 207.546 92.9563 207.615 92.8466 207.66C92.7368 207.706 92.6186 207.727 92.4998 207.723C92.3811 207.718 92.2647 207.689 92.1584 207.635C92.0522 207.582 91.9587 207.507 91.8843 207.414V207.414C91.8843 207.414 91.0083 206.574 89.5623 205.068C88.1163 203.562 86.0643 201.372 83.7303 198.648C82.9923 197.784 82.2243 196.848 81.4383 195.888C81.0483 196.11 77.8383 197.946 76.1103 198.114C74.5443 198.264 72.5103 198.024 71.3823 196.8C71.108 196.521 70.8954 196.188 70.7583 195.822C70.6212 195.455 70.5626 195.064 70.5864 194.674C70.6101 194.284 70.7157 193.903 70.8962 193.556C71.0768 193.209 71.3282 192.904 71.6343 192.66C73.5243 191.244 77.5563 192.588 79.2723 193.806C79.3743 193.878 80.3883 194.778 81.0123 195.354C80.6943 194.958 80.4123 194.58 80.0583 194.154C79.4163 193.344 78.7983 192.516 78.1323 191.622L77.2023 190.29C76.8783 189.852 76.6023 189.348 76.2903 188.874C75.6003 187.758 74.9583 186.594 74.3403 185.406C73.6263 185.964 71.0703 187.92 69.5403 188.31C68.0103 188.7 65.9403 188.766 64.6683 187.71C64.3544 187.476 64.0933 187.179 63.9019 186.837C63.7105 186.495 63.5932 186.117 63.5575 185.727C63.5219 185.337 63.5687 184.944 63.6949 184.574C63.8212 184.203 64.024 183.863 64.2903 183.576C65.9463 181.896 70.1343 182.61 72.0123 183.576C72.1323 183.636 73.4043 184.464 74.0943 184.932C73.7283 184.212 73.3563 183.498 73.0083 182.76C72.0003 180.636 71.0463 178.452 70.0863 176.274C69.7923 175.608 69.4863 174.948 69.1923 174.282C68.9403 174.486 65.9523 176.88 64.2423 177.312C62.7183 177.702 60.6423 177.768 59.3703 176.712C59.0564 176.478 58.7953 176.181 58.6039 175.839C58.4125 175.497 58.2952 175.119 58.2595 174.729C58.2239 174.339 58.2707 173.946 58.3969 173.576C58.5232 173.205 58.726 172.865 58.9923 172.578C60.6423 170.898 64.8303 171.612 66.7143 172.578C66.8583 172.65 68.6883 173.844 69.1143 174.168C68.4543 172.71 67.7883 171.264 67.0683 169.86C66.107 167.965 65.0247 166.133 63.8283 164.376C63.7083 164.472 60.6063 166.986 58.8483 167.43C57.3243 167.814 55.2483 167.886 53.9763 166.83C53.662 166.596 53.4007 166.299 53.2093 165.957C53.0179 165.615 52.9008 165.236 52.8657 164.846C52.8306 164.456 52.8782 164.063 53.0055 163.692C53.1328 163.322 53.3368 162.982 53.6043 162.696C55.2543 161.016 59.4423 161.73 61.3203 162.696C61.4703 162.768 63.4383 164.052 63.7803 164.31C63.7083 164.208 63.6483 164.1 63.5763 163.998C62.3198 162.278 60.9143 160.672 59.3763 159.198C58.5363 158.37 57.6903 157.626 56.8503 156.918C56.3163 157.446 53.8503 159.828 52.3323 160.404C50.8143 160.98 48.8343 161.25 47.4243 160.356C47.0868 160.158 46.7948 159.892 46.5672 159.574C46.3396 159.256 46.1816 158.893 46.1035 158.51C46.0254 158.127 46.0289 157.731 46.1138 157.349C46.1987 156.968 46.3631 156.608 46.5963 156.294C48.0543 154.44 52.2963 154.686 54.2703 155.418C54.3783 155.46 55.4223 155.982 56.1783 156.372C55.7943 156.06 55.4043 155.73 55.0323 155.442C53.6283 154.338 52.2783 153.414 51.0783 152.61C50.3883 152.16 49.7583 151.764 49.1643 151.41C48.3723 151.656 45.1743 152.61 43.5783 152.412C41.9823 152.214 40.0803 151.548 39.2403 150.108C39.0333 149.776 38.8982 149.405 38.8437 149.018C38.7892 148.63 38.8165 148.236 38.924 147.86C39.0314 147.484 39.2165 147.135 39.4674 146.834C39.7182 146.534 40.0292 146.29 40.3803 146.118C42.5283 145.146 46.1763 147.318 47.5803 148.878C47.7003 149.016 49.3803 151.338 49.3323 151.35H49.2843C49.8843 151.686 50.4843 152.058 51.1443 152.478C52.3443 153.258 53.7423 154.152 55.1763 155.226C56.7283 156.369 58.2147 157.599 59.6283 158.91C61.2124 160.381 62.6658 161.987 63.9723 163.71C63.9827 163.734 63.9969 163.756 64.0143 163.776C63.7863 163.128 63.2103 161.28 63.1803 161.136C62.7843 159.072 63.2343 154.842 65.2983 153.708C65.6466 153.53 66.0286 153.427 66.4194 153.405C66.8102 153.384 67.201 153.446 67.5666 153.585C67.9321 153.725 68.2642 153.94 68.5411 154.217C68.8181 154.493 69.0339 154.825 69.1743 155.19C69.8223 156.726 69.1743 158.676 68.4183 160.038C67.5303 161.574 64.4043 163.812 64.1583 163.986C65.4376 165.772 66.5981 167.64 67.6323 169.578C68.2323 170.706 68.8323 171.858 69.3843 173.022C69.2043 172.452 69.0483 171.942 69.0363 171.87C68.6403 169.806 69.0843 165.576 71.1543 164.442C71.503 164.264 71.8853 164.161 72.2764 164.14C72.6675 164.119 73.0585 164.181 73.4242 164.322C73.7898 164.462 74.1217 164.678 74.3985 164.955C74.6752 165.232 74.8905 165.564 75.0303 165.93C75.6783 167.46 75.0303 169.41 74.2743 170.772C73.5183 172.134 70.8483 174.114 70.1463 174.624C70.3563 175.074 70.5723 175.518 70.7823 175.968C71.7963 178.122 72.7923 180.282 73.8363 182.37C74.2023 183.102 74.5923 183.81 74.9763 184.524C74.8203 184.02 74.6943 183.594 74.6763 183.522C74.2803 181.458 74.7303 177.234 76.7943 176.1C77.1426 175.922 77.5246 175.819 77.9154 175.797C78.3062 175.776 78.697 175.838 79.0626 175.977C79.4281 176.117 79.7602 176.332 80.0371 176.609C80.3141 176.885 80.5299 177.217 80.6703 177.582C81.3183 179.112 80.7003 181.068 79.9143 182.43C79.1283 183.792 76.7463 185.574 75.9123 186.186C76.3323 186.9 76.7463 187.62 77.1843 188.298C77.4963 188.754 77.7843 189.216 78.0963 189.654L79.0563 190.968C79.6983 191.778 80.3523 192.624 81.0003 193.398C81.4443 193.944 81.8763 194.454 82.3143 194.97C81.9363 194.244 81.2343 192.804 81.1923 192.678C80.4843 190.692 80.2863 186.45 82.1583 185.016C82.4755 184.787 82.8373 184.627 83.2204 184.547C83.6034 184.466 83.999 184.468 84.3815 184.55C84.764 184.633 85.1249 184.795 85.4406 185.026C85.7564 185.257 86.02 185.552 86.2143 185.892C87.0843 187.308 86.7663 189.336 86.2143 190.8C85.6143 192.414 82.9563 195 82.6143 195.324C83.3403 196.176 84.0483 196.992 84.7383 197.76C87.1023 200.406 89.1723 202.524 90.6423 203.988C92.1123 205.452 93.0003 206.214 93.0003 206.214ZM56.8023 156.456C56.8023 156.456 59.4363 153.258 59.9043 151.476C60.3003 149.958 60.3843 147.876 59.3583 146.604C59.1266 146.288 58.8308 146.024 58.4904 145.83C58.1499 145.636 57.7724 145.516 57.3824 145.477C56.9923 145.439 56.5986 145.483 56.2268 145.607C55.8549 145.731 55.5134 145.931 55.2243 146.196C53.5323 147.834 54.2163 152.028 55.1463 153.918C55.2003 154.08 56.7723 156.486 56.8023 156.456Z" fill="black"/>
<path d="M77.6226 245.784C77.1126 243.774 76.4226 240.894 75.7626 237.384C75.5706 236.382 75.3786 235.308 75.1986 234.21C75.6426 234.102 79.2366 233.238 80.5986 232.176C81.8406 231.21 83.1546 229.638 83.1366 227.976C83.1453 227.587 83.0724 227.201 82.9225 226.841C82.7727 226.482 82.5492 226.159 82.2665 225.891C81.9838 225.624 81.6482 225.419 81.2814 225.289C80.9145 225.159 80.5245 225.108 80.1366 225.138C77.7906 225.402 75.7806 229.146 75.3366 231.21C75.3366 231.342 75.1686 232.938 75.1206 233.754C75.0066 233.088 74.8986 232.428 74.7966 231.732C74.6466 230.736 74.5146 229.674 74.3826 228.648L74.2386 227.028C74.1726 226.476 74.1846 225.942 74.1546 225.396C74.1546 224.592 74.1546 223.758 74.1546 222.93C75.1806 222.834 78.1866 222.504 79.5186 221.76C80.8506 221.016 82.4286 219.642 82.6566 217.998C82.7249 217.613 82.7111 217.217 82.6161 216.837C82.5211 216.457 82.3471 216.101 82.1053 215.793C81.8635 215.485 81.5594 215.232 81.2129 215.049C80.8665 214.867 80.4854 214.759 80.0946 214.734C77.7426 214.638 75.1866 218.034 74.4606 220.014C74.4606 220.074 74.3286 220.506 74.2086 221.022C74.2086 220.212 74.2746 219.408 74.3346 218.586C74.5146 216.258 74.7666 213.9 75.0126 211.53C75.0606 211.032 75.1026 210.54 75.1566 210.048C76.0206 209.97 79.2786 209.64 80.6706 208.848C82.0626 208.056 83.5806 206.73 83.8146 205.08C83.882 204.695 83.8675 204.299 83.7721 203.92C83.6767 203.54 83.5025 203.185 83.2609 202.877C83.0193 202.569 82.7156 202.316 82.3696 202.133C82.0236 201.95 81.6431 201.842 81.2526 201.816C78.9006 201.726 76.3386 205.122 75.6186 207.096C75.6186 207.168 75.4626 207.696 75.3246 208.266C75.4386 206.976 75.5346 205.692 75.5946 204.414C75.707 202.214 75.6709 200.009 75.4866 197.814C75.7926 197.814 79.6206 197.478 81.1746 196.614C82.5426 195.852 84.0846 194.496 84.3126 192.846C84.3809 192.461 84.3671 192.065 84.2721 191.685C84.1771 191.305 84.003 190.949 83.7613 190.641C83.5195 190.333 83.2154 190.08 82.8689 189.897C82.5225 189.715 82.1414 189.607 81.7506 189.582C79.3986 189.492 76.8426 192.888 76.1166 194.862C76.0686 195 75.6126 196.878 75.4746 197.556C75.4746 197.556 75.4746 197.502 75.4746 197.478C75.2447 195.331 74.823 193.208 74.2146 191.136C73.6775 189.285 73.0344 187.466 72.2886 185.688C71.6166 184.032 70.8966 182.556 70.2486 181.254C69.8946 180.552 69.5586 179.922 69.2346 179.328H69.2826C69.3246 179.328 69.0906 176.49 69.0546 176.328C68.6406 174.264 66.6546 170.52 64.2546 170.25C63.8667 170.22 63.4767 170.271 63.1098 170.401C62.743 170.531 62.4074 170.736 62.1247 171.003C61.842 171.271 61.6185 171.594 61.4687 171.953C61.3188 172.313 61.2459 172.699 61.2546 173.088C61.2546 174.75 62.5446 176.322 63.7866 177.288C65.0286 178.254 68.2866 179.088 69.0906 179.304C69.4146 179.904 69.7506 180.588 70.1106 181.326C70.7106 182.64 71.4066 184.122 72.0426 185.79C72.2166 186.234 72.3786 186.714 72.5466 187.182C72.1026 186.456 71.4726 185.466 71.4006 185.382C70.0866 183.744 66.6006 181.35 64.3746 182.19C64.0133 182.34 63.6876 182.564 63.4186 182.848C63.1496 183.132 62.9434 183.47 62.8133 183.839C62.6831 184.208 62.632 184.6 62.6633 184.99C62.6945 185.38 62.8074 185.759 62.9946 186.102C63.7386 187.59 65.6286 188.376 67.1946 188.664C68.7606 188.952 72.1326 188.178 72.8586 187.998C73.2186 189.036 73.5606 190.11 73.8546 191.25C74.4137 193.308 74.7852 195.413 74.9646 197.538C74.9646 197.658 74.9646 197.79 74.9646 197.91C74.8086 197.514 73.7646 195.396 73.6926 195.258C72.5646 193.458 69.3366 190.716 67.0566 191.31C66.6805 191.419 66.3315 191.606 66.0324 191.858C65.7334 192.111 65.491 192.424 65.3212 192.777C65.1513 193.13 65.0577 193.514 65.0466 193.906C65.0355 194.297 65.1071 194.686 65.2566 195.048C65.8566 196.608 67.6566 197.604 69.1326 198.048C70.8666 198.57 74.8206 198.012 74.9706 197.994C75.0913 200.115 75.0773 202.241 74.9286 204.36C74.8206 205.932 74.6526 207.516 74.4666 209.106C74.2506 208.596 73.2666 206.628 73.2066 206.496C72.0786 204.696 68.8506 201.954 66.5706 202.548C66.1945 202.657 65.8455 202.844 65.5464 203.096C65.2474 203.349 65.005 203.662 64.8352 204.015C64.6653 204.368 64.5717 204.752 64.5606 205.144C64.5495 205.535 64.621 205.924 64.7706 206.286C65.3706 207.846 67.1706 208.836 68.6466 209.286C70.3386 209.79 74.1306 209.286 74.4546 209.232C74.3646 209.952 74.2866 210.678 74.1966 211.398C73.9026 213.756 73.5966 216.126 73.3626 218.466C73.2846 219.276 73.2366 220.08 73.1826 220.866C72.8286 220.11 72.1626 218.742 72.0906 218.634C70.9626 216.834 67.7406 214.092 65.4906 214.686C65.115 214.796 64.7666 214.983 64.4681 215.236C64.1696 215.489 63.9276 215.802 63.7579 216.154C63.5881 216.507 63.4944 216.891 63.4828 217.282C63.4712 217.673 63.542 218.062 63.6906 218.424C64.2906 219.984 66.0906 220.974 67.5666 221.424C69.0426 221.874 72.2766 221.514 73.1766 221.394C73.0986 222.732 73.0506 224.064 73.0686 225.372C73.0686 225.942 73.0686 226.518 73.1226 227.058L73.2306 228.684C73.3506 229.788 73.4526 230.814 73.5846 231.846C73.6506 232.362 73.7226 232.848 73.7946 233.352C73.5486 232.536 73.1466 231.24 73.0986 231.126C72.2466 229.2 69.4986 225.978 67.1346 226.218C66.7469 226.269 66.3744 226.402 66.0411 226.606C65.7079 226.811 65.4213 227.083 65.2001 227.406C64.9789 227.728 64.828 228.094 64.7571 228.478C64.6862 228.863 64.6969 229.258 64.7886 229.638C65.1246 231.27 66.7446 232.524 68.1666 233.196C69.7326 233.94 73.4286 234.018 73.8846 234.024C74.0586 235.26 74.2386 236.454 74.4306 237.576C75.0306 241.11 75.6306 244.038 76.1226 246.078C76.6146 248.118 76.9146 249.282 76.9146 249.282C76.9882 249.478 77.1333 249.639 77.3206 249.732C77.5079 249.825 77.7236 249.844 77.9243 249.785C78.125 249.726 78.2958 249.593 78.4023 249.412C78.5089 249.232 78.5433 249.019 78.4986 248.814C78.4986 248.814 78.1326 247.8 77.6226 245.784Z" fill="#6ABF4B"/>
<path d="M73.0324 187.632C73.0324 187.632 76.9384 186.252 78.2524 184.962C79.3744 183.858 80.5024 182.148 80.2924 180.498C80.2556 180.108 80.1372 179.73 79.9448 179.389C79.7525 179.048 79.4904 178.751 79.1757 178.518C78.861 178.285 78.5008 178.121 78.1184 178.036C77.736 177.951 77.3401 177.948 76.9564 178.026C74.6644 178.56 73.0924 182.508 72.9184 184.626C72.9004 184.8 72.9904 187.65 73.0324 187.632Z" fill="#6ABF4B"/>
<path d="M75.3723 246.63C73.8423 245.238 71.6823 243.21 69.1983 240.666C68.4843 239.934 67.7343 239.148 66.9783 238.332C67.2903 237.996 69.8043 235.29 70.3623 233.652C70.8663 232.164 71.0943 230.13 70.1583 228.75C69.9498 228.419 69.6739 228.136 69.3487 227.919C69.0235 227.702 68.6561 227.556 68.2707 227.49C67.8852 227.424 67.4902 227.441 67.1114 227.538C66.7327 227.635 66.3786 227.811 66.0723 228.054C64.2723 229.566 64.6503 233.802 65.4423 235.746C65.4903 235.872 66.2583 237.282 66.6423 237.99C66.1803 237.498 65.7243 237.006 65.2563 236.478C64.5783 235.734 63.8883 234.918 63.2103 234.138L62.1903 232.866C61.8363 232.44 61.5543 231.99 61.2243 231.552C60.7563 230.898 60.3063 230.196 59.8563 229.494C60.6603 228.852 62.9883 226.914 63.6903 225.564C64.3923 224.214 64.9503 222.192 64.2303 220.692C64.0745 220.333 63.8447 220.011 63.5559 219.747C63.2672 219.482 62.926 219.282 62.5545 219.159C62.1831 219.035 61.7899 218.991 61.4004 219.03C61.011 219.069 60.6341 219.19 60.2943 219.384C58.2783 220.584 58.0203 224.844 58.4943 226.89C58.4943 226.962 58.6623 227.382 58.8423 227.88C58.4223 227.184 58.0023 226.494 57.6003 225.774C56.4663 223.734 55.3743 221.628 54.2703 219.516C54.0423 219.078 53.8083 218.64 53.5743 218.202C54.2523 217.662 56.7903 215.586 57.5283 214.17C58.2663 212.754 58.7823 210.798 58.0683 209.298C57.9125 208.939 57.6827 208.617 57.3939 208.353C57.1052 208.088 56.764 207.888 56.3925 207.765C56.0211 207.641 55.6279 207.597 55.2384 207.636C54.849 207.675 54.4721 207.796 54.1323 207.99C52.1163 209.19 51.8583 213.45 52.3323 215.496C52.3323 215.574 52.5303 216.096 52.7343 216.636C52.1343 215.496 51.4863 214.374 50.8323 213.27C49.7109 211.38 48.4662 209.566 47.1063 207.84C47.3523 207.648 50.3763 205.278 51.1923 203.706C51.9183 202.314 52.4523 200.334 51.7323 198.834C51.5771 198.474 51.3477 198.152 51.0592 197.887C50.7707 197.622 50.4296 197.421 50.0581 197.297C49.6866 197.173 49.2932 197.129 48.9034 197.167C48.5137 197.206 48.1364 197.326 47.7963 197.52C45.7803 198.72 45.5223 202.986 45.9963 205.032C46.0323 205.176 46.6923 206.994 46.9443 207.636L46.9023 207.57C45.5211 205.91 43.9972 204.374 42.3483 202.98C40.8997 201.733 39.3813 200.569 37.8003 199.494C36.3243 198.486 34.9083 197.652 33.6543 196.926C32.9703 196.536 32.3343 196.194 31.7463 195.882H31.7883C31.8303 195.882 30.0603 193.62 29.9283 193.482C28.4463 191.988 24.7083 189.978 22.6083 191.046C22.2642 191.232 21.9632 191.488 21.7248 191.799C21.4865 192.109 21.3162 192.466 21.2251 192.846C21.1339 193.227 21.124 193.622 21.1959 194.007C21.2678 194.391 21.4199 194.756 21.6423 195.078C22.5423 196.482 24.5043 197.07 26.0763 197.19C27.6483 197.31 30.8343 196.218 31.6083 195.942C32.2083 196.278 32.8683 196.644 33.5763 197.07C34.8123 197.82 36.2043 198.684 37.6503 199.722C38.0403 199.998 38.4423 200.322 38.8503 200.604C38.0823 200.244 37.0083 199.77 36.9003 199.734C34.8963 199.092 30.6483 199.026 29.2743 200.934C29.0564 201.259 28.909 201.626 28.8418 202.011C28.7745 202.396 28.7888 202.791 28.8838 203.171C28.9788 203.55 29.1524 203.906 29.3933 204.214C29.6342 204.522 29.937 204.776 30.2823 204.96C31.7283 205.782 33.7383 205.404 35.1843 204.786C36.6303 204.168 39.0363 201.654 39.5463 201.108C40.4163 201.774 41.2923 202.482 42.1683 203.268C43.7678 204.678 45.2377 206.228 46.5603 207.9C46.6383 207.996 46.7043 208.104 46.7823 208.206C46.4283 207.96 44.3823 206.766 44.2503 206.7C42.3303 205.842 38.1123 205.308 36.5403 207.066C36.2874 207.364 36.1001 207.712 35.9905 208.088C35.8809 208.463 35.8514 208.858 35.9041 209.245C35.9567 209.633 36.0902 210.005 36.2959 210.338C36.5017 210.67 36.7751 210.956 37.0983 211.176C38.4423 212.154 40.4883 211.998 41.9883 211.542C43.7223 211.02 46.7163 208.374 46.8303 208.278C48.1051 209.978 49.2675 211.76 50.3103 213.612C51.0903 214.98 51.8223 216.396 52.5423 217.812C52.0803 217.506 50.1963 216.396 50.0523 216.33C48.1323 215.472 43.9143 214.944 42.3363 216.696C42.0828 216.994 41.8951 217.343 41.7855 217.719C41.6758 218.094 41.6466 218.489 41.6998 218.877C41.7531 219.265 41.8875 219.637 42.0944 219.969C42.3012 220.302 42.5758 220.587 42.9003 220.806C44.2443 221.79 46.2843 221.628 47.7903 221.178C49.4823 220.662 52.3623 218.142 52.5903 217.932C52.9203 218.58 53.2503 219.228 53.5743 219.876C54.6303 222.012 55.6743 224.148 56.7783 226.23C57.1563 226.95 57.5583 227.652 57.9783 228.348C57.2643 227.91 55.9563 227.148 55.8363 227.088C53.9163 226.23 49.6983 225.702 48.1263 227.454C47.8734 227.752 47.6861 228.1 47.5765 228.476C47.4669 228.851 47.4374 229.246 47.4901 229.633C47.5427 230.021 47.6762 230.393 47.8819 230.726C48.0877 231.058 48.3611 231.344 48.6843 231.564C50.0283 232.548 52.0683 232.386 53.5743 231.936C55.0803 231.486 57.5523 229.41 58.2423 228.816C58.9143 229.974 59.6043 231.114 60.3423 232.194C60.6723 232.656 60.9783 233.148 61.3143 233.574L62.3043 234.864C63.0123 235.722 63.6663 236.526 64.3443 237.306L65.3463 238.452C64.6923 237.9 63.6423 237.048 63.5463 236.982C61.7463 235.842 57.6903 234.678 55.8663 236.172C55.5703 236.428 55.3316 236.745 55.1658 237.099C55.0001 237.454 54.9109 237.84 54.9041 238.232C54.8973 238.624 54.973 239.012 55.1264 239.373C55.2798 239.733 55.5074 240.057 55.7943 240.324C56.9943 241.494 59.0223 241.65 60.5943 241.428C62.3103 241.182 65.4363 239.208 65.8203 238.962C66.6423 239.892 67.4583 240.762 68.2203 241.62C70.6683 244.242 72.8103 246.336 74.3283 247.776C75.8463 249.216 76.7283 250.02 76.7283 250.02C76.8979 250.144 77.1084 250.199 77.3171 250.174C77.5258 250.149 77.7171 250.045 77.8522 249.884C77.9873 249.723 78.0561 249.517 78.0446 249.307C78.0331 249.097 77.9422 248.899 77.7903 248.754C77.7903 248.754 76.9083 248.028 75.3723 246.63Z" fill="#6ABF4B"/>
<path d="M39.4684 200.664C39.4684 200.664 41.9584 197.358 42.3484 195.552C42.6784 194.016 42.6724 191.952 41.5864 190.704C41.3401 190.4 41.0327 190.151 40.6842 189.973C40.3356 189.795 39.9535 189.692 39.5627 189.671C39.1719 189.651 38.7811 189.712 38.4155 189.852C38.0499 189.991 37.7177 190.206 37.4404 190.482C35.8204 192.192 36.6904 196.356 37.6984 198.198C37.8004 198.36 39.4384 200.694 39.4684 200.664Z" fill="#6ABF4B"/>
<g opacity="0.1">
<path opacity="0.1" d="M77.6226 245.784C77.1126 243.774 76.4226 240.894 75.7626 237.384C75.5706 236.382 75.3786 235.308 75.1986 234.21C75.6426 234.102 79.2366 233.238 80.5986 232.176C81.8406 231.21 83.1546 229.638 83.1366 227.976C83.1453 227.587 83.0724 227.201 82.9225 226.841C82.7727 226.482 82.5492 226.159 82.2665 225.891C81.9838 225.624 81.6482 225.419 81.2814 225.289C80.9145 225.159 80.5245 225.108 80.1366 225.138C77.7906 225.402 75.7806 229.146 75.3366 231.21C75.3366 231.342 75.1686 232.938 75.1206 233.754C75.0066 233.088 74.8986 232.428 74.7966 231.732C74.6466 230.736 74.5146 229.674 74.3826 228.648L74.2386 227.028C74.1726 226.476 74.1846 225.942 74.1546 225.396C74.1546 224.592 74.1546 223.758 74.1546 222.93C75.1806 222.834 78.1866 222.504 79.5186 221.76C80.8506 221.016 82.4286 219.642 82.6566 217.998C82.7249 217.613 82.7111 217.217 82.6161 216.837C82.5211 216.457 82.3471 216.101 82.1053 215.793C81.8635 215.485 81.5594 215.232 81.2129 215.049C80.8665 214.867 80.4854 214.759 80.0946 214.734C77.7426 214.638 75.1866 218.034 74.4606 220.014C74.4606 220.074 74.3286 220.506 74.2086 221.022C74.2086 220.212 74.2746 219.408 74.3346 218.586C74.5146 216.258 74.7666 213.9 75.0126 211.53C75.0606 211.032 75.1026 210.54 75.1566 210.048C76.0206 209.97 79.2786 209.64 80.6706 208.848C82.0626 208.056 83.5806 206.73 83.8146 205.08C83.882 204.695 83.8675 204.299 83.7721 203.92C83.6767 203.54 83.5025 203.185 83.2609 202.877C83.0193 202.569 82.7156 202.316 82.3696 202.133C82.0236 201.95 81.6431 201.842 81.2526 201.816C78.9006 201.726 76.3386 205.122 75.6186 207.096C75.6186 207.168 75.4626 207.696 75.3246 208.266C75.4386 206.976 75.5346 205.692 75.5946 204.414C75.707 202.214 75.6709 200.009 75.4866 197.814C75.7926 197.814 79.6206 197.478 81.1746 196.614C82.5426 195.852 84.0846 194.496 84.3126 192.846C84.3809 192.461 84.3671 192.065 84.2721 191.685C84.1771 191.305 84.003 190.949 83.7613 190.641C83.5195 190.333 83.2154 190.08 82.8689 189.897C82.5225 189.715 82.1414 189.607 81.7506 189.582C79.3986 189.492 76.8426 192.888 76.1166 194.862C76.0686 195 75.6126 196.878 75.4746 197.556C75.4746 197.556 75.4746 197.502 75.4746 197.478C75.2447 195.331 74.823 193.208 74.2146 191.136C73.6775 189.285 73.0344 187.466 72.2886 185.688C71.6166 184.032 70.8966 182.556 70.2486 181.254C69.8946 180.552 69.5586 179.922 69.2346 179.328H69.2826C69.3246 179.328 69.0906 176.49 69.0546 176.328C68.6406 174.264 66.6546 170.52 64.2546 170.25C63.8667 170.22 63.4767 170.271 63.1098 170.401C62.743 170.531 62.4074 170.736 62.1247 171.003C61.842 171.271 61.6185 171.594 61.4687 171.953C61.3188 172.313 61.2459 172.699 61.2546 173.088C61.2546 174.75 62.5446 176.322 63.7866 177.288C65.0286 178.254 68.2866 179.088 69.0906 179.304C69.4146 179.904 69.7506 180.588 70.1106 181.326C70.7106 182.64 71.4066 184.122 72.0426 185.79C72.2166 186.234 72.3786 186.714 72.5466 187.182C72.1026 186.456 71.4726 185.466 71.4006 185.382C70.0866 183.744 66.6006 181.35 64.3746 182.19C64.0133 182.34 63.6876 182.564 63.4186 182.848C63.1496 183.132 62.9434 183.47 62.8133 183.839C62.6831 184.208 62.632 184.6 62.6633 184.99C62.6945 185.38 62.8074 185.759 62.9946 186.102C63.7386 187.59 65.6286 188.376 67.1946 188.664C68.7606 188.952 72.1326 188.178 72.8586 187.998C73.2186 189.036 73.5606 190.11 73.8546 191.25C74.4137 193.308 74.7852 195.413 74.9646 197.538C74.9646 197.658 74.9646 197.79 74.9646 197.91C74.8086 197.514 73.7646 195.396 73.6926 195.258C72.5646 193.458 69.3366 190.716 67.0566 191.31C66.6805 191.419 66.3315 191.606 66.0324 191.858C65.7334 192.111 65.491 192.424 65.3212 192.777C65.1513 193.13 65.0577 193.514 65.0466 193.906C65.0355 194.297 65.1071 194.686 65.2566 195.048C65.8566 196.608 67.6566 197.604 69.1326 198.048C70.8666 198.57 74.8206 198.012 74.9706 197.994C75.0913 200.115 75.0773 202.241 74.9286 204.36C74.8206 205.932 74.6526 207.516 74.4666 209.106C74.2506 208.596 73.2666 206.628 73.2066 206.496C72.0786 204.696 68.8506 201.954 66.5706 202.548C66.1945 202.657 65.8455 202.844 65.5464 203.096C65.2474 203.349 65.005 203.662 64.8352 204.015C64.6653 204.368 64.5717 204.752 64.5606 205.144C64.5495 205.535 64.621 205.924 64.7706 206.286C65.3706 207.846 67.1706 208.836 68.6466 209.286C70.3386 209.79 74.1306 209.286 74.4546 209.232C74.3646 209.952 74.2866 210.678 74.1966 211.398C73.9026 213.756 73.5966 216.126 73.3626 218.466C73.2846 219.276 73.2366 220.08 73.1826 220.866C72.8286 220.11 72.1626 218.742 72.0906 218.634C70.9626 216.834 67.7406 214.092 65.4906 214.686C65.115 214.796 64.7666 214.983 64.4681 215.236C64.1696 215.489 63.9276 215.802 63.7579 216.154C63.5881 216.507 63.4944 216.891 63.4828 217.282C63.4712 217.673 63.542 218.062 63.6906 218.424C64.2906 219.984 66.0906 220.974 67.5666 221.424C69.0426 221.874 72.2766 221.514 73.1766 221.394C73.0986 222.732 73.0506 224.064 73.0686 225.372C73.0686 225.942 73.0686 226.518 73.1226 227.058L73.2306 228.684C73.3506 229.788 73.4526 230.814 73.5846 231.846C73.6506 232.362 73.7226 232.848 73.7946 233.352C73.5486 232.536 73.1466 231.24 73.0986 231.126C72.2466 229.2 69.4986 225.978 67.1346 226.218C66.7469 226.269 66.3744 226.402 66.0411 226.606C65.7079 226.811 65.4213 227.083 65.2001 227.406C64.9789 227.728 64.828 228.094 64.7571 228.478C64.6862 228.863 64.6969 229.258 64.7886 229.638C65.1246 231.27 66.7446 232.524 68.1666 233.196C69.7326 233.94 73.4286 234.018 73.8846 234.024C74.0586 235.26 74.2386 236.454 74.4306 237.576C75.0306 241.11 75.6306 244.038 76.1226 246.078C76.6146 248.118 76.9146 249.282 76.9146 249.282C76.9882 249.478 77.1333 249.639 77.3206 249.732C77.5079 249.825 77.7236 249.844 77.9243 249.785C78.125 249.726 78.2958 249.593 78.4023 249.412C78.5089 249.232 78.5433 249.019 78.4986 248.814C78.4986 248.814 78.1326 247.8 77.6226 245.784Z" fill="black"/>
<path opacity="0.1" d="M73.0324 187.632C73.0324 187.632 76.9384 186.252 78.2524 184.962C79.3744 183.858 80.5024 182.148 80.2924 180.498C80.2556 180.108 80.1372 179.73 79.9448 179.389C79.7525 179.048 79.4904 178.751 79.1757 178.518C78.861 178.285 78.5008 178.121 78.1184 178.036C77.736 177.951 77.3401 177.948 76.9564 178.026C74.6644 178.56 73.0924 182.508 72.9184 184.626C72.9004 184.8 72.9904 187.65 73.0324 187.632Z" fill="black"/>
<path opacity="0.1" d="M75.3723 246.63C73.8423 245.238 71.6823 243.21 69.1983 240.666C68.4843 239.934 67.7343 239.148 66.9783 238.332C67.2903 237.996 69.8043 235.29 70.3623 233.652C70.8663 232.164 71.0943 230.13 70.1583 228.75C69.9498 228.419 69.6739 228.136 69.3487 227.919C69.0235 227.702 68.6561 227.556 68.2707 227.49C67.8852 227.424 67.4902 227.441 67.1114 227.538C66.7327 227.635 66.3786 227.811 66.0723 228.054C64.2723 229.566 64.6503 233.802 65.4423 235.746C65.4903 235.872 66.2583 237.282 66.6423 237.99C66.1803 237.498 65.7243 237.006 65.2563 236.478C64.5783 235.734 63.8883 234.918 63.2103 234.138L62.1903 232.866C61.8363 232.44 61.5543 231.99 61.2243 231.552C60.7563 230.898 60.3063 230.196 59.8563 229.494C60.6603 228.852 62.9883 226.914 63.6903 225.564C64.3923 224.214 64.9503 222.192 64.2303 220.692C64.0745 220.333 63.8447 220.011 63.5559 219.747C63.2672 219.482 62.926 219.282 62.5545 219.159C62.1831 219.035 61.7899 218.991 61.4004 219.03C61.011 219.069 60.6341 219.19 60.2943 219.384C58.2783 220.584 58.0203 224.844 58.4943 226.89C58.4943 226.962 58.6623 227.382 58.8423 227.88C58.4223 227.184 58.0023 226.494 57.6003 225.774C56.4663 223.734 55.3743 221.628 54.2703 219.516C54.0423 219.078 53.8083 218.64 53.5743 218.202C54.2523 217.662 56.7903 215.586 57.5283 214.17C58.2663 212.754 58.7823 210.798 58.0683 209.298C57.9125 208.939 57.6827 208.617 57.3939 208.353C57.1052 208.088 56.764 207.888 56.3925 207.765C56.0211 207.641 55.6279 207.597 55.2384 207.636C54.849 207.675 54.4721 207.796 54.1323 207.99C52.1163 209.19 51.8583 213.45 52.3323 215.496C52.3323 215.574 52.5303 216.096 52.7343 216.636C52.1343 215.496 51.4863 214.374 50.8323 213.27C49.7109 211.38 48.4662 209.566 47.1063 207.84C47.3523 207.648 50.3763 205.278 51.1923 203.706C51.9183 202.314 52.4523 200.334 51.7323 198.834C51.5771 198.474 51.3477 198.152 51.0592 197.887C50.7707 197.622 50.4296 197.421 50.0581 197.297C49.6866 197.173 49.2932 197.129 48.9034 197.167C48.5137 197.206 48.1364 197.326 47.7963 197.52C45.7803 198.72 45.5223 202.986 45.9963 205.032C46.0323 205.176 46.6923 206.994 46.9443 207.636L46.9023 207.57C45.5211 205.91 43.9972 204.374 42.3483 202.98C40.8997 201.733 39.3813 200.569 37.8003 199.494C36.3243 198.486 34.9083 197.652 33.6543 196.926C32.9703 196.536 32.3343 196.194 31.7463 195.882H31.7883C31.8303 195.882 30.0603 193.62 29.9283 193.482C28.4463 191.988 24.7083 189.978 22.6083 191.046C22.2642 191.232 21.9632 191.488 21.7248 191.799C21.4865 192.109 21.3162 192.466 21.2251 192.846C21.1339 193.227 21.124 193.622 21.1959 194.007C21.2678 194.391 21.4199 194.756 21.6423 195.078C22.5423 196.482 24.5043 197.07 26.0763 197.19C27.6483 197.31 30.8343 196.218 31.6083 195.942C32.2083 196.278 32.8683 196.644 33.5763 197.07C34.8123 197.82 36.2043 198.684 37.6503 199.722C38.0403 199.998 38.4423 200.322 38.8503 200.604C38.0823 200.244 37.0083 199.77 36.9003 199.734C34.8963 199.092 30.6483 199.026 29.2743 200.934C29.0564 201.259 28.909 201.626 28.8418 202.011C28.7745 202.396 28.7888 202.791 28.8838 203.171C28.9788 203.55 29.1524 203.906 29.3933 204.214C29.6342 204.522 29.937 204.776 30.2823 204.96C31.7283 205.782 33.7383 205.404 35.1843 204.786C36.6303 204.168 39.0363 201.654 39.5463 201.108C40.4163 201.774 41.2923 202.482 42.1683 203.268C43.7678 204.678 45.2377 206.228 46.5603 207.9C46.6383 207.996 46.7043 208.104 46.7823 208.206C46.4283 207.96 44.3823 206.766 44.2503 206.7C42.3303 205.842 38.1123 205.308 36.5403 207.066C36.2874 207.364 36.1001 207.712 35.9905 208.088C35.8809 208.463 35.8514 208.858 35.9041 209.245C35.9567 209.633 36.0902 210.005 36.2959 210.338C36.5017 210.67 36.7751 210.956 37.0983 211.176C38.4423 212.154 40.4883 211.998 41.9883 211.542C43.7223 211.02 46.7163 208.374 46.8303 208.278C48.1051 209.978 49.2675 211.76 50.3103 213.612C51.0903 214.98 51.8223 216.396 52.5423 217.812C52.0803 217.506 50.1963 216.396 50.0523 216.33C48.1323 215.472 43.9143 214.944 42.3363 216.696C42.0828 216.994 41.8951 217.343 41.7855 217.719C41.6758 218.094 41.6466 218.489 41.6998 218.877C41.7531 219.265 41.8875 219.637 42.0944 219.969C42.3012 220.302 42.5758 220.587 42.9003 220.806C44.2443 221.79 46.2843 221.628 47.7903 221.178C49.4823 220.662 52.3623 218.142 52.5903 217.932C52.9203 218.58 53.2503 219.228 53.5743 219.876C54.6303 222.012 55.6743 224.148 56.7783 226.23C57.1563 226.95 57.5583 227.652 57.9783 228.348C57.2643 227.91 55.9563 227.148 55.8363 227.088C53.9163 226.23 49.6983 225.702 48.1263 227.454C47.8734 227.752 47.6861 228.1 47.5765 228.476C47.4669 228.851 47.4374 229.246 47.4901 229.633C47.5427 230.021 47.6762 230.393 47.8819 230.726C48.0877 231.058 48.3611 231.344 48.6843 231.564C50.0283 232.548 52.0683 232.386 53.5743 231.936C55.0803 231.486 57.5523 229.41 58.2423 228.816C58.9143 229.974 59.6043 231.114 60.3423 232.194C60.6723 232.656 60.9783 233.148 61.3143 233.574L62.3043 234.864C63.0123 235.722 63.6663 236.526 64.3443 237.306L65.3463 238.452C64.6923 237.9 63.6423 237.048 63.5463 236.982C61.7463 235.842 57.6903 234.678 55.8663 236.172C55.5703 236.428 55.3316 236.745 55.1658 237.099C55.0001 237.454 54.9109 237.84 54.9041 238.232C54.8973 238.624 54.973 239.012 55.1264 239.373C55.2798 239.733 55.5074 240.057 55.7943 240.324C56.9943 241.494 59.0223 241.65 60.5943 241.428C62.3103 241.182 65.4363 239.208 65.8203 238.962C66.6423 239.892 67.4583 240.762 68.2203 241.62C70.6683 244.242 72.8103 246.336 74.3283 247.776C75.8463 249.216 76.7283 250.02 76.7283 250.02C76.8979 250.144 77.1084 250.199 77.3171 250.174C77.5258 250.149 77.7171 250.045 77.8522 249.884C77.9873 249.723 78.0561 249.517 78.0446 249.307C78.0331 249.097 77.9422 248.899 77.7903 248.754C77.7903 248.754 76.9083 248.028 75.3723 246.63Z" fill="black"/>
<path opacity="0.1" d="M39.4684 200.664C39.4684 200.664 41.9584 197.358 42.3484 195.552C42.6784 194.016 42.6724 191.952 41.5864 190.704C41.3401 190.4 41.0327 190.151 40.6842 189.973C40.3356 189.795 39.9535 189.692 39.5627 189.671C39.1719 189.651 38.7811 189.712 38.4155 189.852C38.0499 189.991 37.7177 190.206 37.4404 190.482C35.8204 192.192 36.6904 196.356 37.6984 198.198C37.8004 198.36 39.4384 200.694 39.4684 200.664Z" fill="black"/>
</g>
<g opacity="0.1">
<path opacity="0.1" d="M92.9276 202.014C92.5076 199.986 91.9496 197.076 91.4396 193.56C91.2896 192.546 91.1456 191.472 91.0136 190.362C91.4696 190.278 95.0936 189.57 96.5036 188.562C97.7876 187.656 99.1676 186.162 99.2216 184.482C99.2526 184.089 99.1997 183.694 99.0664 183.323C98.9331 182.951 98.7225 182.613 98.4485 182.329C98.1745 182.045 97.8434 181.823 97.4771 181.677C97.1108 181.531 96.7176 181.465 96.3236 181.482C93.9716 181.644 91.7996 185.292 91.2896 187.338C91.2596 187.47 91.0496 189.054 90.9596 189.87C90.8816 189.198 90.8036 188.532 90.7316 187.836C90.6236 186.828 90.5396 185.766 90.4556 184.734C90.4556 184.194 90.4016 183.654 90.3776 183.108C90.3536 182.562 90.3776 182.028 90.3776 181.476C90.3776 180.672 90.4376 179.838 90.4796 179.01C91.5116 178.962 94.5296 178.764 95.8796 178.08C97.2296 177.396 98.8796 176.094 99.1856 174.48C99.2696 174.099 99.2728 173.704 99.1951 173.322C99.1174 172.939 98.9605 172.577 98.7344 172.259C98.5083 171.941 98.2181 171.674 97.8825 171.474C97.5468 171.275 97.1732 171.148 96.7856 171.102C94.4396 170.91 91.7336 174.186 90.9296 176.13C90.8996 176.19 90.7736 176.622 90.6236 177.132C90.6956 176.322 90.7616 175.512 90.8636 174.696C91.1396 172.386 91.4996 170.034 91.8476 167.676C91.9196 167.184 91.9856 166.698 92.0576 166.206C92.9216 166.164 96.1976 165.984 97.6196 165.27C99.0416 164.556 100.62 163.278 100.926 161.67C101.011 161.289 101.014 160.894 100.937 160.511C100.86 160.128 100.703 159.766 100.477 159.447C100.251 159.129 99.96 158.862 99.6238 158.663C99.2877 158.464 98.9136 158.337 98.5256 158.292C96.1736 158.1 93.4736 161.376 92.6636 163.32C92.6636 163.386 92.4836 163.92 92.3156 164.472C92.4896 163.194 92.6396 161.91 92.7536 160.638C92.9648 158.445 93.0269 156.24 92.9396 154.038C93.2456 154.038 97.0856 153.888 98.6696 153.096C100.08 152.394 101.67 151.11 101.976 149.496C102.061 149.115 102.064 148.721 101.987 148.338C101.91 147.956 101.753 147.594 101.527 147.276C101.3 146.958 101.01 146.691 100.673 146.492C100.337 146.294 99.9633 146.169 99.5756 146.124C97.2236 145.926 94.5236 149.208 93.7136 151.146C93.6536 151.284 93.1136 153.144 92.9516 153.81C92.9486 153.784 92.9486 153.758 92.9516 153.732C92.8127 151.577 92.4835 149.439 91.9676 147.342C91.5147 145.467 90.9538 143.62 90.2876 141.81C89.6876 140.13 89.0336 138.624 88.4456 137.298C88.1216 136.578 87.8096 135.93 87.5156 135.33H87.5636C87.6056 135.33 87.4916 132.48 87.4676 132.33C87.1436 130.254 85.3016 126.426 82.9736 126.054C82.5855 126.002 82.1908 126.033 81.8155 126.145C81.4401 126.256 81.0924 126.445 80.7951 126.7C80.4979 126.955 80.2577 127.269 80.0903 127.623C79.9229 127.977 79.832 128.363 79.8236 128.754C79.7276 130.416 80.9696 132.042 82.1636 133.062C83.3576 134.082 86.5856 135.078 87.3776 135.306C87.6716 135.942 87.9776 136.62 88.3076 137.376C88.8656 138.714 89.5076 140.226 90.0416 141.918C90.1916 142.368 90.3356 142.86 90.4856 143.328C90.0716 142.584 89.4896 141.57 89.4176 141.48C88.1756 139.782 84.7736 137.232 82.5416 137.976C82.1734 138.109 81.8373 138.318 81.5554 138.589C81.2734 138.861 81.0519 139.189 80.9052 139.552C80.7586 139.915 80.6901 140.305 80.7043 140.696C80.7185 141.087 80.815 141.471 80.9876 141.822C81.6656 143.34 83.5196 144.222 85.0556 144.564C86.5916 144.906 90.0116 144.3 90.7436 144.156C91.0556 145.206 91.3436 146.292 91.5956 147.444C92.0492 149.514 92.3183 151.62 92.3996 153.738C92.3996 153.864 92.3996 153.99 92.3996 154.116C92.2556 153.708 91.3196 151.554 91.2416 151.41C90.1916 149.61 87.0896 146.676 84.7856 147.168C84.4045 147.26 84.0471 147.432 83.7367 147.671C83.4263 147.911 83.1699 148.213 82.9842 148.559C82.7985 148.904 82.6877 149.284 82.659 149.676C82.6303 150.067 82.6843 150.459 82.8176 150.828C83.3276 152.406 85.0796 153.48 86.5616 153.996C88.2716 154.596 92.2496 154.212 92.3936 154.2C92.4263 156.325 92.3201 158.449 92.0756 160.56C91.9016 162.126 91.6616 163.704 91.4036 165.282C91.2056 164.76 90.3416 162.756 90.2576 162.618C89.2136 160.818 86.1116 157.89 83.8076 158.382C83.4272 158.474 83.0705 158.646 82.7606 158.885C82.4508 159.124 82.1947 159.426 82.0091 159.77C81.8235 160.115 81.7125 160.495 81.6833 160.885C81.6541 161.276 81.7073 161.668 81.8396 162.036C82.3496 163.62 84.0956 164.688 85.5836 165.21C87.2516 165.81 91.0616 165.444 91.3856 165.414C91.2656 166.128 91.1516 166.848 91.0316 167.568C90.6296 169.908 90.2216 172.26 89.8916 174.588C89.7716 175.398 89.6876 176.196 89.6036 176.988C89.2856 176.214 88.6796 174.822 88.6136 174.708C87.5636 172.908 84.4616 169.974 82.1576 170.472C81.7772 170.564 81.4205 170.736 81.1106 170.975C80.8008 171.214 80.5447 171.516 80.3591 171.86C80.1735 172.205 80.0625 172.585 80.0333 172.975C80.0041 173.366 80.0573 173.758 80.1896 174.126C80.6996 175.71 82.4456 176.778 83.9336 177.3C85.4216 177.822 88.6316 177.594 89.5376 177.522C89.3996 178.854 89.2976 180.18 89.2556 181.488C89.2556 182.052 89.2016 182.634 89.2556 183.174C89.3096 183.714 89.2556 184.266 89.2916 184.8C89.3636 185.91 89.4176 186.942 89.5076 187.974C89.5496 188.496 89.5976 188.988 89.6456 189.492C89.4416 188.664 89.0936 187.35 89.0456 187.236C88.2836 185.274 85.6616 181.932 83.3036 182.07C82.9138 182.105 82.5356 182.221 82.1936 182.411C81.8515 182.602 81.5532 182.861 81.3179 183.174C81.0827 183.487 80.9157 183.846 80.8278 184.227C80.7398 184.608 80.733 185.004 80.8076 185.388C81.0716 187.026 82.6076 188.352 84.0236 189.09C85.5596 189.9 89.2496 190.14 89.6996 190.17C89.8196 191.406 89.9516 192.612 90.0896 193.734C90.5336 197.298 91.0316 200.244 91.4096 202.308C91.7876 204.372 92.0576 205.542 92.0576 205.542C92.0757 205.655 92.1171 205.763 92.1791 205.86C92.2412 205.956 92.3225 206.038 92.4181 206.102C92.5136 206.165 92.6212 206.208 92.7341 206.227C92.847 206.247 92.9627 206.242 93.0739 206.215C93.1851 206.187 93.2894 206.137 93.3802 206.067C93.471 205.997 93.5463 205.91 93.6013 205.809C93.6564 205.709 93.69 205.598 93.7 205.484C93.71 205.37 93.6963 205.255 93.6596 205.146C93.6596 205.146 93.3476 204.048 92.9276 202.014Z" fill="black"/>
<path opacity="0.1" d="M90.9119 143.718C90.9119 143.718 94.8719 142.518 96.2459 141.276C97.4459 140.232 98.6459 138.57 98.4719 136.908C98.4531 136.517 98.3522 136.135 98.1758 135.786C97.9993 135.437 97.7513 135.129 97.4479 134.882C97.1445 134.635 96.7925 134.455 96.4148 134.354C96.0371 134.252 95.6422 134.231 95.2559 134.292C92.9399 134.724 91.1939 138.6 90.9299 140.688C90.9059 140.868 90.8699 143.73 90.9119 143.718Z" fill="black"/>
</g>
<path d="M219.823 216.984C219.901 235.782 234.859 250.962 234.859 250.962C234.859 250.962 249.691 235.656 249.607 216.858C249.523 198.06 234.601 182.88 234.601 182.88C234.601 182.88 219.739 198.186 219.823 216.984Z" fill="#6ABF4B"/>
<path d="M234.858 250.962L234.57 182.88" stroke="white" stroke-width="0.910297" stroke-miterlimit="10"/>
<path d="M234.673 207.078L226.303 199.836" stroke="white" stroke-width="0.910297" stroke-miterlimit="10"/>
<path d="M234.852 218.328L245.112 203.328" stroke="white" stroke-width="0.910297" stroke-miterlimit="10"/>
<path d="M234.751 224.814L222.391 213.882" stroke="white" stroke-width="0.910297" stroke-miterlimit="10"/>
<path d="M234.918 233.55L247.05 222.642" stroke="white" stroke-width="0.910297" stroke-miterlimit="10"/>
<path d="M234.949 241.092L225.391 233.592" stroke="white" stroke-width="0.910297" stroke-miterlimit="10"/>
<path d="M209.629 246C216.895 254.148 229.201 255 229.201 255C229.201 255 229.747 242.658 222.481 234.534C215.215 226.41 202.885 225.582 202.885 225.582C202.885 225.582 202.363 237.9 209.629 246Z" fill="#6ABF4B"/>
<path d="M229.224 254.976L202.908 225.558" stroke="white" stroke-width="0.910297" stroke-miterlimit="10"/>
<path d="M212.262 236.01L205.842 236.088" stroke="white" stroke-width="0.910297" stroke-miterlimit="10"/>
<path d="M216.666 240.822L215.346 230.37" stroke="white" stroke-width="0.910297" stroke-miterlimit="10"/>
<path d="M219.115 243.678L209.551 243.69" stroke="white" stroke-width="0.910297" stroke-miterlimit="10"/>
<path d="M222.553 247.398L223.621 238.002" stroke="white" stroke-width="0.910297" stroke-miterlimit="10"/>
<path d="M225.468 250.662L218.436 251.082" stroke="white" stroke-width="0.910297" stroke-miterlimit="10"/>
<path d="M247.525 234.114C239.965 241.968 240.061 254.322 240.061 254.322C240.061 254.322 252.409 253.944 259.969 246.09C267.529 238.236 267.433 225.882 267.433 225.882C267.433 225.882 255.085 226.26 247.525 234.114Z" fill="#6ABF4B"/>
<path d="M240.061 254.322L267.433 225.882" stroke="white" stroke-width="0.910297" stroke-miterlimit="10"/>
<path d="M257.706 235.992L257.148 229.596" stroke="white" stroke-width="0.910297" stroke-miterlimit="10"/>
<path d="M253.236 240.744L263.562 238.65" stroke="white" stroke-width="0.910297" stroke-miterlimit="10"/>
<path d="M250.572 243.402L249.846 233.862" stroke="white" stroke-width="0.910297" stroke-miterlimit="10"/>
<path d="M247.117 247.104L256.567 247.464" stroke="white" stroke-width="0.910297" stroke-miterlimit="10"/>
<path d="M244.081 250.254L243.133 243.27" stroke="white" stroke-width="0.910297" stroke-miterlimit="10"/>
<g opacity="0.1">
<path opacity="0.1" d="M219.823 216.984C219.901 235.782 234.859 250.962 234.859 250.962C234.859 250.962 249.691 235.656 249.607 216.858C249.523 198.06 234.601 182.88 234.601 182.88C234.601 182.88 219.739 198.186 219.823 216.984Z" fill="black"/>
<path opacity="0.1" d="M209.629 246C216.895 254.148 229.201 255 229.201 255C229.201 255 229.747 242.658 222.481 234.534C215.215 226.41 202.885 225.582 202.885 225.582C202.885 225.582 202.363 237.9 209.629 246Z" fill="black"/>
<path opacity="0.1" d="M247.525 234.114C239.965 241.968 240.061 254.322 240.061 254.322C240.061 254.322 252.409 253.944 259.969 246.09C267.529 238.236 267.433 225.882 267.433 225.882C267.433 225.882 255.085 226.26 247.525 234.114Z" fill="black"/>
</g>
<path d="M224.082 63.4678H76.0742V253.974H224.082V63.4678Z" fill="white" stroke="#263238" stroke-width="0.987488" stroke-linecap="round" stroke-linejoin="round"/>
<g style="mix-blend-mode:multiply">
<path d="M99.6842 63.4678H76.0742V253.974H99.6842V63.4678Z" fill="#6ABF4B"/>
</g>
<path d="M191.197 91.6138H145.807V96.9538H191.197V91.6138Z" fill="#6ABF4B" stroke="#263238" stroke-width="0.987488" stroke-linecap="round" stroke-linejoin="round"/>
<path d="M219.119 137.112H94.6973V142.452H219.119V137.112Z" fill="#6ABF4B"/>
<path d="M219.119 210.504H94.6973V215.844H219.119V210.504Z" fill="#6ABF4B"/>
<path d="M174.415 100.812H145.807V106.152H174.415V100.812Z" fill="#6ABF4B" stroke="#263238" stroke-width="0.987488" stroke-linecap="round" stroke-linejoin="round"/>
<path d="M174.415 109.818H145.807V115.158H174.415V109.818Z" fill="#6ABF4B" stroke="#263238" stroke-width="0.987488" stroke-linecap="round" stroke-linejoin="round"/>
<path d="M141.87 148.332H138.924V151.278H141.87V148.332Z" fill="#6ABF4B" stroke="#263238" stroke-width="0.987488" stroke-linecap="round" stroke-linejoin="round"/>
<path d="M141.87 186.222H138.924V189.168H141.87V186.222Z" fill="#6ABF4B" stroke="#263238" stroke-width="0.987488" stroke-linecap="round" stroke-linejoin="round"/>
<path d="M183.444 148.332H180.498V151.278H183.444V148.332Z" fill="#6ABF4B" stroke="#263238" stroke-width="0.987488" stroke-linecap="round" stroke-linejoin="round"/>
<path d="M183.444 186.222H180.498V189.168H183.444V186.222Z" fill="#6ABF4B" stroke="#263238" stroke-width="0.987488" stroke-linecap="round" stroke-linejoin="round"/>
<path d="M224.082 63.4678H76.0742V73.1578H224.082V63.4678Z" fill="#263238" stroke="#263238" stroke-width="0.987488" stroke-linecap="round" stroke-linejoin="round"/>
<path d="M172.699 150.378H146.647C146.424 150.378 146.21 150.289 146.053 150.132C145.895 149.974 145.807 149.761 145.807 149.538V149.538C145.807 149.315 145.895 149.101 146.053 148.944C146.21 148.786 146.424 148.698 146.647 148.698H172.699C172.921 148.698 173.135 148.786 173.293 148.944C173.45 149.101 173.539 149.315 173.539 149.538V149.538C173.539 149.761 173.45 149.974 173.293 150.132C173.135 150.289 172.921 150.378 172.699 150.378Z" fill="#263238"/>
<path d="M172.699 154.584H146.647C146.423 154.582 146.21 154.493 146.052 154.334C145.895 154.176 145.807 153.961 145.807 153.738V153.738C145.807 153.515 145.895 153.302 146.053 153.144C146.21 152.986 146.424 152.898 146.647 152.898H172.699C172.921 152.898 173.135 152.986 173.293 153.144C173.45 153.302 173.539 153.515 173.539 153.738V153.738C173.539 153.961 173.45 154.176 173.293 154.334C173.136 154.493 172.922 154.582 172.699 154.584V154.584Z" fill="#263238"/>
<path d="M172.699 158.784H146.647C146.424 158.784 146.21 158.695 146.053 158.537C145.895 158.38 145.807 158.166 145.807 157.944V157.944C145.807 157.721 145.895 157.507 146.053 157.35C146.21 157.192 146.424 157.104 146.647 157.104H172.699C172.921 157.104 173.135 157.192 173.293 157.35C173.45 157.507 173.539 157.721 173.539 157.944C173.539 158.166 173.45 158.38 173.293 158.537C173.135 158.695 172.921 158.784 172.699 158.784Z" fill="#263238"/>
<path d="M172.699 162.984H146.647C146.424 162.984 146.21 162.895 146.053 162.738C145.895 162.58 145.807 162.366 145.807 162.144V162.144C145.807 161.921 145.895 161.707 146.053 161.55C146.21 161.392 146.424 161.304 146.647 161.304H172.699C172.921 161.304 173.135 161.392 173.293 161.55C173.45 161.707 173.539 161.921 173.539 162.144V162.144C173.539 162.366 173.45 162.58 173.293 162.738C173.135 162.895 172.921 162.984 172.699 162.984Z" fill="#263238"/>
<path d="M172.699 167.184H146.647C146.424 167.184 146.21 167.095 146.053 166.938C145.895 166.78 145.807 166.567 145.807 166.344V166.344C145.807 166.121 145.895 165.907 146.053 165.75C146.21 165.592 146.424 165.504 146.647 165.504H172.699C172.921 165.504 173.135 165.592 173.293 165.75C173.45 165.907 173.539 166.121 173.539 166.344V166.344C173.539 166.567 173.45 166.78 173.293 166.938C173.135 167.095 172.921 167.184 172.699 167.184Z" fill="#263238"/>
<path d="M212.107 150.378H186.055C185.832 150.378 185.618 150.289 185.461 150.132C185.303 149.974 185.215 149.761 185.215 149.538V149.538C185.215 149.315 185.303 149.101 185.461 148.944C185.618 148.786 185.832 148.698 186.055 148.698H212.107C212.33 148.698 212.543 148.786 212.701 148.944C212.858 149.101 212.947 149.315 212.947 149.538V149.538C212.947 149.761 212.858 149.974 212.701 150.132C212.543 150.289 212.33 150.378 212.107 150.378Z" fill="#263238"/>
<path d="M212.107 154.584H186.055C185.832 154.582 185.618 154.493 185.46 154.334C185.303 154.176 185.215 153.961 185.215 153.738V153.738C185.215 153.515 185.303 153.302 185.461 153.144C185.618 152.986 185.832 152.898 186.055 152.898H212.107C212.33 152.898 212.543 152.986 212.701 153.144C212.858 153.302 212.947 153.515 212.947 153.738V153.738C212.947 153.961 212.859 154.176 212.701 154.334C212.544 154.493 212.33 154.582 212.107 154.584V154.584Z" fill="#263238"/>
<path d="M212.107 158.784H186.055C185.832 158.784 185.618 158.695 185.461 158.537C185.303 158.38 185.215 158.166 185.215 157.944C185.215 157.721 185.303 157.507 185.461 157.35C185.618 157.192 185.832 157.104 186.055 157.104H212.107C212.33 157.104 212.543 157.192 212.701 157.35C212.858 157.507 212.947 157.721 212.947 157.944C212.947 158.166 212.858 158.38 212.701 158.537C212.543 158.695 212.33 158.784 212.107 158.784Z" fill="#263238"/>
<path d="M212.107 162.984H186.055C185.832 162.984 185.618 162.895 185.461 162.738C185.303 162.58 185.215 162.366 185.215 162.144C185.215 161.921 185.303 161.707 185.461 161.55C185.618 161.392 185.832 161.304 186.055 161.304H212.107C212.33 161.304 212.543 161.392 212.701 161.55C212.858 161.707 212.947 161.921 212.947 162.144V162.144C212.947 162.366 212.858 162.58 212.701 162.738C212.543 162.895 212.33 162.984 212.107 162.984Z" fill="#263238"/>
<path d="M212.107 167.184H186.055C185.832 167.184 185.618 167.095 185.461 166.938C185.303 166.78 185.215 166.567 185.215 166.344C185.215 166.121 185.303 165.907 185.461 165.75C185.618 165.592 185.832 165.504 186.055 165.504H212.107C212.33 165.504 212.543 165.592 212.701 165.75C212.858 165.907 212.947 166.121 212.947 166.344V166.344C212.947 166.567 212.858 166.78 212.701 166.938C212.543 167.095 212.33 167.184 212.107 167.184Z" fill="#263238"/>
<path d="M172.699 187.638H146.647C146.423 187.636 146.21 187.546 146.052 187.388C145.895 187.229 145.807 187.015 145.807 186.792V186.792C145.807 186.569 145.895 186.355 146.053 186.198C146.21 186.04 146.424 185.952 146.647 185.952H172.699C172.921 185.952 173.135 186.04 173.293 186.198C173.45 186.355 173.539 186.569 173.539 186.792V186.792C173.539 187.015 173.45 187.229 173.293 187.388C173.136 187.546 172.922 187.636 172.699 187.638Z" fill="#263238"/>
<path d="M172.699 191.838H146.647C146.424 191.838 146.21 191.749 146.053 191.592C145.895 191.434 145.807 191.22 145.807 190.998V190.998C145.807 190.775 145.895 190.561 146.053 190.404C146.21 190.246 146.424 190.158 146.647 190.158H172.699C172.921 190.158 173.135 190.246 173.293 190.404C173.45 190.561 173.539 190.775 173.539 190.998V190.998C173.539 191.22 173.45 191.434 173.293 191.592C173.135 191.749 172.921 191.838 172.699 191.838Z" fill="#263238"/>
<path d="M172.699 196.038H146.647C146.424 196.038 146.21 195.949 146.053 195.792C145.895 195.634 145.807 195.421 145.807 195.198V195.198C145.807 194.975 145.895 194.761 146.053 194.604C146.21 194.446 146.424 194.358 146.647 194.358H172.699C172.921 194.358 173.135 194.446 173.293 194.604C173.45 194.761 173.539 194.975 173.539 195.198V195.198C173.539 195.421 173.45 195.634 173.293 195.792C173.135 195.949 172.921 196.038 172.699 196.038Z" fill="#263238"/>
<path d="M172.699 200.238H146.647C146.424 200.238 146.21 200.149 146.053 199.992C145.895 199.834 145.807 199.62 145.807 199.398V199.398C145.807 199.175 145.895 198.961 146.053 198.804C146.21 198.646 146.424 198.558 146.647 198.558H172.699C172.921 198.558 173.135 198.646 173.293 198.804C173.45 198.961 173.539 199.175 173.539 199.398V199.398C173.539 199.62 173.45 199.834 173.293 199.992C173.135 200.149 172.921 200.238 172.699 200.238Z" fill="#263238"/>
<path d="M172.699 204.444H146.647C146.424 204.444 146.21 204.355 146.053 204.198C145.895 204.04 145.807 203.826 145.807 203.604V203.604C145.807 203.381 145.895 203.167 146.053 203.01C146.21 202.852 146.424 202.764 146.647 202.764H172.699C172.921 202.764 173.135 202.852 173.293 203.01C173.45 203.167 173.539 203.381 173.539 203.604V203.604C173.539 203.826 173.45 204.04 173.293 204.198C173.135 204.355 172.921 204.444 172.699 204.444Z" fill="#263238"/>
<path d="M212.107 187.638H186.055C185.832 187.636 185.618 187.546 185.46 187.388C185.303 187.229 185.215 187.015 185.215 186.792V186.792C185.215 186.569 185.303 186.355 185.461 186.198C185.618 186.04 185.832 185.952 186.055 185.952H212.107C212.33 185.952 212.543 186.04 212.701 186.198C212.858 186.355 212.947 186.569 212.947 186.792V186.792C212.947 187.015 212.859 187.229 212.701 187.388C212.544 187.546 212.33 187.636 212.107 187.638V187.638Z" fill="#263238"/>
<path d="M212.107 191.838H186.055C185.832 191.838 185.618 191.749 185.461 191.592C185.303 191.434 185.215 191.22 185.215 190.998C185.215 190.775 185.303 190.561 185.461 190.404C185.618 190.246 185.832 190.158 186.055 190.158H212.107C212.33 190.158 212.543 190.246 212.701 190.404C212.858 190.561 212.947 190.775 212.947 190.998V190.998C212.947 191.22 212.858 191.434 212.701 191.592C212.543 191.749 212.33 191.838 212.107 191.838Z" fill="#263238"/>
<path d="M212.107 196.038H186.055C185.832 196.038 185.618 195.949 185.461 195.792C185.303 195.634 185.215 195.421 185.215 195.198C185.215 194.975 185.303 194.761 185.461 194.604C185.618 194.446 185.832 194.358 186.055 194.358H212.107C212.33 194.358 212.543 194.446 212.701 194.604C212.858 194.761 212.947 194.975 212.947 195.198V195.198C212.947 195.421 212.858 195.634 212.701 195.792C212.543 195.949 212.33 196.038 212.107 196.038Z" fill="#263238"/>
<path d="M212.107 200.238H186.055C185.832 200.238 185.618 200.149 185.461 199.992C185.303 199.834 185.215 199.62 185.215 199.398C185.215 199.175 185.303 198.961 185.461 198.804C185.618 198.646 185.832 198.558 186.055 198.558H212.107C212.33 198.558 212.543 198.646 212.701 198.804C212.858 198.961 212.947 199.175 212.947 199.398V199.398C212.947 199.62 212.858 199.834 212.701 199.992C212.543 200.149 212.33 200.238 212.107 200.238Z" fill="#263238"/>
<path d="M212.107 204.444H186.055C185.832 204.444 185.618 204.355 185.461 204.198C185.303 204.04 185.215 203.826 185.215 203.604V203.604C185.215 203.381 185.303 203.167 185.461 203.01C185.618 202.852 185.832 202.764 186.055 202.764H212.107C212.33 202.764 212.543 202.852 212.701 203.01C212.858 203.167 212.947 203.381 212.947 203.604V203.604C212.947 203.826 212.858 204.04 212.701 204.198C212.543 204.355 212.33 204.444 212.107 204.444Z" fill="#263238"/>
<path d="M212.107 223.62H186.055C185.832 223.62 185.618 223.531 185.461 223.374C185.303 223.216 185.215 223.003 185.215 222.78V222.78C185.215 222.557 185.303 222.344 185.461 222.186C185.618 222.028 185.832 221.94 186.055 221.94H212.107C212.33 221.94 212.543 222.028 212.701 222.186C212.858 222.344 212.947 222.557 212.947 222.78V222.78C212.947 223.003 212.858 223.216 212.701 223.374C212.543 223.531 212.33 223.62 212.107 223.62V223.62Z" fill="#263238"/>
<path d="M212.107 227.82H186.055C185.832 227.82 185.618 227.731 185.461 227.574C185.303 227.416 185.215 227.202 185.215 226.98V226.98C185.215 226.757 185.303 226.543 185.461 226.386C185.618 226.228 185.832 226.14 186.055 226.14H212.107C212.33 226.14 212.543 226.228 212.701 226.386C212.858 226.543 212.947 226.757 212.947 226.98V226.98C212.947 227.202 212.858 227.416 212.701 227.574C212.543 227.731 212.33 227.82 212.107 227.82V227.82Z" fill="#263238"/>
<path d="M212.107 232.026H186.055C185.832 232.026 185.618 231.937 185.461 231.78C185.303 231.622 185.215 231.408 185.215 231.186V231.186C185.215 230.963 185.303 230.749 185.461 230.592C185.618 230.434 185.832 230.346 186.055 230.346H212.107C212.33 230.346 212.543 230.434 212.701 230.592C212.858 230.749 212.947 230.963 212.947 231.186V231.186C212.947 231.408 212.858 231.622 212.701 231.78C212.543 231.937 212.33 232.026 212.107 232.026V232.026Z" fill="#263238"/>
<path d="M212.107 234.546H186.055C185.591 234.546 185.215 234.922 185.215 235.386C185.215 235.85 185.591 236.226 186.055 236.226H212.107C212.571 236.226 212.947 235.85 212.947 235.386C212.947 234.922 212.571 234.546 212.107 234.546Z" fill="#263238"/>
<path d="M212.107 240.426H186.055C185.832 240.426 185.618 240.337 185.461 240.18C185.303 240.022 185.215 239.808 185.215 239.586V239.586C185.215 239.363 185.303 239.149 185.461 238.992C185.618 238.834 185.832 238.746 186.055 238.746H212.107C212.33 238.746 212.543 238.834 212.701 238.992C212.858 239.149 212.947 239.363 212.947 239.586V239.586C212.947 239.808 212.858 240.022 212.701 240.18C212.543 240.337 212.33 240.426 212.107 240.426V240.426Z" fill="#263238"/>
<path d="M209.587 174.75C208.793 174.75 208.024 175.032 207.418 175.545C206.812 176.058 206.407 176.769 206.275 177.552H202.255C202.108 176.785 201.698 176.092 201.096 175.594C200.493 175.097 199.736 174.824 198.955 174.824C198.174 174.824 197.417 175.097 196.814 175.594C196.212 176.092 195.802 176.785 195.655 177.552H191.635C191.488 176.785 191.078 176.092 190.476 175.594C189.873 175.097 189.116 174.824 188.335 174.824C187.554 174.824 186.797 175.097 186.194 175.594C185.592 176.092 185.182 176.785 185.035 177.552H180.961C180.821 176.779 180.413 176.08 179.81 175.577C179.207 175.073 178.447 174.797 177.661 174.797C176.875 174.797 176.115 175.073 175.512 175.577C174.909 176.08 174.501 176.779 174.361 177.552H170.335C170.195 176.779 169.787 176.08 169.184 175.577C168.581 175.073 167.821 174.797 167.035 174.797C166.249 174.797 165.489 175.073 164.886 175.577C164.283 176.08 163.875 176.779 163.735 177.552H159.709C159.569 176.779 159.161 176.08 158.558 175.577C157.955 175.073 157.195 174.797 156.409 174.797C155.623 174.797 154.863 175.073 154.26 175.577C153.657 176.08 153.249 176.779 153.109 177.552H149.083C148.942 176.721 148.495 175.974 147.829 175.458C147.163 174.942 146.328 174.694 145.489 174.765C144.649 174.835 143.867 175.219 143.297 175.839C142.727 176.459 142.41 177.271 142.41 178.113C142.41 178.955 142.727 179.767 143.297 180.387C143.867 181.007 144.649 181.391 145.489 181.461C146.328 181.532 147.163 181.284 147.829 180.768C148.495 180.252 148.942 179.505 149.083 178.674H153.109C153.249 179.447 153.657 180.146 154.26 180.649C154.863 181.153 155.623 181.429 156.409 181.429C157.195 181.429 157.955 181.153 158.558 180.649C159.161 180.146 159.569 179.447 159.709 178.674H163.735C163.875 179.447 164.283 180.146 164.886 180.649C165.489 181.153 166.249 181.429 167.035 181.429C167.821 181.429 168.581 181.153 169.184 180.649C169.787 180.146 170.195 179.447 170.335 178.674H174.361C174.501 179.447 174.909 180.146 175.512 180.649C176.115 181.153 176.875 181.429 177.661 181.429C178.447 181.429 179.207 181.153 179.81 180.649C180.413 180.146 180.821 179.447 180.961 178.674H184.987C185.134 179.441 185.544 180.134 186.146 180.632C186.749 181.129 187.506 181.402 188.287 181.402C189.068 181.402 189.825 181.129 190.428 180.632C191.03 180.134 191.44 179.441 191.587 178.674H195.607C195.754 179.441 196.164 180.134 196.766 180.632C197.369 181.129 198.126 181.402 198.907 181.402C199.688 181.402 200.445 181.129 201.048 180.632C201.65 180.134 202.06 179.441 202.207 178.674H206.227C206.334 179.305 206.62 179.893 207.05 180.367C207.481 180.842 208.038 181.183 208.655 181.352C209.273 181.52 209.926 181.508 210.538 181.318C211.15 181.128 211.694 180.767 212.107 180.277C212.52 179.788 212.785 179.19 212.87 178.556C212.955 177.921 212.856 177.275 212.586 176.694C212.317 176.113 211.886 175.622 211.346 175.277C210.807 174.933 210.179 174.75 209.539 174.75H209.587Z" fill="#263238"/>
<path d="M131.215 222.252C130.094 222.251 128.999 222.582 128.067 223.204C127.134 223.825 126.407 224.709 125.978 225.744C125.548 226.779 125.435 227.918 125.653 229.017C125.871 230.116 126.41 231.126 127.202 231.919C127.994 232.712 129.003 233.252 130.102 233.471C131.201 233.69 132.34 233.578 133.375 233.149C134.41 232.721 135.295 231.995 135.918 231.063C136.541 230.132 136.873 229.036 136.873 227.916C136.874 227.172 136.728 226.436 136.444 225.749C136.16 225.062 135.743 224.437 135.218 223.911C134.692 223.385 134.068 222.968 133.382 222.683C132.695 222.398 131.958 222.252 131.215 222.252V222.252ZM131.215 230.736C130.655 230.737 130.108 230.572 129.643 230.262C129.177 229.952 128.814 229.511 128.599 228.994C128.385 228.478 128.328 227.909 128.437 227.36C128.546 226.811 128.815 226.307 129.211 225.912C129.606 225.516 130.11 225.247 130.659 225.138C131.208 225.029 131.777 225.086 132.293 225.3C132.81 225.515 133.251 225.878 133.561 226.344C133.871 226.809 134.036 227.357 134.035 227.916C134.033 228.663 133.736 229.38 133.207 229.908C132.679 230.437 131.962 230.734 131.215 230.736V230.736Z" fill="#6ABF4B" stroke="#263238" stroke-width="0.987488" stroke-linecap="round" stroke-linejoin="round"/>
<path d="M132.9 230.166L135.6 231.48C136.274 230.652 136.7 229.649 136.828 228.589C136.956 227.529 136.782 226.454 136.325 225.489C135.868 224.524 135.147 223.708 134.246 223.135C133.345 222.562 132.3 222.256 131.232 222.252V225.09C131.822 225.096 132.394 225.287 132.87 225.635C133.345 225.984 133.699 226.472 133.883 227.032C134.066 227.592 134.069 228.196 133.892 228.758C133.715 229.32 133.366 229.812 132.894 230.166H132.9Z" fill="#263238" stroke="#263238" stroke-width="0.987488" stroke-linecap="round" stroke-linejoin="round"/>
<path d="M133.937 240.6H128.537C128.36 240.601 128.185 240.566 128.021 240.499C127.858 240.432 127.709 240.333 127.583 240.208C127.458 240.083 127.358 239.935 127.29 239.771C127.222 239.608 127.187 239.433 127.188 239.256V239.256C127.188 238.898 127.33 238.554 127.583 238.301C127.836 238.048 128.179 237.906 128.537 237.906H133.937C134.296 237.906 134.639 238.048 134.892 238.301C135.145 238.554 135.287 238.898 135.287 239.256C135.287 239.433 135.253 239.608 135.185 239.771C135.117 239.935 135.017 240.083 134.892 240.208C134.766 240.333 134.617 240.432 134.454 240.499C134.29 240.566 134.114 240.601 133.937 240.6Z" fill="#6ABF4B" stroke="#263238" stroke-width="0.987488" stroke-linecap="round" stroke-linejoin="round"/>
<path d="M148.092 222.252C146.972 222.252 145.876 222.584 144.945 223.207C144.014 223.829 143.288 224.713 142.859 225.748C142.43 226.783 142.318 227.922 142.537 229.021C142.755 230.12 143.295 231.129 144.087 231.921C144.879 232.713 145.888 233.253 146.987 233.471C148.085 233.69 149.224 233.578 150.259 233.149C151.294 232.72 152.179 231.994 152.801 231.063C153.424 230.131 153.756 229.036 153.756 227.916C153.757 227.172 153.611 226.435 153.326 225.747C153.042 225.06 152.625 224.435 152.099 223.909C151.572 223.383 150.948 222.966 150.26 222.681C149.573 222.397 148.836 222.251 148.092 222.252ZM148.092 230.736C147.533 230.736 146.986 230.57 146.521 230.259C146.056 229.948 145.694 229.507 145.48 228.99C145.267 228.473 145.211 227.905 145.32 227.356C145.43 226.808 145.7 226.305 146.096 225.91C146.491 225.515 146.996 225.246 147.544 225.138C148.093 225.029 148.661 225.086 149.177 225.301C149.694 225.516 150.135 225.879 150.444 226.344C150.754 226.81 150.919 227.357 150.918 227.916C150.918 228.287 150.845 228.654 150.703 228.997C150.56 229.339 150.352 229.65 150.09 229.912C149.827 230.174 149.516 230.382 149.173 230.523C148.83 230.664 148.463 230.737 148.092 230.736V230.736Z" fill="#6ABF4B" stroke="#263238" stroke-width="0.987488" stroke-linecap="round" stroke-linejoin="round"/>
<path d="M153.727 227.322C153.578 225.936 152.925 224.654 151.891 223.719C150.858 222.784 149.517 222.262 148.123 222.252V225.09C148.867 225.098 149.578 225.399 150.102 225.928C150.625 226.457 150.919 227.172 150.919 227.916C150.913 228.025 150.901 228.133 150.883 228.24L153.727 227.322Z" fill="#263238" stroke="#263238" stroke-width="0.987488" stroke-linecap="round" stroke-linejoin="round"/>
<path d="M150.793 240.6H145.393C145.216 240.601 145.041 240.566 144.877 240.499C144.713 240.432 144.564 240.333 144.439 240.208C144.313 240.083 144.214 239.935 144.146 239.771C144.078 239.608 144.043 239.433 144.043 239.256V239.256C144.043 238.898 144.185 238.554 144.438 238.301C144.692 238.048 145.035 237.906 145.393 237.906H150.793C151.151 237.906 151.494 238.048 151.748 238.301C152.001 238.554 152.143 238.898 152.143 239.256C152.143 239.433 152.108 239.608 152.04 239.771C151.972 239.935 151.873 240.083 151.747 240.208C151.622 240.333 151.473 240.432 151.309 240.499C151.145 240.566 150.97 240.601 150.793 240.6Z" fill="#6ABF4B" stroke="#263238" stroke-width="0.987488" stroke-linecap="round" stroke-linejoin="round"/>
<path d="M165.072 222.252C163.952 222.252 162.857 222.584 161.925 223.207C160.994 223.829 160.268 224.713 159.839 225.748C159.411 226.783 159.298 227.922 159.517 229.021C159.736 230.12 160.275 231.129 161.067 231.921C161.859 232.713 162.869 233.253 163.967 233.471C165.066 233.69 166.205 233.578 167.24 233.149C168.275 232.72 169.159 231.994 169.782 231.063C170.404 230.131 170.736 229.036 170.736 227.916C170.737 227.172 170.591 226.435 170.307 225.747C170.022 225.06 169.605 224.435 169.079 223.909C168.553 223.383 167.928 222.966 167.241 222.681C166.553 222.397 165.816 222.251 165.072 222.252V222.252ZM165.072 230.736C164.513 230.736 163.966 230.57 163.502 230.259C163.037 229.948 162.674 229.507 162.461 228.99C162.247 228.473 162.191 227.905 162.301 227.356C162.41 226.808 162.68 226.305 163.076 225.91C163.472 225.515 163.976 225.246 164.525 225.138C165.073 225.029 165.642 225.086 166.158 225.301C166.674 225.516 167.115 225.879 167.425 226.344C167.735 226.81 167.899 227.357 167.898 227.916C167.898 228.287 167.825 228.654 167.683 228.997C167.541 229.339 167.333 229.65 167.07 229.912C166.808 230.174 166.496 230.382 166.153 230.523C165.81 230.664 165.443 230.737 165.072 230.736V230.736Z" fill="#6ABF4B" stroke="#263238" stroke-width="0.987488" stroke-linecap="round" stroke-linejoin="round"/>
<path d="M165.102 222.252V225.09C165.577 225.091 166.045 225.211 166.461 225.441C166.878 225.671 167.23 226.002 167.484 226.403C167.739 226.805 167.888 227.264 167.918 227.739C167.948 228.214 167.857 228.688 167.655 229.118C167.452 229.549 167.145 229.921 166.76 230.201C166.376 230.481 165.927 230.659 165.455 230.719C164.983 230.779 164.504 230.72 164.061 230.545C163.619 230.371 163.228 230.088 162.924 229.722L160.68 231.474C161.281 232.215 162.059 232.792 162.943 233.151C163.827 233.511 164.788 233.641 165.735 233.529C166.683 233.418 167.587 233.068 168.363 232.513C169.14 231.959 169.763 231.217 170.176 230.356C170.588 229.496 170.777 228.545 170.723 227.592C170.67 226.64 170.376 225.716 169.87 224.907C169.363 224.099 168.661 223.431 167.827 222.967C166.993 222.502 166.056 222.257 165.102 222.252V222.252Z" fill="#263238" stroke="#263238" stroke-width="0.987488" stroke-linecap="round" stroke-linejoin="round"/>
<path d="M167.771 240.6H162.371C162.194 240.601 162.019 240.566 161.855 240.499C161.692 240.432 161.543 240.333 161.417 240.208C161.292 240.083 161.192 239.935 161.124 239.771C161.056 239.608 161.021 239.433 161.021 239.256V239.256C161.021 239.078 161.055 238.902 161.123 238.738C161.19 238.574 161.29 238.425 161.415 238.299C161.541 238.174 161.69 238.074 161.854 238.007C162.018 237.939 162.194 237.905 162.371 237.906H167.771C168.13 237.906 168.473 238.048 168.726 238.301C168.979 238.554 169.121 238.898 169.121 239.256C169.121 239.433 169.087 239.608 169.019 239.771C168.951 239.935 168.851 240.083 168.726 240.208C168.6 240.333 168.451 240.432 168.288 240.499C168.124 240.566 167.948 240.601 167.771 240.6Z" fill="#6ABF4B" stroke="#263238" stroke-width="0.987488" stroke-linecap="round" stroke-linejoin="round"/>
<path d="M106.92 134.952C120.917 134.952 132.264 123.605 132.264 109.608C132.264 95.611 120.917 84.2642 106.92 84.2642C92.9231 84.2642 81.5762 95.611 81.5762 109.608C81.5762 123.605 92.9231 134.952 106.92 134.952Z" fill="white"/>
<path d="M114.601 250.608C114.601 250.608 118.261 256.11 117.757 258.288C117.253 260.466 114.037 259.794 112.513 257.448C110.989 255.102 107.113 251.598 107.815 250.092C108.517 248.586 113.233 249.27 114.601 250.608Z" fill="white" stroke="#263238" stroke-width="1.02307" stroke-linecap="round" stroke-linejoin="round"/>
<path d="M98.8747 250.302C98.8747 250.302 94.4528 256.866 95.1608 258.66C95.8688 260.454 98.1608 259.92 99.9128 258.3C101.665 256.68 105.163 252.132 105.163 252.132C105.163 252.132 102.223 248.508 98.8747 250.302Z" fill="white" stroke="#263238" stroke-width="1.02307" stroke-linecap="round" stroke-linejoin="round"/>
<path d="M95.1602 258.66C96.3594 258.825 97.5794 258.587 98.6282 257.982C100.644 256.962 104.16 252.36 104.16 252.36" stroke="#263238" stroke-width="0.767303" stroke-linecap="round" stroke-linejoin="round"/>
<path d="M109.045 251.19C109.045 251.19 110.959 254.79 113.113 256.83C115.267 258.87 116.323 259.452 117.739 258.288" stroke="#263238" stroke-width="0.767303" stroke-linecap="round" stroke-linejoin="round"/>
<path d="M92.6646 168.39C92.6646 168.39 88.7946 176.286 88.9686 179.514C89.1426 182.742 89.8506 199.074 90.9066 204.456C91.9626 209.838 93.0006 223.242 93.7206 228.6C94.4406 233.958 99.0546 246.51 99.0546 246.51C99.0546 246.51 98.3466 249.384 98.8746 250.278C99.4026 251.172 104.989 252.648 105.163 252.108C105.337 251.568 106.219 249.954 106.363 248.34C106.507 246.726 103.903 229.5 104.959 225.732C106.015 221.964 106.219 196.632 106.363 194.022C106.507 191.412 106.321 186.822 106.321 186.822C106.634 186.919 106.97 186.92 107.284 186.824C107.598 186.729 107.877 186.543 108.085 186.288C108.787 185.388 111.115 209.778 111.823 215.52C112.531 221.262 110.941 222.876 110.413 226.464C109.885 230.052 108.655 241.71 108.655 243.15C108.655 244.59 107.071 249.246 107.773 250.146C108.475 251.046 109.969 250.896 110.581 251.064C112.417 251.574 113.851 250.776 114.553 250.596C115.255 250.416 115.849 247.818 115.849 247.818C115.849 247.818 121.501 231.846 122.557 225.204C123.613 218.562 125.371 206.238 125.023 198.702C124.675 191.166 122.557 175.902 122.557 175.902L122.029 171.414L92.6646 168.39Z" fill="#263238" stroke="#263238" stroke-width="1.02307" stroke-linecap="round" stroke-linejoin="round"/>
<path d="M90.1922 177.522C90.1922 177.522 89.8502 181.95 92.7482 184.842" stroke="white" stroke-width="0.506629" stroke-linecap="round" stroke-linejoin="round"/>
<path d="M90.3613 183.822C90.3613 183.822 92.0653 186.72 94.1113 187.056" stroke="white" stroke-width="0.506629" stroke-linecap="round" stroke-linejoin="round"/>
<path d="M103.98 232.278C103.98 232.278 101.58 238.002 101.256 241.128C100.932 244.254 103.98 243.036 104.664 245.118C105.348 247.2 100.578 247.032 101.43 247.548C102.282 248.064 104.832 248.418 104.832 248.418" stroke="white" stroke-width="0.511535" stroke-linecap="round" stroke-linejoin="round"/>
<path d="M108.6 246.51C109.11 246.336 114.9 245.31 114.216 242.172C113.532 239.034 110.13 238.872 110.616 235.23C111.102 231.588 116.4 223.596 116.4 221.34C116.4 219.084 112.656 210.678 112.314 205.47" stroke="white" stroke-width="0.511535" stroke-linecap="round" stroke-linejoin="round"/>
<path d="M116.923 177.186C116.923 177.186 113.005 182.802 112.495 183.654C111.985 184.506 117.091 179.91 117.091 179.91" stroke="white" stroke-width="0.506629" stroke-linecap="round" stroke-linejoin="round"/>
<path d="M106.674 175.2C106.674 175.2 107.1 179.304 107.1 180.15V184.824" stroke="white" stroke-width="0.506629" stroke-linecap="round" stroke-linejoin="round"/>
<path d="M107.1 182.28C107.1 182.28 108.942 181.998 109.362 180.582C109.782 179.166 109.65 176.334 109.65 176.334" stroke="white" stroke-width="0.506629" stroke-linecap="round" stroke-linejoin="round"/>
<path d="M142.65 126.504C140.538 120.342 140.184 117 140.01 115.242C139.836 113.484 137.898 114.006 137.898 114.006C137.898 114.006 133.698 116.472 133.698 117.006C133.698 117.54 135.636 130.56 135.984 132.846C136.196 134.186 136.314 135.54 136.338 136.896C136.338 136.896 128.946 128.976 127.008 127.038C125.532 125.556 124.362 124.29 123.108 123.534C122.43 122.934 121.254 122.712 119.442 122.112C116.274 121.056 112.932 118.59 109.056 118.764C106.512 118.939 104.014 119.535 101.664 120.528C101.664 120.528 96.0364 123.168 92.1604 124.926C91.709 125.128 91.2806 125.377 90.8824 125.67C90.2464 125.592 88.9204 125.934 87.4084 129.324C85.3024 134.076 75.7984 146.574 74.2084 150.972C72.6184 155.37 75.9664 159.774 79.6624 163.29C82.3291 165.912 84.8546 168.674 87.2284 171.564L91.4284 166.392C91.5472 167.543 91.7477 168.684 92.0284 169.806C92.5564 171.564 94.3144 173.502 101.358 174.006C108.402 174.51 124.224 175.482 123.708 171.894C122.982 166.794 123.354 150.42 123.006 146.022C122.903 143.201 122.961 140.376 123.18 137.562C123.99 138.588 125.58 140.49 126.69 141.24C128.274 142.296 134.97 147.24 137.61 148.308C140.25 149.376 143.946 147.606 145.53 144.108C147.114 140.61 144.762 132.666 142.65 126.504ZM85.2784 155.718C84.5704 152.904 84.2224 151.848 84.2224 151.848C84.2224 151.848 88.7344 146.988 90.9064 144.396C91.2004 151.35 91.3864 158.958 91.1824 160.074C91.0223 161.945 91.0645 163.828 91.3084 165.69C90.1324 164.076 85.8784 158.142 85.2784 155.718Z" fill="#6ABF4B" stroke="#263238" stroke-width="1.01326" stroke-linecap="round" stroke-linejoin="round"/>
<path opacity="0.1" d="M142.65 126.504C140.538 120.342 140.184 117 140.01 115.242C139.836 113.484 137.898 114.006 137.898 114.006C137.898 114.006 133.698 116.472 133.698 117.006C133.698 117.54 135.636 130.56 135.984 132.846C136.196 134.186 136.314 135.54 136.338 136.896C136.338 136.896 128.946 128.976 127.008 127.038C125.532 125.556 124.362 124.29 123.108 123.534C122.43 122.934 121.254 122.712 119.442 122.112C116.274 121.056 112.932 118.59 109.056 118.764C106.512 118.939 104.014 119.535 101.664 120.528C101.664 120.528 96.0364 123.168 92.1604 124.926C91.709 125.128 91.2806 125.377 90.8824 125.67C90.2464 125.592 88.9204 125.934 87.4084 129.324C85.3024 134.076 75.7984 146.574 74.2084 150.972C72.6184 155.37 75.9664 159.774 79.6624 163.29C82.3291 165.912 84.8546 168.674 87.2284 171.564L91.4284 166.392C91.5472 167.543 91.7477 168.684 92.0284 169.806C92.5564 171.564 94.3144 173.502 101.358 174.006C108.402 174.51 124.224 175.482 123.708 171.894C122.982 166.794 123.354 150.42 123.006 146.022C122.903 143.201 122.961 140.376 123.18 137.562C123.99 138.588 125.58 140.49 126.69 141.24C128.274 142.296 134.97 147.24 137.61 148.308C140.25 149.376 143.946 147.606 145.53 144.108C147.114 140.61 144.762 132.666 142.65 126.504ZM85.2784 155.718C84.5704 152.904 84.2224 151.848 84.2224 151.848C84.2224 151.848 88.7344 146.988 90.9064 144.396C91.2004 151.35 91.3864 158.958 91.1824 160.074C91.0223 161.945 91.0645 163.828 91.3084 165.69C90.1324 164.076 85.8784 158.142 85.2784 155.718Z" fill="black"/>
<path d="M93.084 143.64C94.1982 141.968 95.1677 140.203 95.982 138.366" stroke="#263238" stroke-width="0.759943" stroke-linecap="round" stroke-linejoin="round"/>
<path d="M97.5126 138.876C97.1052 139.725 96.5248 140.479 95.8086 141.09" stroke="#263238" stroke-width="0.759943" stroke-linecap="round" stroke-linejoin="round"/>
<path d="M136.314 136.89C136.338 137.904 136.562 138.903 136.974 139.83C137.386 140.757 137.978 141.593 138.714 142.29" stroke="#263238" stroke-width="1.01326" stroke-linecap="round" stroke-linejoin="round"/>
<path d="M137.011 139.728C136.868 141.329 137.227 142.936 138.037 144.324" stroke="#263238" stroke-width="1.01326" stroke-linecap="round" stroke-linejoin="round"/>
<path d="M84.2225 151.848C84.2225 151.848 82.9265 150.618 79.7285 151.152" stroke="#263238" stroke-width="0.759943" stroke-linecap="round" stroke-linejoin="round"/>
<path d="M77.959 150.444C77.959 150.444 78.847 149.022 82.213 150.084" stroke="#263238" stroke-width="0.759943" stroke-linecap="round" stroke-linejoin="round"/>
<path d="M126.925 132.168C126.217 132.342 123.199 137.49 123.199 137.49L130.477 135.54" stroke="#263238" stroke-width="0.759943" stroke-linecap="round" stroke-linejoin="round"/>
<path d="M106.026 128.658C106.026 128.658 107.388 130.53 110.454 129.684C113.52 128.838 114.54 125.598 114.054 123.552C113.568 121.506 103.302 123.21 106.026 128.658Z" fill="white" stroke="#263238" stroke-width="1.01326" stroke-linecap="round" stroke-linejoin="round"/>
<path d="M103.11 117C103.11 117 101.052 118.368 100.782 119.604C100.512 120.84 101.19 124.806 101.736 126.174C102.282 127.542 104.07 130.692 104.07 130.692C104.07 130.692 110.232 127.134 110.67 126.858C111.108 126.582 115.47 129.048 116.424 128.658C117.378 128.268 114.096 119.892 112.59 118.116C111.084 116.34 105.3 115.35 103.11 117Z" fill="white" stroke="#263238" stroke-width="1.01326" stroke-linecap="round" stroke-linejoin="round"/>
<path d="M102 112.476C102 112.476 102.138 114.666 102.414 117.954C102.69 121.242 103.8 123.84 105.6 125.346C107.4 126.852 109.98 127.674 110.664 126.852C111.348 126.03 112.17 122.61 111.864 120.552C111.558 118.494 111.18 114.12 111.18 114.12L102 112.476Z" fill="white" stroke="#263238" stroke-width="1.01326" stroke-linecap="round" stroke-linejoin="round"/>
<g style="mix-blend-mode:multiply" opacity="0.5">
<path d="M111.6 117.99C111.396 116.076 111.21 114.12 111.21 114.12L102 112.476C102 112.476 102.138 114.666 102.414 117.954C102.518 119.475 102.869 120.968 103.452 122.376L111.6 117.99Z" fill="#6ABF4B"/>
</g>
<path d="M99.0005 109.2C99.0005 109.2 96.9485 107.148 96.5345 108.924C96.1205 110.7 97.7705 113.448 100.098 112.758V111.12L99.0005 109.2Z" fill="white" stroke="#263238" stroke-width="1.01326" stroke-linecap="round" stroke-linejoin="round"/>
<path opacity="0.5" d="M99.0005 109.2C99.0005 109.2 96.9485 107.148 96.5345 108.924C96.1205 110.7 97.7705 113.448 100.098 112.758V111.12L99.0005 109.2Z" fill="#6ABF4B" stroke="#263238" stroke-width="1.01326" stroke-linecap="round" stroke-linejoin="round"/>
<path d="M97.2 105.492C97.2 105.492 100.626 114.666 103.638 116.448C106.65 118.23 112.674 119.868 114.318 113.448C115.962 107.028 111.582 97.6983 110.076 94.9563C108.57 92.2143 102.954 91.3983 99.396 94.1343C95.838 96.8703 95.028 99.4623 97.2 105.492Z" fill="white" stroke="#263238" stroke-width="1.01326" stroke-linecap="round" stroke-linejoin="round"/>
<g style="mix-blend-mode:multiply" opacity="0.5">
<path d="M100.999 97.722C102.453 97.0495 104.03 96.6819 105.631 96.642L109.045 93.768C106.801 92.04 102.391 91.83 99.4153 94.122C95.8513 96.864 95.0293 99.462 97.2193 105.492C97.2193 105.492 100.645 114.666 103.657 116.448C104.726 117.076 105.883 117.539 107.089 117.822C105.637 115.95 103.405 112.974 102.697 111.456C101.617 109.14 101.155 104.358 99.7633 101.58C98.3713 98.802 98.8393 98.802 100.999 97.722Z" fill="#6ABF4B"/>
</g>
<path d="M108.175 102.75C108.175 102.75 109.543 105.216 108.997 105.75C108.812 105.91 108.589 106.019 108.349 106.067C108.109 106.116 107.861 106.101 107.629 106.026" stroke="#263238" stroke-width="1.01326" stroke-linecap="round" stroke-linejoin="round"/>
<path d="M101.875 102.342C101.875 102.342 102.151 100.698 104.203 100.698" stroke="#263238" stroke-width="2.02651" stroke-linecap="round" stroke-linejoin="round"/>
<path d="M103.111 103.986C103.111 103.986 104.617 104.67 105.163 103.164" stroke="#263238" stroke-width="1.01326" stroke-linecap="round" stroke-linejoin="round"/>
<path d="M109.68 102.888C109.68 102.888 111.186 103.572 111.738 102.066" stroke="#263238" stroke-width="1.01326" stroke-linecap="round" stroke-linejoin="round"/>
<path d="M108.432 99.7442C108.797 99.3715 109.291 99.1523 109.813 99.1311C110.335 99.1099 110.845 99.2884 111.24 99.6302" stroke="#263238" stroke-width="2.02651" stroke-linecap="round" stroke-linejoin="round"/>
<path d="M114.6 108.174C113.004 107.478 109.2 105.942 107.928 106.584C106.284 107.406 102.036 110.286 102.036 112.476C102.036 112.476 99.3003 108.78 99.3003 107.406C99.3003 106.032 100.392 105.606 99.4383 103.848C98.4843 102.09 97.1043 101.928 97.5183 99.8761C97.8963 97.9741 101.682 95.9581 103.518 95.6761C104.665 96.6466 106.126 97.1669 107.628 97.1401C110.628 97.1401 113.106 95.2141 113.106 92.8261C113.106 90.4381 110.652 88.5181 107.628 88.5181C106.955 88.515 106.286 88.6142 105.642 88.8121C102.774 88.6021 102.228 90.7261 100.242 91.8901C98.2563 93.0541 97.0083 96.4861 97.0083 96.4861H97.0923C95.6403 98.6101 95.6463 101.172 97.2243 105.486C97.2243 105.486 100.65 114.66 103.662 116.442C106.674 118.224 112.698 119.862 114.342 113.442C114.742 111.716 114.829 109.931 114.6 108.174V108.174Z" fill="#263238" stroke="#263238" stroke-width="1.01326" stroke-linecap="round" stroke-linejoin="round"/>
<path d="M111.331 108.036C111.331 108.036 109.279 110.91 106.951 108.996" stroke="white" stroke-width="1.01326" stroke-linecap="round" stroke-linejoin="round"/>
<path d="M91.6089 166.104C92.4223 166.617 93.1375 167.271 93.7209 168.036C94.4359 169.015 95.2009 169.956 96.0129 170.856C96.0129 170.856 97.9449 171.03 97.7709 171.912C97.5969 172.794 97.2429 173.316 96.3609 173.316C95.4789 173.316 93.5469 171.558 93.5469 171.558L90.7329 175.956C90.7329 175.956 88.0929 174.024 87.2109 171.558L91.6089 166.104Z" fill="white" stroke="#263238" stroke-width="1.01326" stroke-linecap="round" stroke-linejoin="round"/>
<path d="M106.92 134.952C120.917 134.952 132.264 123.605 132.264 109.608C132.264 95.611 120.917 84.2642 106.92 84.2642C92.9231 84.2642 81.5762 95.611 81.5762 109.608C81.5762 123.605 92.9231 134.952 106.92 134.952Z" stroke="#263238" stroke-width="2.02651" stroke-linecap="round" stroke-linejoin="round"/>
<path d="M129.805 104.682C129.805 104.682 128.041 104.502 127.693 105.558C127.345 106.614 126.811 107.67 126.811 108.378C126.811 109.086 126.985 109.608 127.867 109.782C128.749 109.956 129.277 108.726 129.277 108.726L129.805 104.682Z" fill="white" stroke="#263238" stroke-width="1.01326" stroke-linecap="round" stroke-linejoin="round"/>
<path d="M130.153 103.446C130.153 103.446 129.277 108.198 129.277 109.608C129.316 110.692 129.684 111.739 130.333 112.608C130.654 112.972 131.087 113.219 131.563 113.31L132.445 112.254C132.445 112.254 131.389 113.664 132.793 115.422C134.197 117.18 135.259 117.006 136.489 116.478C137.719 115.95 138.073 115.248 137.545 113.31C137.017 111.372 136.669 108.204 136.315 106.272C135.961 104.34 134.731 103.632 134.029 103.632C133.327 103.632 131.401 102.918 130.153 103.446Z" fill="white" stroke="#263238" stroke-width="1.01326" stroke-linecap="round" stroke-linejoin="round"/>
<path d="M129.51 110.598C129.51 110.598 129.198 109.506 130.524 109.35C131.85 109.194 134.04 108.96 134.04 108.96" stroke="#263238" stroke-width="0.506629" stroke-linecap="round" stroke-linejoin="round"/>
<path d="M129.666 107.79C129.666 107.79 132.708 107.004 133.806 107.16" stroke="#263238" stroke-width="0.506629" stroke-linecap="round" stroke-linejoin="round"/>
<path d="M129.9 105.6C131.035 105.398 132.186 105.294 133.338 105.288" stroke="#263238" stroke-width="0.506629" stroke-linecap="round" stroke-linejoin="round"/>
<path d="M130.914 111.456C131.155 111.673 131.444 111.829 131.757 111.911C132.07 111.993 132.398 112 132.714 111.93" stroke="#263238" stroke-width="0.506629" stroke-linecap="round" stroke-linejoin="round"/>
</svg>
