<svg width="400" height="400" viewBox="0 0 400 400" fill="none" xmlns="http://www.w3.org/2000/svg">
    <path d="M239.208 282.016c-22.72 15.52-38.816 41.552-71.24 35.664-25.112-4.56-42.4-28.504-45.552-52.728-7.64-59.384 59.44-113.952 110.632-126.12 50.4-12 119.04 34.928 110.24 92.32-3.496 22.768-23.016 46.2-47.328 46.608-22.352.384-34.928-10.656-56.752 4.256z" fill="#6ABF4B"/>
    <path opacity=".9" d="M239.208 282.016c-22.72 15.52-38.816 41.552-71.24 35.664-25.112-4.56-42.4-28.504-45.552-52.728-7.64-59.384 59.44-113.952 110.632-126.12 50.4-12 119.04 34.928 110.24 92.32-3.496 22.768-23.016 46.2-47.328 46.608-22.352.384-34.928-10.656-56.752 4.256z" fill="#fff"/>
    <path d="M199.912 362.848c85.666 0 155.112-4.055 155.112-9.056 0-5.002-69.446-9.056-155.112-9.056S44.8 348.79 44.8 353.792c0 5.001 69.446 9.056 155.112 9.056z" fill="#F5F5F5"/>
    <path d="M68.295 254.816 58.447 83.567a5.791 5.791 0 0 1 5.84-6.2h195.304a6.646 6.646 0 0 1 6.552 6.2l9.84 171.249a5.766 5.766 0 0 1-1.556 4.376 5.796 5.796 0 0 1-1.948 1.357 5.795 5.795 0 0 1-2.328.459H74.839a6.634 6.634 0 0 1-6.544-6.192z" fill="#263238"/>
    <path d="M270.151 261.392H74.839a7.04 7.04 0 0 1-6.927-6.552l-9.84-171.256a6.152 6.152 0 0 1 6.215-6.592h195.304a7.034 7.034 0 0 1 6.928 6.552l9.848 171.248a6.163 6.163 0 0 1-3.736 6.107 6.177 6.177 0 0 1-2.48.493zm-201.44-6.6a6.264 6.264 0 0 0 6.168 5.84h195.272a5.417 5.417 0 0 0 5.456-5.792l-9.84-171.256a6.263 6.263 0 0 0-6.176-5.832H64.287a5.401 5.401 0 0 0-5.456 5.792l9.88 171.248z" fill="#263238"/>
    <path d="M70.688 254.815 60.84 83.567a5.791 5.791 0 0 1 5.84-6.2h195.304a6.648 6.648 0 0 1 6.552 6.2l9.84 171.248a5.785 5.785 0 0 1-1.557 4.377 5.78 5.78 0 0 1-4.275 1.815H77.232a6.63 6.63 0 0 1-6.544-6.192z" fill="#fff"/>
    <path d="M272.544 261.392H77.232a7.043 7.043 0 0 1-6.92-6.552L60.464 83.584a6.152 6.152 0 0 1 6.216-6.592h195.304a7.032 7.032 0 0 1 6.928 6.552l9.848 171.248a6.163 6.163 0 0 1-3.736 6.107 6.177 6.177 0 0 1-2.48.493zM66.68 77.752a5.4 5.4 0 0 0-5.456 5.792l9.84 171.248a6.264 6.264 0 0 0 6.168 5.84h195.312a5.424 5.424 0 0 0 3.995-1.702 5.422 5.422 0 0 0 1.461-4.09l-9.84-171.256a6.282 6.282 0 0 0-6.176-5.832H66.68z" fill="#263238"/>
    <path d="M136.335 102.104H81.759a3.997 3.997 0 0 1-3.888-3.704 3.44 3.44 0 0 1 3.464-3.672h54.576a3.953 3.953 0 0 1 3.888 3.672 3.432 3.432 0 0 1-.917 2.614 3.44 3.44 0 0 1-2.547 1.09zM126.312 114.832H82.488a3.952 3.952 0 0 1-3.88-3.632 3.438 3.438 0 0 1 3.456-3.68h43.816a3.953 3.953 0 0 1 3.888 3.68 3.445 3.445 0 0 1-.943 2.563 3.432 3.432 0 0 1-2.513 1.069z" fill="#6ABF4B"/>
    <path d="M147.743 131.263h-65.6a2.541 2.541 0 0 1-2.512-2.4 2.227 2.227 0 0 1 1.341-2.22c.284-.122.59-.183.899-.18h65.6a2.551 2.551 0 0 1 2.512 2.4 2.233 2.233 0 0 1-.591 1.694 2.228 2.228 0 0 1-1.649.706zM159.576 138.831H89.792a2.548 2.548 0 0 1-2.512-2.4 2.215 2.215 0 0 1 2.24-2.4h69.784a2.542 2.542 0 0 1 2.512 2.4 2.216 2.216 0 0 1-.591 1.694 2.228 2.228 0 0 1-1.649.706zM147.231 146.399H90.223A2.534 2.534 0 0 1 87.72 144a2.204 2.204 0 0 1 1.331-2.226c.285-.121.592-.18.901-.174h57.008a2.535 2.535 0 0 1 2.512 2.4 2.214 2.214 0 0 1-.591 1.693 2.228 2.228 0 0 1-1.649.706zM141.232 153.968H90.664a2.542 2.542 0 0 1-2.512-2.4 2.208 2.208 0 0 1 2.232-2.4h50.576a2.544 2.544 0 0 1 2.512 2.4 2.22 2.22 0 0 1-1.341 2.22c-.284.122-.59.183-.899.18zM125.112 166.28H84.144a2.532 2.532 0 0 1-2.504-2.4 2.208 2.208 0 0 1 2.232-2.4h40.968a2.553 2.553 0 0 1 2.512 2.4 2.214 2.214 0 0 1-2.24 2.4zM136.711 184.24H92.399a2.226 2.226 0 0 0-2.24 2.4 2.55 2.55 0 0 0 2.512 2.4H137a2.222 2.222 0 0 0 2.123-1.491c.102-.292.142-.601.117-.909a2.539 2.539 0 0 0-2.528-2.4zM127.912 176.672H91.968a2.227 2.227 0 0 0-2.24 2.4 2.544 2.544 0 0 0 2.512 2.4h35.912a2.208 2.208 0 0 0 1.651-.704 2.213 2.213 0 0 0 .589-1.696 2.545 2.545 0 0 0-2.48-2.4zM131.567 169.104h-40a2.215 2.215 0 0 0-2.232 2.4 2.537 2.537 0 0 0 2.504 2.4h40.04a2.224 2.224 0 0 0 1.651-.704 2.213 2.213 0 0 0 .589-1.696 2.552 2.552 0 0 0-2.552-2.4zM128.432 223.999H87.464a2.552 2.552 0 0 1-2.512-2.4 2.215 2.215 0 0 1 2.24-2.4h40.968c.644.008 1.261.26 1.726.705.466.446.744 1.052.778 1.695a2.213 2.213 0 0 1-.583 1.696 2.19 2.19 0 0 1-.75.527c-.284.122-.59.182-.899.177zM140.048 241.968H95.72a2.237 2.237 0 0 0-.9.179 2.225 2.225 0 0 0-1.341 2.221 2.551 2.551 0 0 0 2.513 2.4h44.328a2.218 2.218 0 0 0 2.24-2.4 2.552 2.552 0 0 0-2.512-2.4zM131.2 234.4H95.28a2.216 2.216 0 0 0-2.232 2.4 2.546 2.546 0 0 0 2.512 2.4h35.912a2.222 2.222 0 0 0 2.122-1.491c.102-.292.142-.601.118-.909a2.555 2.555 0 0 0-2.512-2.4zM134.887 226.832h-40a2.21 2.21 0 0 0-1.651.704 2.214 2.214 0 0 0-.589 1.696 2.55 2.55 0 0 0 2.512 2.4h40.04a2.222 2.222 0 0 0 2.123-1.491c.102-.292.142-.601.117-.909a2.552 2.552 0 0 0-2.552-2.4zM138.031 206.944H93.703a2.194 2.194 0 0 0-2.12 1.49 2.21 2.21 0 0 0-.112.91 2.537 2.537 0 0 0 2.504 2.4h44.336a2.216 2.216 0 0 0 2.24-2.4 2.542 2.542 0 0 0-2.52-2.4zM129.183 199.376H93.271a2.22 2.22 0 0 0-2.24 2.4 2.55 2.55 0 0 0 2.512 2.4h35.912a2.222 2.222 0 0 0 2.123-1.491c.102-.292.142-.602.117-.909a2.545 2.545 0 0 0-2.512-2.4zM132.871 191.808h-40a2.215 2.215 0 0 0-2.231 2.4 2.542 2.542 0 0 0 2.511 2.4h40a2.222 2.222 0 0 0 2.123-1.491c.102-.292.142-.601.117-.909a2.55 2.55 0 0 0-2.52-2.4z" fill="#E0E0E0"/>
    <path d="M239.759 165.824a15.278 15.278 0 0 0 14.574-10.146c.71-1.99 1-4.106.85-6.214a17.551 17.551 0 0 0-17.304-16.36 15.282 15.282 0 0 0-15.416 16.36 17.544 17.544 0 0 0 17.296 16.36zM214.407 129.679a1.378 1.378 0 0 1-1.392 1.48 1.595 1.595 0 0 1-1.6-1.48 1.386 1.386 0 0 1 1.4-1.48 1.598 1.598 0 0 1 1.592 1.48zM216.711 169.256a1.393 1.393 0 0 1-1.4 1.48 1.6 1.6 0 0 1-1.6-1.48 1.38 1.38 0 0 1 .835-1.372c.176-.074.366-.111.557-.108a1.595 1.595 0 0 1 1.608 1.48zM218.959 208.8a1.381 1.381 0 0 1-1.4 1.48 1.597 1.597 0 0 1-1.56-1.48c-.013-.19.013-.381.078-.561a1.374 1.374 0 0 1 .759-.808 1.38 1.38 0 0 1 .555-.111 1.6 1.6 0 0 1 1.568 1.48z" fill="#fff"/>
    <path d="M217.559 211.007a2.301 2.301 0 0 1-2.264-2.144 2.114 2.114 0 0 1 .114-.86 2.112 2.112 0 0 1 1.15-1.225c.263-.112.547-.167.832-.162a2.297 2.297 0 0 1 2.264 2.135 2.03 2.03 0 0 1-.56 1.6 2.08 2.08 0 0 1-1.536.656zm-.168-2.96a.71.71 0 0 0-.512.208.74.74 0 0 0-.184.528.898.898 0 0 0 .864.8.701.701 0 0 0 .663-.459.67.67 0 0 0 .033-.285.89.89 0 0 0-.864-.792z" fill="#E0E0E0"/>
    <path d="M221.232 248.4c.013.19-.013.381-.078.561a1.374 1.374 0 0 1-.759.808 1.38 1.38 0 0 1-.555.111 1.602 1.602 0 0 1-1.6-1.48 1.381 1.381 0 0 1 1.4-1.48 1.604 1.604 0 0 1 1.592 1.48z" fill="#fff"/>
    <path d="M219.839 250.576a2.295 2.295 0 0 1-2.264-2.136 2.03 2.03 0 0 1 .56-1.6 2.074 2.074 0 0 1 1.536-.656 2.301 2.301 0 0 1 2.264 2.144 2.076 2.076 0 0 1-.564 1.565 2.089 2.089 0 0 1-1.532.651v.032zm-.168-2.96a.697.697 0 0 0-.662.459.659.659 0 0 0-.034.285.889.889 0 0 0 .864.8.71.71 0 0 0 .512-.208.736.736 0 0 0 .184-.528.89.89 0 0 0-.864-.808z" fill="#E0E0E0"/>
    <mask id="i2cenc97vb" maskUnits="userSpaceOnUse" x="169.711" y="28.8" width="89" height="221" fill="#000">
        <path fill="#fff" d="M169.711 28.8h89v221h-89z"/>
        <path d="M178.711 81.392a1 1 0 0 1-1-1V37.8a1 1 0 0 1 1-1h70.781a1 1 0 0 1 1 1v202.732a1 1 0 0 1-1 1h-44.769a1 1 0 0 1-1-1V82.392a1 1 0 0 0-1-1h-24.012z"/>
    </mask>
    <path d="M185.711 80.392V37.8h-16v42.592h16zm-7-35.592h70.781v-16h-70.781v16zm63.781-7v202.732h16V37.8h-16zm7 195.732h-44.769v16h44.769v-16zm-37.769 7V82.392h-16v158.14h16zm-9-167.14h-24.012v16h24.012v-16zm9 9a9 9 0 0 0-9-9v16a7 7 0 0 1-7-7h16zm-7 151.14a7 7 0 0 1 7 7h-16a9 9 0 0 0 9 9v-16zm37.769 7a7 7 0 0 1 7-7v16a9 9 0 0 0 9-9h-16zm7-195.732a7 7 0 0 1-7-7h16a9 9 0 0 0-9-9v16zm-63.781-7a7 7 0 0 1-7 7v-16a9 9 0 0 0-9 9h16zm-16 42.592a9 9 0 0 0 9 9v-16a7 7 0 0 1 7 7h-16z" fill="url(#cxfrcajq2a)" mask="url(#i2cenc97vb)"/>
    <path d="M338.752 144.416c.536.8.968 1.544 1.408 2.328a73.419 73.419 0 0 1 3.48 7.072 64.135 64.135 0 0 1 3.32 10.04l.28 1.312.136.656v.16l.056.336c.036.212.06.426.072.64a8.733 8.733 0 0 1-.8 3.832 20.768 20.768 0 0 1-3.152 4.888 45.558 45.558 0 0 1-7.68 7.2l-2.56-2.688a87.396 87.396 0 0 0 5.536-7.88 18.31 18.31 0 0 0 1.824-3.808c.13-.336.171-.7.12-1.056l-.048-.136-.16-.568-.336-1.12a74.39 74.39 0 0 0-3.456-8.8c-.664-1.456-1.392-2.872-2.112-4.296-.368-.704-.744-1.408-1.128-2.104a83.28 83.28 0 0 0-1.144-1.992l6.344-4.016z" fill="#FF8B7B"/>
    <path d="m335.175 178.76-6.016.248 2.4 5.16s4.28-.24 5.888-2.832l-2.272-2.576z" fill="#FF8B7B"/>
    <path d="m327.672 181.328 1.488 4.624 2.424-1.776-2.424-5.168-1.488 2.32z" fill="#FF8B7B"/>
    <path d="M323.968 346.767a9.034 9.034 0 0 0 1.936-.264.184.184 0 0 0 .136-.136.173.173 0 0 0-.01-.098.182.182 0 0 0-.062-.078c-.248-.168-2.456-1.6-3.312-1.216a.61.61 0 0 0-.352.488.97.97 0 0 0 .272.92c.403.291.897.427 1.392.384zm1.448-.512c-1.28.256-2.232.208-2.6-.128a.638.638 0 0 1-.168-.616.274.274 0 0 1 .144-.224c.456-.2 1.728.416 2.624.968z" fill="#6ABF4B"/>
    <path d="M325.863 346.504c.029.008.06.008.088 0a.181.181 0 0 0 .088-.152c0-.088 0-2.2-.8-2.904a.893.893 0 0 0-.728-.232.624.624 0 0 0-.592.488c-.176.8 1.136 2.4 1.824 2.8a.177.177 0 0 0 .12 0zm-1.2-2.968a.57.57 0 0 1 .376.152c.472.424.616 1.6.648 2.312-.688-.56-1.504-1.744-1.392-2.248 0-.08.064-.184.288-.208l.08-.008zM268.543 343.504a.194.194 0 0 0 .16-.072.164.164 0 0 0 .033-.1.164.164 0 0 0-.033-.1c-.224-.288-2.192-2.76-3.256-2.832h-.072a.549.549 0 0 0-.472.28.905.905 0 0 0-.08.872c.424.976 2.496 1.6 3.696 1.944l.024.008zm-3.112-2.76c.584.04 1.816 1.28 2.656 2.288-1.6-.472-2.704-1.056-2.944-1.6a.61.61 0 0 1 .056-.576.217.217 0 0 1 .192-.112h.04z" fill="#6ABF4B"/>
    <path d="M268.544 343.503a.163.163 0 0 0 .136-.104c0-.072.728-1.872.216-2.944a1.31 1.31 0 0 0-.76-.68c-.464-.168-.704 0-.8.144-.488.664.424 2.8 1.064 3.528a.174.174 0 0 0 .144.056zm-.696-3.472a.96.96 0 0 1 .76.552 3.74 3.74 0 0 1-.112 2.4c-.592-.856-1.136-2.456-.848-2.856a.218.218 0 0 1 .08-.095.213.213 0 0 1 .12-.033v.032z" fill="#6ABF4B"/>
    <path d="M321.263 119.472c-.8 4.352-2.688 13.864.368 16.696 0 0-1.16 4.432-9.24 4.592-8.888.168-4.272-4.32-4.272-4.32 4.84-1.256 4.696-4.84 3.832-8.2l9.312-8.768z" fill="#FF8B7B"/>
    <path d="M322.839 132.112a2.402 2.402 0 0 0-3.016-1.416 36.194 36.194 0 0 1-8.552 1.552 3.071 3.071 0 0 0-2.504 1.6l-3.432 6.048 19.568-2.4-2.064-5.384z" fill="#6ABF4B"/>
    <path d="M303.368 112.247a.398.398 0 0 0 .144-.072.352.352 0 0 0 .056-.488 3.372 3.372 0 0 0-2.848-1.336.354.354 0 0 0-.274.513c.021.04.05.075.085.103a.337.337 0 0 0 .253.072 2.733 2.733 0 0 1 2.24 1.088.35.35 0 0 0 .344.12z" fill="#263238"/>
    <path d="M301.512 116.536a16.078 16.078 0 0 1-1.792 4 2.53 2.53 0 0 0 2.128.192l-.336-4.192z" fill="#FF5652"/>
    <path d="M301.992 115.472c.048.592-.232 1.096-.616 1.136-.384.04-.728-.416-.8-1.008-.072-.592.224-1.096.608-1.128.384-.032.76.408.808 1z" fill="#263238"/>
    <path d="m301.376 114.488-1.44-.272s.816 1.032 1.44.272z" fill="#263238"/>
    <path d="m275.536 348.119-7.096-2.44 5.008-15.783 7.088 2.448-5 15.775zM334.055 346.56h-7.328l-.664-16.96h7.328l.664 16.96z" fill="#FF8B7B"/>
    <path d="M326.496 345.488h8.224a.572.572 0 0 1 .576.496l.848 6.512a1.211 1.211 0 0 1-.31.913 1.19 1.19 0 0 1-.882.391c-2.872-.048-4.248-.216-7.864-.216-2.232 0-5.48.224-8.56.224s-3.2-3.032-1.904-3.312c5.752-1.232 6.68-2.936 8.64-4.56a1.959 1.959 0 0 1 1.232-.448zM269.368 342.8l7.608 3.576a.566.566 0 0 1 .328.696l-1.96 6.112a1.21 1.21 0 0 1-.691.676 1.195 1.195 0 0 1-.965-.052c-2.632-1.288-3.84-2.04-7.2-3.608-2.064-.968-6.4-2.768-9.264-4.104-2.864-1.336-1.672-4.072-.368-3.76 5.84 1.416 8.672.904 11.2.32a2.046 2.046 0 0 1 1.312.144z" fill="#263238"/>
    <path opacity=".2" d="m273.448 329.904-2.688 8.448 7.2 2.128 2.584-8.136-7.096-2.44zM333.392 329.607h-7.329l.344 8.736h7.329l-.344-8.736z" fill="#000"/>
    <path d="M335.952 137.096c3.048.608 6.36 11.48 6.36 11.48l-8.552 9.304s-7.2-10.128-5.768-13.936c1.52-3.944 4.36-7.56 7.96-6.848z" fill="#6ABF4B"/>
    <path opacity=".4" d="M335.952 137.096c3.048.608 6.36 11.48 6.36 11.48l-8.552 9.304s-7.2-10.128-5.768-13.936c1.52-3.944 4.36-7.56 7.96-6.848z" fill="#fff"/>
    <path opacity=".4" d="M331.168 144.152c-1.544-1.376-2.584-.936-3.288.192-.68 3.264 3.504 9.984 5.192 12.528.752-3.088 1.6-9.592-1.904-12.72z" fill="#6ABF4B"/>
    <path d="M296.832 139.624c-.544 3.2-.664 12.952 4.336 42.528l29.76-.584c-.568-12.088-.624-19.544 5.024-44.472a87.361 87.361 0 0 0-12.648-1.416 94.494 94.494 0 0 0-13.512.272c-4.328.472-9.08 1.416-11.2 1.864a2.236 2.236 0 0 0-1.76 1.808z" fill="#6ABF4B"/>
    <path opacity=".4" d="M296.832 139.624c-.544 3.2-.664 12.952 4.336 42.528l29.76-.584c-.568-12.088-.624-19.544 5.024-44.472a87.361 87.361 0 0 0-12.648-1.416 94.494 94.494 0 0 0-13.512.272c-4.328.472-9.08 1.416-11.2 1.864a2.236 2.236 0 0 0-1.76 1.808z" fill="#fff"/>
    <path d="M321.584 111.584c.136 7.272.352 10.352-2.992 14.4-5.032 6.104-13.968 4.8-16.272-2.256-2.08-6.352-1.96-17.184 4.872-20.736a9.775 9.775 0 0 1 14.392 8.592z" fill="#FF8B7B"/>
    <path d="M301.376 109.688c5.784-1.152 13.376-3.112 14.888-7.336 1.512-4.224-15.608-7.52-14.888 7.336z" fill="#263238"/>
    <path d="M305.823 111.6c-.8-.408-2.312-2.944-1.376-7.36.936-4.416 7.912-8.376 13.376-5.264-5.776 2.224-12 12.624-12 12.624z" fill="#6ABF4B"/>
    <path d="M305.335 107.024c-.976 4.088 0 7.008 1.6 8.512 0 0-4 26.352 16 23.488 20-2.864 8.344-32.8 3.664-37.192-4.68-4.392-17.224-6.56-21.264 5.192z" fill="#263238"/>
    <path d="M305.456 113.383a7.326 7.326 0 0 0-1.088 4.392c.144 1.952 1.672 1.952 2.792.8 1.12-1.152 2.104-3.576 1.536-5.064-.568-1.488-2.384-1.512-3.24-.128z" fill="#FF8B7B"/>
    <path d="M309.031 181.992s4.536 50.128 9.112 78.344c3.696 22.784 6.824 76.096 6.824 76.096h9.984s3.256-52 1.32-74.608c-4.912-57.112 3.928-62.448-5.344-80.256l-21.896.424z" fill="#6ABF4B"/>
    <path opacity=".4" d="M319.183 198.752c-2.6 3.824-6.072 8.232-7.2 12.888.896 8.456 1.944 17.808 3.08 26.8 2.752-7.56 7.456-22.672 4.12-39.688z" fill="#000"/>
    <path d="M301.168 182.152s-11.928 53.936-16 75.912c-4.256 22.864-14.12 74.672-14.12 74.672l9.96 5.12s18.4-62.4 20.864-73.904c6.496-24.048 27.296-82.32 27.296-82.32l-28 .52z" fill="#6ABF4B"/>
    <path d="m268.976 334.872 12.104 4.824 2.352-4.216-12.952-5.176-1.504 4.568zM323.6 336.631h12.712l.736-4.464-13.456-.456.008 4.92zM331.368 179.816l1.36 2.632c.104.2-.144.416-.488.424l-31.2.616c-.272 0-.496-.128-.512-.296l-.28-2.648c0-.184.208-.344.504-.352l30.136-.592a.518.518 0 0 1 .48.216z" fill="#263238"/>
    <path d="M327.336 183.255h.8c.16 0 .288-.088.272-.184l-.4-3.448c0-.104-.152-.184-.312-.184h-.8c-.16 0-.28.088-.272.192l.4 3.448c.016.12.152.184.312.176zM307.775 183.64h.8c.16 0 .28-.088.264-.184l-.392-3.448c0-.104-.152-.184-.32-.184h-.8c-.168 0-.288.088-.272.192l.392 3.448c.024.104.168.184.328.176z" fill="#6ABF4B"/>
    <path d="M301.8 146.528a92.812 92.812 0 0 1-5.552 10.008c-1.032 1.6-2.088 3.2-3.264 4.8-.56.8-1.192 1.544-1.792 2.312-.6.768-1.28 1.512-1.984 2.24a20.464 20.464 0 0 1-2.4 2.216 25.322 25.322 0 0 1-2.608 1.776 38.235 38.235 0 0 1-5.368 2.624 54.904 54.904 0 0 1-11.104 3.08l-.96-3.576a96.312 96.312 0 0 0 9.6-4.648 38.635 38.635 0 0 0 4.304-2.76 19.698 19.698 0 0 0 1.824-1.528 13 13 0 0 0 1.536-1.704 74.177 74.177 0 0 0 5.84-8.664c.92-1.528 1.768-3.104 2.632-4.672.864-1.568 1.704-3.2 2.488-4.712l6.808 3.208z" fill="#FF8B7B"/>
    <path d="M299.008 137.704c-7.032 1.52-9.4 11.808-9.4 11.808l8.976 7.736s9.136-9.392 8.8-15.032c-.216-4.192-4.544-5.336-8.376-4.512z" fill="#6ABF4B"/>
    <path opacity=".4" d="M299.008 137.704c-7.032 1.52-9.4 11.808-9.4 11.808l8.976 7.736s9.136-9.392 8.8-15.032c-.216-4.192-4.544-5.336-8.376-4.512z" fill="#fff"/>
    <path d="m270.447 174.991-7.112 3.608-2.64-6.08s6.296-1.456 9-.104l.752 2.576zM260.623 179.848l-2.76-4.12 2.832-3.208 2.64 6.08-2.712 1.248z" fill="#FF8B7B"/>
    <defs>
        <linearGradient id="cxfrcajq2a" x1="220.01" y1="34.797" x2="300.343" y2="238.118" gradientUnits="userSpaceOnUse">
            <stop offset=".122" stop-color="#6ABF4B"/>
            <stop offset=".462" stop-color="#6ABF4B"/>
            <stop offset="1" stop-color="#6ABF4B"/>
        </linearGradient>
    </defs>
</svg>
