<svg width="400" height="400" viewBox="0 0 400 400" fill="none" xmlns="http://www.w3.org/2000/svg">
    <path d="M345.039 195.406c-8.352 4.288-14.7 11.723-19.32 19.905-4.621 8.183-7.555 17.169-10.489 26.099l-2.568 45.983c9.699-16.498 17.479-35.889 19.581-54.913l-6.447-.578c4.324-.656 7.957-3.795 10.27-7.513 2.314-3.717 3.527-8.006 4.656-12.224l-7.872 1.171a29.192 29.192 0 0 0 12.189-17.93z" fill="#455A64"/>
    <path opacity=".3" d="M345.039 195.405c-8.352 4.289-14.7 11.724-19.32 19.906-4.621 8.182-7.555 17.169-10.489 26.099l-2.568 45.983c9.699-16.499 17.479-35.89 19.581-54.913l-6.447-.579c4.324-.656 7.957-3.795 10.27-7.512 2.314-3.717 3.527-8.006 4.656-12.224l-7.872 1.171a29.197 29.197 0 0 0 12.189-17.931z" fill="#000"/>
    <path d="M311.223 298.157s-21.048-25.161-20.808-49.249h8.506s-9.24-6.073-8.506-9.473c.733-3.4.973-16.28.973-16.28l7.759 1.94s-5.826-2.914-6.56-7.527c-.734-4.613 1.7-26 1.7-26s9.48 9.96 12.393 20.167c2.914 10.207 10.581 22.106 8.324 53.206-2.257 31.1-3.781 33.216-3.781 33.216zM321.874 300.506s22.805-15.194 27.877-34.563l-6.835-1.863s8.753-2.856 8.909-5.755c.155-2.899 2.779-13.297 2.779-13.297l-6.68-.141s5.332-1.065 6.927-4.62c1.594-3.555 4.316-21.274 4.316-21.274s-9.797 5.939-14.375 13.501c-4.578 7.562-13.332 15.469-18.34 40.961-5.008 25.492-4.578 27.051-4.578 27.051z" fill="#455A64"/>
    <path d="M300.057 213.534c.03.087.054.177.07.268.05.19.106.444.184.776.155.705.38 1.707.663 2.983a214.63 214.63 0 0 1 1.001 4.748c.367 1.855.811 3.957 1.235 6.298.903 4.67 1.848 10.257 2.821 16.471.974 6.214 1.898 13.07 2.737 20.279.839 7.209 1.467 14.108 1.961 20.378.494 6.271.818 11.928 1.009 16.682.112 2.378.169 4.529.232 6.419.064 1.891.099 3.527.113 4.846.014 1.319 0 2.342 0 3.062v.797a1.5 1.5 0 0 1 0 .268 1.713 1.713 0 0 1 0-.268c0-.198 0-.459-.035-.797 0-.706-.056-1.75-.106-3.062-.049-1.312-.084-2.955-.169-4.839-.085-1.883-.155-4.041-.289-6.411-.226-4.755-.6-10.405-1.087-16.668-.486-6.264-1.163-13.148-1.982-20.364-.818-7.216-1.784-14.051-2.708-20.266a469.866 469.866 0 0 0-2.751-16.477c-.409-2.342-.833-4.451-1.185-6.306a325.851 325.851 0 0 0-.931-4.754c-.268-1.298-.459-2.3-.6-3.005l-.148-.783a1.51 1.51 0 0 1-.035-.275z" fill="#263238"/>
    <path d="M308.303 313.583s-19.264-21.866-25.246-35.071l4.515-1.925c-3.273.536-6.624-.868-9.17-3.005-2.546-2.137-4.401-4.938-6.228-7.717l5.946-1.002a22.136 22.136 0 0 1-12.993-10.065c7.018 1.15 13.367 5.008 18.601 9.826 4.232 3.9 7.829 8.464 11.286 13.063a44.385 44.385 0 0 1 4.38 7.195c3.23 6.694 8.923 20.674 8.909 28.701z" fill="#455A64"/>
    <path d="M350.088 231.725a1.313 1.313 0 0 1-.091.219l-.297.635c-.282.578-.67 1.41-1.178 2.426a620.115 620.115 0 0 0-4.267 8.937 481.745 481.745 0 0 0-12.824 30.049 463.148 463.148 0 0 0-6.165 16.929 468.968 468.968 0 0 0-4.563 13.966c-1.235 4-2.208 7.237-2.822 9.48a459.546 459.546 0 0 1-.762 2.589c-.084.275-.155.494-.204.663a.835.835 0 0 1-.085.226c.005-.079.019-.157.042-.233.05-.169.106-.395.177-.705.162-.621.395-1.489.705-2.603.607-2.264 1.538-5.516 2.744-9.523a431.405 431.405 0 0 1 4.493-13.994 456.017 456.017 0 0 1 6.137-16.929c2.292-5.968 4.641-11.575 6.842-16.654 2.201-5.079 4.282-9.6 6.094-13.402 1.813-3.802 3.302-6.807 4.374-8.888l1.241-2.391.325-.621c.021-.112.084-.183.084-.176zM309.939 322.95a1.712 1.712 0 0 1-.091-.402c-.05-.303-.106-.705-.184-1.156-.077-.452-.169-1.122-.296-1.834-.127-.713-.254-1.531-.451-2.42-.346-1.792-.84-3.901-1.468-6.228-.627-2.328-1.453-4.846-2.426-7.449-.973-2.603-2.06-5.022-3.104-7.188-1.044-2.165-2.116-4.077-3.012-5.643-.444-.797-.888-1.488-1.262-2.116a41.651 41.651 0 0 0-.988-1.573c-.282-.43-.458-.705-.627-.994a1.777 1.777 0 0 1-.198-.36c.096.098.184.204.261.317l.705.96c.297.416.656.931 1.044 1.544.388.614.854 1.298 1.312 2.117a73.122 73.122 0 0 1 3.09 5.642 83.09 83.09 0 0 1 3.146 7.216c.994 2.61 1.77 5.157 2.405 7.484a73.61 73.61 0 0 1 1.411 6.271c.183.896.289 1.714.395 2.434.106.719.19 1.34.24 1.848.049.508.084.86.12 1.171.006.12-.001.241-.022.359z" fill="#263238"/>
    <path d="M335.353 317.809h-42.16v8.598h42.16v-8.598zM297.215 326.414l4.557 28.927h25.478l4.253-28.927h-34.288z" fill="#6ABF4B"/>
    <path d="M332.772 326.414c0 .099-7.978.183-17.811.183s-17.817-.084-17.817-.183c0-.099 7.977-.184 17.817-.184s17.811.078 17.811.184z" fill="#263238"/>
    <path d="M97.567 100.448 98.69 98.6c9.459-15.581 26.578-24.977 44.6-23.813 2.32.145 4.626.461 6.899.945 16.386 3.527 30.648 15.9 36.559 31.742 3.471 9.332 4.444 20.082 11.039 27.509 8.585 9.643 23.158 9.946 35.974 9.544 12.817-.402 27.397-.057 35.939 9.621 5.347 6.066 7.054 14.686 6.616 22.805-1.142 21.492-16.117 40.714-35.162 50.265-19.045 9.55-41.476 10.411-62.327 6.207-29.202-5.89-56.973-22.057-73.669-47.027-16.696-24.97-20.914-59.005-7.59-85.95zM275.434 271.917c12.368 0 22.395-10.027 22.395-22.395 0-12.369-10.027-22.396-22.395-22.396-12.369 0-22.396 10.027-22.396 22.396 0 12.368 10.027 22.395 22.396 22.395zM97.541 69.931c1.868-11.138-5.647-21.681-16.785-23.55-11.138-1.867-21.68 5.648-23.549 16.786-1.868 11.138 5.647 21.681 16.785 23.549 11.138 1.868 21.681-5.647 23.55-16.785z" fill="#F5F5F5"/>
    <mask id="r9sgmnsazb" maskUnits="userSpaceOnUse" x="236.932" y="35.045" width="131" height="204" fill="#000">
        <path fill="#fff" d="M236.932 35.045h131v204h-131z"/>
        <path d="M244.394 202.572c0-2.025.873-3.953 2.39-5.295 3.57-3.157 5.163-4.593 4.778-4.308 15.107-13.863 26.977-25.244 35.609-34.144 8.787-8.899 16.186-18.227 22.198-27.982 6.012-9.755 9.018-19.254 9.018-28.496 0-7.017-1.464-12.493-4.393-16.43-2.929-3.936-7.322-5.904-13.18-5.904s-10.483 2.481-13.874 7.445c-2.324 3.44-3.814 7.94-4.47 13.498-.456 3.869-3.544 7.039-7.439 7.039h-23.895c-3.954 0-7.163-3.255-6.835-7.196.951-11.405 3.603-21.157 7.955-29.258 5.395-9.755 12.409-16.943 21.042-21.564 8.786-4.621 18.498-6.932 29.134-6.932 18.344 0 32.141 5.22 41.39 15.66 9.403 10.44 14.105 24.046 14.105 40.818 0 18.313-5.626 35.342-16.88 51.087-8.042 11.131-17.659 22.086-28.85 32.867-4.72 4.547-1.604 12.829 4.95 12.829h36.27a7.054 7.054 0 0 1 7.054 7.054v21.576a7.054 7.054 0 0 1-7.054 7.054H251.448a7.054 7.054 0 0 1-7.054-7.054v-22.364z"/>
    </mask>
    <path d="m251.562 192.969-4.769-5.197 8.966 10.866-4.197-5.669zm35.609-34.144-5.019-4.955-.022.022-.022.022 5.063 4.911zm26.823-72.908-5.659 4.211 5.659-4.21zm-27.054 1.54-5.824-3.979-.01.016-.011.015 5.845 3.949zm-34.684-15.916-6.173-3.414-.021.038-.02.038 6.214 3.338zm21.042-21.564-3.284-6.243-.022.012-.023.012 3.329 6.219zm70.524 8.728-5.28 4.678.02.021.019.022 5.241-4.72zm-2.775 91.905 5.718 4.131.011-.014.01-.015-5.739-4.102zm-28.85 32.867-4.894-5.08 4.894 5.08zm-65.413 13.8 4.672 5.285-4.672-5.285zm4.672 5.285c1.787-1.581 3.1-2.748 3.924-3.491.394-.356.736-.668.967-.887.06-.058.146-.14.237-.233a7.567 7.567 0 0 0 .665-.766 7.122 7.122 0 0 0 1.2-2.489 7.063 7.063 0 0 0-.234-4.261c-.965-2.548-3.09-3.917-4.961-4.363a7.068 7.068 0 0 0-3.1-.039c-.936.198-1.61.549-1.733.611-.422.215-.734.429-.79.467a7.357 7.357 0 0 0-.265.188l8.393 11.339a7.748 7.748 0 0 1-.205.146c-.04.027-.339.233-.753.443-.118.06-.789.409-1.722.607a7.055 7.055 0 0 1-3.097-.039c-1.871-.446-3.995-1.815-4.96-4.362a7.044 7.044 0 0 1 .957-6.733c.421-.56.906-.987.635-.728-.072.068-.279.259-.681.621-.769.694-2.038 1.823-3.822 3.4l9.345 10.569zm4.875-4.396c15.152-13.904 27.135-25.389 35.903-34.43l-10.126-9.822c-8.496 8.759-20.253 20.036-35.315 33.858l9.538 10.394zm35.86-34.385c9.128-9.245 16.867-18.988 23.183-29.237l-12.01-7.402c-5.708 9.262-12.767 18.173-21.212 26.728l10.039 9.911zm23.183-29.237c6.534-10.602 10.067-21.367 10.067-32.197h-14.108c0 7.655-2.479 15.887-7.969 24.795l12.01 7.402zm10.067-32.197c0-7.903-1.638-15.063-5.788-20.64l-11.318 8.421c1.707 2.295 2.998 6.088 2.998 12.219h14.108zm-5.788-20.64c-4.526-6.083-11.239-8.748-18.839-8.748v14.108c4.115 0 6.189 1.272 7.521 3.061l11.318-8.421zm-18.839-8.748c-8.26 0-15.033 3.693-19.698 10.52l11.648 7.958c2.118-3.1 4.594-4.37 8.05-4.37V72.959zm-19.719 10.55c-3.135 4.641-4.886 10.316-5.63 16.621l14.011 1.652c.567-4.811 1.796-8.136 3.309-10.376l-11.69-7.897zm-6.064 17.432h-23.895v14.108h23.895v-14.108zm-23.7.444c.889-10.67 3.341-19.438 7.139-26.506l-12.428-6.676c-4.907 9.133-7.758 19.87-8.77 32.01l14.059 1.172zm7.097-26.43c4.832-8.735 10.924-14.866 18.198-18.76l-6.657-12.437c-9.991 5.348-17.926 13.594-23.886 24.37l12.345 6.827zm18.153-18.735c7.702-4.05 16.275-6.12 25.851-6.12V35.991c-11.696 0-22.547 2.55-32.418 7.742l6.567 12.486zm25.851-6.12c16.999 0 28.59 4.794 36.11 13.283l10.56-9.355c-10.978-12.391-26.98-18.036-46.67-18.036v14.107zm36.149 13.326c8.018 8.902 12.292 20.712 12.292 36.097h14.108c0-18.159-5.129-33.56-15.918-45.538l-10.482 9.44zm12.292 36.097c0 16.756-5.115 32.365-15.564 46.986l11.477 8.203c12.057-16.87 18.195-35.319 18.195-55.189h-14.108zM335.33 146.48c-7.767 10.749-17.099 21.391-28.027 31.918l9.787 10.16c11.456-11.035 21.357-22.304 29.675-33.816l-11.435-8.262zm-18.183 56.881h36.27v-14.108h-36.27v14.108zm36.27 0v21.576h14.107V203.36h-14.107zm0 21.576H251.448v14.108h101.969v-14.108zm-101.969 0v-22.364H237.34v22.364h14.108zm101.969 0v14.108c7.791 0 14.107-6.316 14.107-14.108h-14.107zm0-21.576h14.107c0-7.791-6.316-14.108-14.107-14.108v14.108zm-46.114-24.963c-8.957 8.629-3.518 24.963 9.844 24.963v-14.108c-.068 0-.077-.009-.049 0a.259.259 0 0 1 .056.028c.01.008-.061-.045-.12-.201a.71.71 0 0 1-.047-.362.226.226 0 0 1 .019-.058.463.463 0 0 1 .084-.102l-9.787-10.16zm-56.167-77.456c-.017 0 .016-.002.063.046a.484.484 0 0 1 .095.161.614.614 0 0 1 .037.237l-14.059-1.172c-.696 8.351 6.089 14.836 13.864 14.836v-14.108zm.312 123.995H237.34c0 7.792 6.317 14.108 14.108 14.108v-14.108zm24.017-124.806a1.247 1.247 0 0 1-.335.733.394.394 0 0 1-.109.081l.008-.002c.007-.001.008-.001.002-.001v14.108c8.003 0 13.635-6.402 14.445-13.267l-14.011-1.652zm-33.354 91.863a14.127 14.127 0 0 0-4.771 10.579h14.108v.002-.002a.025.025 0 0 1 .008-.01l-9.345-10.569z" fill="url(#vz2qpf3bpa)" mask="url(#r9sgmnsazb)"/>
    <path d="M130.719 107.178c.706-3.436 3.125-5.27 6.349-6.624a10.963 10.963 0 0 1 10.065.959c1.961 1.298 3.527 3.259 5.82 3.88 3.724 1.03 7.815-1.982 11.413-.578a4.988 4.988 0 0 1-1.729 9.628c2.441.705 3.4 4.056 2.152 6.264-1.249 2.207-4.049 3.195-6.567 2.899-2.518-.297-4.79-1.665-6.779-3.238-1.989-1.573-3.809-3.365-5.925-4.768-2.116-1.404-4.627-2.406-7.145-2.116-3.407.409-6.179 3.181-7.498 6.348s-1.411 6.694-1.411 10.129c0 3.435.204 6.913-.593 10.256a1.265 1.265 0 0 1-.62.981c-.544.204-1.058-.353-1.369-.847a50.425 50.425 0 0 1-6.983-18.34c-.635-3.766-.776-7.364 1.1-10.686 1.877-3.322 6.984-6.031 9.699-4.19" fill="#263238"/>
    <path d="m125.126 123.493.705 35.064c.134 6.546 3.421 13.317 13.762 12.633 8.93-1.27 9.17-7.533 9.121-15.299 0 0 9.783-1.122 10.291-10.835.24-4.698-.042-14.404-.395-23.185a18.12 18.12 0 0 0-17.387-17.367h-.939c-10.122.156-15.624 8.867-15.158 18.989z" fill="#FFBE9D"/>
    <path d="M148.728 155.905a23.522 23.522 0 0 1-12.506-4.233s2.758 7.661 12.492 7.174l.014-2.941z" fill="#EB996E"/>
    <path d="M155.182 131.633a1.411 1.411 0 0 1-1.411 1.347 1.331 1.331 0 0 1-.964-.361 1.32 1.32 0 0 1-.411-.944 1.412 1.412 0 0 1 1.41-1.347 1.324 1.324 0 0 1 1.376 1.305zM156.345 126.554c-.177.176-1.199-.649-2.695-.706-1.495-.056-2.617.649-2.772.459-.078-.085.113-.402.6-.706a3.789 3.789 0 0 1 2.229-.592 3.68 3.68 0 0 1 2.116.783c.465.353.606.684.522.762zM141.342 131.026a1.41 1.41 0 0 1-1.411 1.347 1.32 1.32 0 0 1-1.41-1.305 1.41 1.41 0 0 1 1.41-1.347 1.322 1.322 0 0 1 1.296.784c.073.164.113.341.115.521zM141.652 126.279c-.176.176-1.199-.642-2.694-.705-1.496-.064-2.617.648-2.772.458-.156-.19.112-.402.606-.705a3.808 3.808 0 0 1 2.222-.593 3.68 3.68 0 0 1 2.116.783c.466.317.607.649.522.762zM146.632 137.565a10.062 10.062 0 0 1 2.441-.339c.381 0 .747-.084.825-.345a1.93 1.93 0 0 0-.212-1.136c-.324-.938-.656-1.919-1.015-2.948-1.411-4.233-2.399-7.647-2.229-7.703.169-.056 1.446 3.301 2.821 7.505.332 1.03.656 2.017.96 2.963.223.468.273 1 .141 1.502a.962.962 0 0 1-.649.536 2.84 2.84 0 0 1-.656.064c-.81.07-1.625.037-2.427-.099zM142.273 120.41c-.162.395-1.651.148-3.407.289-1.756.142-3.202.558-3.414.191-.099-.184.162-.557.748-.924a5.694 5.694 0 0 1 2.56-.783 5.75 5.75 0 0 1 2.638.416c.607.289.946.621.875.811zM155.971 122.209c-.282.331-1.29-.064-2.532-.127-1.241-.064-2.292.134-2.518-.233-.099-.176.078-.508.55-.811a3.458 3.458 0 0 1 2.074-.473 3.531 3.531 0 0 1 1.996.762c.423.367.572.72.43.882z" fill="#263238"/>
    <path d="M125.633 130.723c-.162-.078-6.602-2.243-6.651 4.415-.05 6.659 6.637 5.333 6.651 5.142.014-.19 0-9.557 0-9.557z" fill="#FFBE9D"/>
    <path d="M123.616 137.741s-.113.085-.31.169a1.193 1.193 0 0 1-.868 0c-.705-.268-1.284-1.41-1.305-2.588a3.804 3.804 0 0 1 .339-1.658 1.351 1.351 0 0 1 .874-.882.592.592 0 0 1 .706.325c.084.19.042.317.077.331.036.014.149-.113.092-.388a.705.705 0 0 0-.261-.423.885.885 0 0 0-.642-.176 1.637 1.637 0 0 0-1.22 1.023 3.926 3.926 0 0 0-.416 1.855c.035 1.34.705 2.595 1.671 2.885a1.244 1.244 0 0 0 1.059-.17c.19-.141.253-.289.204-.303z" fill="#EB996E"/>
    <path d="M159.103 112.82a12.7 12.7 0 0 0-3.893-4.867 21.672 21.672 0 0 0-12.38-4.952 17.637 17.637 0 0 0-12.548 4.176 18.676 18.676 0 0 0-5.495 9.17 27.45 27.45 0 0 0-.494 10.778c.219 1.573.579 3.21 1.63 4.402.656.747 1.82 1.262 2.624.705.44-.392.736-.921.839-1.502 1.481-5.079 2.963-10.539 1.284-15.554a15.099 15.099 0 0 1 4.747-4.02 7.853 7.853 0 0 1 6.066-.586c2.927 1.03 4.634 3.985 6.92 6.08a14.038 14.038 0 0 0 12.358 3.28l-1.658-7.11z" fill="#263238"/>
    <path d="M147.366 141.698a6.632 6.632 0 0 1-.705 1.735 2.245 2.245 0 0 1-1.524 1.023 2.02 2.02 0 0 1-1.749-.811 3.235 3.235 0 0 1-.6-1.891c0-.606.219-1.347.818-1.453.253-.03.509.009.741.113l3.245 1.072" fill="#EB996E"/>
    <path d="M146.272 144.386a4.51 4.51 0 0 1-1.7-.099 2.416 2.416 0 0 1-1.347-1.072 2.54 2.54 0 0 1-.176-2.067c.06-.171.14-.335.24-.487.12-.141.091-.134.232-.127.141.007.346.113.522.17l.529.176c.706.226 1.326.43 1.856.585a6.024 6.024 0 0 0 1.756.41 5.684 5.684 0 0 0-1.622-.783c-.515-.212-1.129-.445-1.813-.706l-.529-.19c-.191-.064-.339-.141-.593-.205a.704.704 0 0 0-.465.05.861.861 0 0 0-.332.296 2.675 2.675 0 0 0-.317.621 2.966 2.966 0 0 0 .261 2.525 2.71 2.71 0 0 0 1.693 1.192 2.63 2.63 0 0 0 1.375-.035c.31-.106.444-.226.43-.254z" fill="#263238"/>
    <path d="M166.354 106.458c.04.145.064.294.071.444.014.437-.033.874-.141 1.298a6.107 6.107 0 0 1-2.935 3.675c-1.784 1.051-4.401 1.206-6.962.438-2.56-.769-5.071-2.385-7.681-3.922-2.61-1.538-5.347-2.702-7.964-2.596a10.454 10.454 0 0 0-6.292 2.511 13.9 13.9 0 0 0-3.033 3.527c-.564.959-.797 1.538-.832 1.516.029-.146.076-.288.141-.423a11.1 11.1 0 0 1 .543-1.178 13.36 13.36 0 0 1 2.984-3.696 10.636 10.636 0 0 1 6.482-2.673c2.73-.134 5.566 1.079 8.183 2.617 2.616 1.537 5.064 3.181 7.582 3.915 2.518.733 4.987.641 6.701-.325a6.032 6.032 0 0 0 2.921-3.456 6.65 6.65 0 0 0 .232-1.672zM120.661 120.304c.054-.618.228-1.22.515-1.77a11.291 11.291 0 0 1 2.532-3.654 11.581 11.581 0 0 1 1.947-1.51 4.127 4.127 0 0 1 1.926-.705 2.18 2.18 0 0 1 1.34.346c.275.19.36.359.339.374a2.549 2.549 0 0 0-1.658-.417c-1.058.113-2.37 1.058-3.59 2.201a13.18 13.18 0 0 0-2.561 3.478c-.515 1.008-.719 1.678-.79 1.657zM121.599 126.201a4.953 4.953 0 0 1 .62-1.742 12.333 12.333 0 0 1 2.723-3.527 12.508 12.508 0 0 1 3.823-2.349 5.07 5.07 0 0 1 1.799-.437c-.55.264-1.112.499-1.686.705a14.81 14.81 0 0 0-3.647 2.392 14.597 14.597 0 0 0-2.744 3.378c-.564.953-.825 1.609-.888 1.58z" fill="#455A64"/>
    <path d="m170.531 222.28 35.388 14.255-5.643 10.108-40.129-6.158 10.384-18.205z" fill="#FFBE9D"/>
    <path d="M170.601 181.093c.183 9.953-.142 33.936-.142 33.936l5.643 8.915-9.924 13.402-11.469 1.616-1.136 8.894s-20.096 8.994-36.172 3.527c-12.506-4.232-27.121 10.024-27.121 10.024s-1.34-2.328.832-22.445c2.067-19.179 5.643-50.829 5.643-50.829l11.561-28.92 17.465-3.026c7.273 12.358 21.81 12.428 22.981 4.937l11.547 4.804a16.41 16.41 0 0 1 10.327 15.186l-.035-.021z" fill="#6ABF4B"/>
    <path d="M160.591 184.119c.099 0-1.121 11.434-2.722 25.506-1.602 14.072-2.991 25.478-3.09 25.464-.099-.014 1.115-11.427 2.723-25.506 1.608-14.079 2.991-25.464 3.089-25.464zM154.864 209.901c.056.085-5.643 3.83-12.697 8.366-7.053 4.535-12.781 8.175-12.859 8.055-.077-.12 5.643-3.83 12.697-8.366 7.054-4.535 12.803-8.14 12.859-8.055zM134.57 355.341h-6.673l-3.809-44.841h10.482v44.841zM82.62 355.341h-6.666L72.147 310.5H82.62v44.841zM208.268 355.341h-6.666l-3.809-44.841h10.475v44.841z" fill="#263238"/>
    <path d="m100.903 270.541 6.349-97.214H47.295a7.304 7.304 0 0 0-7.058 5.456 7.3 7.3 0 0 0-.116 3.171l24.131 130.218c7.675-.105 147.529 0 147.529 0v-41.617l-110.878-.014z" fill="#455A64"/>
    <path d="M189.836 297.846c0 .106-13.289.184-29.675.184-16.385 0-29.675-.078-29.675-.184 0-.105 13.282-.183 29.675-.183s29.675.085 29.675.183z" fill="#263238"/>
    <path d="m242.923 320.468 4.31 20.583s22.374 2.525 23.538 6.249l-39.607 9.798-8.041-31.791 19.8-4.839z" fill="#6ABF4B"/>
    <path d="M234.564 342.362a1.671 1.671 0 0 0-.663 2.116 1.606 1.606 0 0 0 2.116.706 1.76 1.76 0 0 0 .787-.993 1.758 1.758 0 0 0-.081-1.264 1.659 1.659 0 0 0-2.258-.459M231.347 357.944l-.783-3.083 38.147-9.17s1.954.332 2.06 1.623l-39.424 10.63z" fill="#E0E0E0"/>
    <path d="M247.811 340.712c.042.191-.903.522-1.7 1.376-.797.853-1.1 1.798-1.298 1.763-.197-.035-.183-1.22.797-2.243.981-1.023 2.201-1.107 2.201-.896zM252.41 341.375c.084.177-.67.706-1.122 1.693-.451.988-.43 1.897-.628 1.933-.197.035-.585-1.023 0-2.229.586-1.206 1.693-1.58 1.75-1.397zM255.993 345.769c-.162.078-.705-.818-.437-2.003.268-1.185 1.036-1.827 1.156-1.686.12.141-.296.847-.472 1.82-.177.974-.057 1.799-.247 1.869zM246.323 336.106c-.036.197-.988.148-2.067.493-1.079.346-1.841.903-1.982.762-.141-.141.508-1.037 1.777-1.411 1.27-.373 2.349-.021 2.272.156z" fill="#263238"/>
    <path opacity=".3" d="m242.922 320.468 4.31 20.583s22.374 2.525 23.538 6.249l-39.423 10.644-8.225-32.637 19.8-4.839z" fill="#000"/>
    <path d="m221.873 258.409 25.076 72.787-21.655 8.006-39.895-79.785-66.305-10.369 39.839-10.707 56.74 14.34a8.878 8.878 0 0 1 6.2 5.728z" fill="#263238"/>
    <path d="m242.231 312.384 14.319 15.723s20.788-9.262 23.708-6.623l-29.485 28.856-23.312-23.587 14.77-14.369z" fill="#6ABF4B"/>
    <path d="M246.174 335.774a1.69 1.69 0 0 0 .515 2.187 1.615 1.615 0 0 0 2.173-.487 1.78 1.78 0 0 0-.55-2.314c-.748-.366-1.961-.035-2.208.755M251.338 350.982l-2.257-2.285 28.539-27.573s1.87-.705 2.631.36l-28.913 29.498z" fill="#E0E0E0"/>
    <path d="M256.874 327.486c.141.156-.515.924-.769 2.081s-.042 2.116-.233 2.201c-.19.085-.79-.966-.451-2.363s1.361-2.095 1.453-1.919zM261.213 325.744c.17.106-.218.959-.112 2.045.105 1.087.599 1.877.451 2.011-.148.134-1.044-.593-1.15-1.947-.106-1.354.685-2.243.811-2.109zM266.602 327.726c-.098.155-1.001-.367-1.41-1.516-.409-1.15 0-2.117.141-2.06.141.056.176.889.515 1.827.338.938.888 1.594.754 1.749zM253.214 324.27c.07.19-.783.635-1.545 1.488-.762.854-1.143 1.728-1.34 1.679-.198-.05-.085-1.164.825-2.152.91-.987 2.024-1.199 2.06-1.015zM111.977 279.711l57.798-.239 64.147 59.73 19.94-18.572s-54.468-61.466-60.76-67.807c-6.292-6.342-66.926-10.581-66.926-10.581l-36.453 15.85.832 4.133a21.737 21.737 0 0 0 21.422 17.486z" fill="#263238"/>
    <path d="M168.429 271.875a17.58 17.58 0 0 1 .62 3.526 17.15 17.15 0 0 1 .254 3.57 18.126 18.126 0 0 1-.62-3.527 17.709 17.709 0 0 1-.254-3.569zM247.204 313.202a7.159 7.159 0 0 1-.705.84c-.48.522-1.185 1.269-2.067 2.179a226.037 226.037 0 0 1-7.054 6.983c-2.821 2.674-5.396 5.03-7.307 6.708-.952.84-1.728 1.51-2.279 1.961a6.52 6.52 0 0 1-.867.706 5.8 5.8 0 0 1 .776-.783 343.05 343.05 0 0 1 2.2-2.046 755.998 755.998 0 0 0 7.223-6.778 592.183 592.183 0 0 0 7.111-6.906l2.151-2.116a5.74 5.74 0 0 1 .818-.748z" fill="#455A64"/>
    <path d="M212.697 319.438s.134.105.381.331l1.1 1.002 4.233 3.893 15.603 14.446h-.177l19.913-18.6v.233c-8.401-9.805-18.467-20.534-29.012-31.947-4.663-5.036-9.17-9.967-13.557-14.763a386.448 386.448 0 0 1-12.281-14.065 38.028 38.028 0 0 0-5.988-6.214 15.803 15.803 0 0 0-3.527-2.067 22.233 22.233 0 0 0-3.823-1.178c-2.575-.55-5.114-.875-7.541-1.27l-6.976-1.086-21.048-3.294-5.721-.917-1.481-.247c-.339-.056-.508-.099-.508-.099s.176 0 .508.064l1.495.211 5.728.847 21.069 3.181 6.984 1.058c2.419.388 4.937.705 7.554 1.256 1.326.277 2.625.674 3.88 1.185a15.793 15.793 0 0 1 3.632 2.116 38.034 38.034 0 0 1 6.052 6.256c3.788 4.578 7.943 9.241 12.288 14.037 4.345 4.797 8.824 9.699 13.515 14.742 10.58 11.413 20.604 22.149 28.998 31.975l.105.12-.12.113c-7.505 6.969-14.29 13.268-19.961 18.544l-.092.077-.085-.077-15.518-14.538-4.183-3.936c-.465-.451-.825-.79-1.079-1.03-.254-.239-.36-.359-.36-.359z" fill="#455A64"/>
    <path d="m161.967 233.496-17.437 5.875-32.101-13.056-17.14 15.934 45.792 8.218a9.992 9.992 0 0 0 4.627-.332l13.501-4.232s4.408 4.987 5.332 5.058c.924.07 2.78-.05 1.891-1.7a43.13 43.13 0 0 0-3.153-4.508s6.2 5.114 6.905 4.43c.706-.684.424-2.271-.705-3.562a2372.057 2372.057 0 0 1-4.747-5.474s7.639 6.349 8.366 5.368c.726-.98 1.086-2.476-1.975-5.41-2.011-1.926-5.1-4.677-6.73-6.109a2.49 2.49 0 0 0-2.426-.5z" fill="#FFBE9D"/>
    <path d="M144.058 239.533a12.35 12.35 0 0 1-1.665 2.06 12.517 12.517 0 0 1-1.798 1.919 7.75 7.75 0 0 1 1.544-2.159 8.016 8.016 0 0 1 1.919-1.82zM169.777 245.952a6.925 6.925 0 0 1-1.468-1.502c-.846-.988-1.961-2.392-3.216-3.908-1.256-1.517-2.363-3.104-3.76-2.822a2.967 2.967 0 0 0-1.41.424 4.83 4.83 0 0 1-.466.31s.092-.198.388-.43a2.9 2.9 0 0 1 1.46-.565 3.161 3.161 0 0 1 1.1.092c.211.055.409.148.586.275.155.134.339.268.487.423a24.09 24.09 0 0 1 1.89 2.074 119.242 119.242 0 0 1 3.132 3.978l.945 1.185c.219.297.353.445.332.466zM157.404 241.48s.106-.176.409-.366a2.65 2.65 0 0 1 1.411-.367c.356 0 .708.07 1.037.204.369.183.687.454.924.79.261.332.48.706.705 1.066.226.359.537.705.812 1.086 2.271 2.984 3.957 5.537 3.809 5.643 0 0-.134-.148-.339-.423l-.868-1.157-2.842-3.845c-.275-.38-.557-.705-.818-1.107-.261-.402-.459-.741-.706-1.058a2.265 2.265 0 0 0-.783-.705 2.765 2.765 0 0 0-.917-.219 3.196 3.196 0 0 0-1.834.458zM171.589 240.549a9.137 9.137 0 0 1-1.411-1.122c-.839-.705-1.989-1.749-3.238-2.892l-1.756-1.622a5.497 5.497 0 0 0-1.502-1.157 3.157 3.157 0 0 0-1.707-.247s.148-.12.465-.169c.455-.059.917.002 1.34.176.293.119.57.273.826.459.275.204.529.437.804.705l1.777 1.601c1.249 1.15 2.37 2.201 3.167 2.977.458.384.872.817 1.235 1.291z" fill="#EB996E"/>
    <path d="M93.665 242.665s-6.518-7.322-6.108-17.084c.409-9.762 3.209-38.019 4.457-45.772 1.249-7.752 7.054-18.339 16.365-20.639 6.821-1.657 8.232 18.89 8.232 18.89l-5.128 45.363 10.228 5.939-9.544 16.167-18.502-2.864z" fill="#6ABF4B"/>
    <path d="M115.696 175.796c-.071 0-.155-.988-.586-2.533a17.837 17.837 0 0 0-.966-2.638 20.558 20.558 0 0 0-1.735-2.962 19.586 19.586 0 0 0-2.272-2.568 17.481 17.481 0 0 0-2.2-1.749c-1.334-.889-2.258-1.284-2.229-1.347.23.049.452.127.663.232.26.102.512.222.754.36.327.161.645.34.953.536a15.699 15.699 0 0 1 2.285 1.714 17.798 17.798 0 0 1 2.342 2.61 17.998 17.998 0 0 1 1.742 3.033c.389.873.696 1.78.917 2.709.091.355.161.716.212 1.079.054.27.089.543.106.818.04.233.045.471.014.706zM111.428 223.458c-.516.349-1.056.663-1.615.938a38.278 38.278 0 0 0-3.767 2.44 40.331 40.331 0 0 0-3.428 2.899c-.44.452-.911.872-1.411 1.256a7.84 7.84 0 0 1 1.199-1.446 27.35 27.35 0 0 1 3.393-3.005 25.162 25.162 0 0 1 3.865-2.37 7.162 7.162 0 0 1 1.764-.712z" fill="#263238"/>
    <path d="m179.143 213.118-11.222 40.742h52.381l12.767-38.796a2.354 2.354 0 0 0-.324-2.108 2.362 2.362 0 0 0-1.891-.988l-49.418-.564a2.349 2.349 0 0 0-2.293 1.714z" fill="#E0E0E0"/>
    <path d="M182.535 211.396c.099 0-2.44 9.551-5.678 21.281-3.238 11.73-5.932 21.211-6.031 21.161-.099-.049 2.448-9.558 5.643-21.281 3.195-11.723 5.967-21.189 6.066-21.161z" fill="#263238"/>
    <path d="M202.78 231.986a2.216 2.216 0 0 0 2.972 2.727 2.212 2.212 0 0 0 1.347-1.985 2.213 2.213 0 0 0-1.251-2.047 2.375 2.375 0 0 0-3.068 1.305z" fill="#fff"/>
    <path d="M167.921 253.859h-35.05a3 3 0 0 1 2.998-2.998h33.357l-1.305 2.998z" fill="#E0E0E0"/>
    <path d="M87.558 225.609a2 2 0 0 1 0 .332v.966c0 .409.05.938.106 1.559.056.621.176 1.312.303 2.116a26.8 26.8 0 0 0 1.764 5.53 27.524 27.524 0 0 0 3.999 6.497l-.085-.043 18.467 2.822-.176.084 7.498-12.64 2.116-3.562.07.254-10.228-5.946-.091-.057v-.113c.938-10.383 1.742-19.313 2.32-25.668.297-3.153.537-5.643.706-7.413.084-.847.155-1.503.204-1.976 0-.211.043-.38.057-.507a1.206 1.206 0 0 1 0-.17.539.539 0 0 1 0 .17v.515c-.035.465-.085 1.128-.141 1.982-.141 1.749-.346 4.232-.6 7.42-.543 6.348-1.305 15.293-2.186 25.676l-.092-.163 10.235 5.933.155.091-.092.155-2.116 3.57-7.449 12.598-.063.105h-.113l-18.46-2.878h-.056v-.035a27.437 27.437 0 0 1-5.706-12.189 20.03 20.03 0 0 1-.268-2.116 14.882 14.882 0 0 1-.071-1.566v-.966a2.01 2.01 0 0 1-.007-.367z" fill="#263238"/>
    <path d="M61.317 238.341s61.953 7.844 64.189 10.016c1.947 1.905 4.423 52.198 4.973 51.986l-57.84-2.194-11.322-59.808z" fill="#455A64"/>
    <path d="M112.428 312.024c-.106 0-1.41-14.509-2.885-32.447-1.474-17.938-2.617-32.447-2.511-32.447.106 0 1.411 14.502 2.878 32.447s2.617 32.44 2.518 32.447zM49.129 173.327c.035.079.061.162.078.247l.169.705.628 2.751c.543 2.42 1.305 5.876 2.257 10.144 1.869 8.591 4.444 20.455 7.293 33.498.706 3.266 1.411 6.461 2.06 9.55.332 1.545.663 3.055.98 4.543.078.367.156.741.24 1.107.06.358.151.71.275 1.051a3.287 3.287 0 0 0 1.348 1.552c.296.173.617.299.952.374.324.078.705.106 1.037.155l2.073.275 3.965.515 7.117.945 10.291 1.411 2.822.395.705.106c.084.009.167.028.247.056h-.254l-.705-.077-2.822-.325-10.312-1.276-7.117-.896-3.972-.501-2.073-.261c-.353-.049-.706-.078-1.066-.155a3.757 3.757 0 0 1-1.05-.416 3.576 3.576 0 0 1-1.496-1.707 6.717 6.717 0 0 1-.303-1.115c-.078-.367-.156-.705-.24-1.107a825.289 825.289 0 0 0-.988-4.536c-.663-3.089-1.354-6.285-2.066-9.551-2.822-13.084-5.347-24.92-7.188-33.519-.903-4.274-1.63-7.759-2.116-10.164-.247-1.185-.43-2.116-.565-2.772a24.689 24.689 0 0 0-.14-.706c-.036-.162-.064-.289-.064-.296zM126.409 252.357c.106 0 1.284 13.402 2.645 29.894 1.361 16.491 2.377 29.914 2.271 29.921-.105.007-1.283-13.402-2.638-29.893-1.354-16.492-2.377-29.915-2.278-29.922z" fill="#263238"/>
    <defs>
        <linearGradient id="vz2qpf3bpa" x1="301.425" y1="37.251" x2="431.105" y2="239.665" gradientUnits="userSpaceOnUse">
            <stop stop-color="#6ABF4B"/>
            <stop offset=".406" stop-color="#6ABF4B"/>
            <stop offset=".838" stop-color="#6ABF4B"/>
        </linearGradient>
    </defs>
</svg>
