<svg width="400" height="400" viewBox="0 0 400 400" fill="none" xmlns="http://www.w3.org/2000/svg">
<path d="M206.701 346.408C292.367 346.408 361.813 342.353 361.813 337.352C361.813 332.35 292.367 328.296 206.701 328.296C121.035 328.296 51.5889 332.35 51.5889 337.352C51.5889 342.353 121.035 346.408 206.701 346.408Z" fill="#F5F5F5"/>
<path d="M324.212 228.103H225.668C223.641 228.068 221.699 227.281 220.221 225.894C218.742 224.507 217.832 222.62 217.668 220.599L207.428 74.5275C207.345 73.5662 207.465 72.5983 207.779 71.686C208.093 70.7738 208.595 69.9376 209.252 69.2313C209.91 68.5251 210.708 67.9644 211.595 67.5855C212.482 67.2066 213.439 67.0178 214.404 67.0315H312.948C314.974 67.0663 316.914 67.8527 318.392 69.2379C319.871 70.6231 320.781 72.5084 320.948 74.5275L331.164 220.599C331.248 221.559 331.13 222.526 330.817 223.438C330.505 224.349 330.005 225.185 329.351 225.892C328.696 226.599 327.9 227.161 327.015 227.542C326.13 227.922 325.175 228.114 324.212 228.103Z" fill="black"/>
<path opacity="0.7" d="M324.212 228.103H225.668C223.641 228.068 221.699 227.281 220.221 225.894C218.742 224.507 217.832 222.62 217.668 220.599L207.428 74.5275C207.345 73.5662 207.465 72.5983 207.779 71.686C208.093 70.7738 208.595 69.9376 209.252 69.2313C209.91 68.5251 210.708 67.9644 211.595 67.5855C212.482 67.2066 213.439 67.0178 214.404 67.0315H312.948C314.974 67.0663 316.914 67.8527 318.392 69.2379C319.871 70.6231 320.781 72.5084 320.948 74.5275L331.164 220.599C331.248 221.559 331.13 222.526 330.817 223.438C330.505 224.349 330.005 225.185 329.351 225.892C328.696 226.599 327.9 227.161 327.015 227.542C326.13 227.922 325.175 228.114 324.212 228.103Z" fill="white"/>
<path d="M325.516 222.903H223.052L212.508 72.0635H314.964L325.516 222.903Z" fill="white"/>
<path d="M284.7 75.5035H243.1L242.404 65.6475C242.324 64.7376 242.436 63.8211 242.733 62.9573C243.03 62.0936 243.505 61.3017 244.127 60.6329C244.749 59.9641 245.504 59.4333 246.344 59.0747C247.185 58.7162 248.09 58.538 249.004 58.5515H276.428C278.349 58.5789 280.191 59.3209 281.595 60.6329C282.998 61.9448 283.863 63.7326 284.02 65.6475L284.7 75.5035Z" fill="#6ABF4B"/>
<path d="M226.19 84.6908H221.03L220.818 81.6579H234.868L235.08 84.6908H229.921L230.835 97.7417H227.103L226.19 84.6908ZM247.569 94.2952H240.083L238.896 97.7417H235.073L241.133 81.6579H244.819L253.154 97.7417H249.238L247.569 94.2952ZM246.196 91.469L243.209 85.3112L241.083 91.469H246.196ZM264.152 97.7417L259.869 92.1583L256.436 97.7417H252.152L257.545 89.5619L251.325 81.6579H255.563L259.637 86.8736L262.911 81.6579H266.942L261.865 89.4241L268.459 97.7417H264.152Z" fill="black"/>
<path d="M306.7 104.28H225.412L225.18 100.888H306.46L306.7 104.28Z" fill="black"/>
<path d="M310.364 156.711H229.084L228.844 153.319H310.124L310.364 156.711Z" fill="black"/>
<path d="M308.716 127.423H301.404L300.892 120.111H308.204L308.716 127.423ZM302.148 126.623H307.86L307.46 120.911H301.748L302.148 126.623Z" fill="black"/>
<path d="M307.06 108.879H225.78V110.079H307.06V108.879Z" fill="black"/>
<path d="M307.444 114.6H226.164V115.4H307.444V114.6Z" fill="black"/>
<path d="M256.524 120.111H226.548V120.911H256.524V120.111Z" fill="black"/>
<path d="M226.612 125.183V125.983H297.164V125.183H226.612Z" fill="black"/>
<path d="M272.356 135.72H268.356L268.076 131.72H272.076L272.356 135.72ZM269.068 134.92H271.468L271.3 132.52H268.9L269.068 134.92Z" fill="black"/>
<path d="M272.708 140.695H268.668L268.388 136.655H272.428L272.708 140.695ZM269.42 139.895H271.82L271.644 137.455H269.244L269.42 139.895Z" fill="black"/>
<path d="M273.044 145.527H269.044L268.756 141.527H272.796L273.044 145.527ZM269.756 144.727H272.156L271.988 142.327H269.588L269.756 144.727Z" fill="black"/>
<path d="M273.676 134.488V135.288H308.716V134.488H273.676Z" fill="black"/>
<path d="M274.393 139.968L274.392 140.768L309.432 140.811L309.433 140.011L274.393 139.968Z" fill="black"/>
<path d="M274.737 144.926L274.736 145.726L309.776 145.769L309.777 144.969L274.737 144.926Z" fill="black"/>
<path d="M231.252 135.72H227.212L226.932 131.72H230.932L231.252 135.72ZM227.956 134.92H230.356L230.188 132.52H227.788L227.956 134.92Z" fill="black"/>
<path d="M231.596 140.695H227.596L227.308 136.655H231.308L231.596 140.695ZM228.308 139.895H230.708L230.54 137.455H228.14L228.308 139.895Z" fill="black"/>
<path d="M231.931 145.527H227.931L227.651 141.527H231.651L231.931 145.527ZM228.643 144.727H231.043L230.875 142.327H228.475L228.643 144.727Z" fill="black"/>
<path d="M232.885 134.618L232.884 135.418L265.884 135.459L265.885 134.659L232.885 134.618Z" fill="black"/>
<path d="M233.27 139.953L233.269 140.753L266.269 140.793L266.27 139.993L233.27 139.953Z" fill="black"/>
<path d="M233.613 144.919L233.612 145.719L266.612 145.76L266.613 144.96L233.613 144.919Z" fill="black"/>
<path d="M314.468 214.791H273.236L269.46 160.799H310.7L314.468 214.791ZM273.98 213.991H313.612L309.948 161.599H270.316L273.98 213.991Z" fill="black"/>
<path d="M311.172 167.919H270.74V168.719H311.172V167.919Z" fill="black"/>
<path d="M311.724 175.808H271.292V176.608H311.724V175.808Z" fill="black"/>
<path d="M312.276 183.695H271.844V184.495H312.276V183.695Z" fill="black"/>
<path d="M312.827 191.583H272.396V192.383H312.827V191.583Z" fill="black"/>
<path d="M313.38 199.472H272.948V200.272H313.38V199.472Z" fill="black"/>
<path d="M313.932 207.359H273.5V208.159H313.932V207.359Z" fill="black"/>
<path d="M273.628 214.791H232.74L228.972 160.799H269.9L273.628 214.791ZM233.492 213.991H272.772L269.1 161.599H229.82L233.492 213.991Z" fill="black"/>
<path d="M270.34 167.919H230.252V168.719H270.34V167.919Z" fill="black"/>
<path d="M270.892 175.808H230.804V176.608H270.892V175.808Z" fill="black"/>
<path d="M271.443 183.695H231.355V184.495H271.443V183.695Z" fill="black"/>
<path d="M271.987 191.583H231.899V192.383H271.987V191.583Z" fill="black"/>
<path d="M272.54 199.472H232.452V200.272H272.54V199.472Z" fill="black"/>
<path d="M273.092 207.359H233.004V208.159H273.092V207.359Z" fill="black"/>
<path d="M101.196 290.088V339.512C101.198 340.101 101.433 340.665 101.85 341.082C102.267 341.499 102.831 341.734 103.42 341.736C103.955 341.734 104.472 341.541 104.876 341.192C105.281 340.843 105.548 340.361 105.628 339.832L110.028 290.336C110.075 290.017 110.051 289.691 109.959 289.382C109.868 289.073 109.71 288.788 109.497 288.546C109.284 288.304 109.02 288.111 108.725 287.981C108.43 287.851 108.111 287.786 107.788 287.792L103.388 287.856C102.803 287.866 102.246 288.106 101.836 288.524C101.426 288.941 101.196 289.503 101.196 290.088Z" fill="#263238"/>
<path d="M165.789 290.088V339.512C165.787 340.101 165.552 340.665 165.135 341.082C164.718 341.499 164.154 341.734 163.565 341.736C163.03 341.736 162.512 341.544 162.107 341.194C161.702 340.845 161.435 340.361 161.357 339.832L156.957 290.336C156.91 290.017 156.934 289.691 157.026 289.382C157.117 289.073 157.275 288.788 157.488 288.546C157.701 288.304 157.965 288.111 158.26 287.981C158.555 287.851 158.874 287.786 159.197 287.792L163.597 287.856C164.182 287.866 164.739 288.106 165.149 288.524C165.559 288.941 165.789 289.503 165.789 290.088Z" fill="#263238"/>
<path d="M169.412 290.536H96.8044C95.8255 290.536 94.8867 290.148 94.1938 289.456C93.5009 288.765 93.1105 287.827 93.1084 286.848C93.1084 286.362 93.204 285.882 93.3897 285.433C93.5755 284.985 93.8477 284.578 94.1909 284.234C94.5341 283.891 94.9416 283.619 95.39 283.433C95.8384 283.247 96.319 283.152 96.8044 283.152H169.412C170.393 283.152 171.333 283.541 172.026 284.234C172.719 284.928 173.108 285.868 173.108 286.848C173.106 287.827 172.716 288.765 172.023 289.456C171.33 290.148 170.391 290.536 169.412 290.536Z" fill="#263238"/>
<path d="M105.853 261.416L103.677 283.4H107.221L105.853 261.416Z" fill="#263238"/>
<path d="M132.3 283.272L106.852 283.376L105.612 261.416L131.052 261.312L132.3 283.272Z" fill="#6ABF4B"/>
<path opacity="0.6" d="M132.3 283.272L106.852 283.376L105.612 261.416L131.052 261.312L132.3 283.272Z" fill="white"/>
<path d="M131.052 261.312L105.612 261.416L105.372 257.312L130.82 257.2L131.052 261.312Z" fill="#263238"/>
<path d="M109.18 255.936C109.168 255.755 109.088 255.585 108.956 255.46C108.824 255.335 108.65 255.265 108.468 255.264C108.38 255.262 108.293 255.279 108.212 255.314C108.131 255.348 108.058 255.399 107.998 255.463C107.938 255.527 107.892 255.602 107.862 255.685C107.833 255.768 107.821 255.856 107.828 255.944C107.828 256.184 107.964 258.416 107.98 258.656C107.99 258.838 108.07 259.009 108.202 259.134C108.335 259.259 108.51 259.328 108.692 259.328C108.78 259.329 108.867 259.312 108.948 259.278C109.029 259.244 109.102 259.193 109.162 259.129C109.222 259.065 109.269 258.989 109.298 258.906C109.327 258.823 109.339 258.735 109.332 258.648C109.324 258.456 109.196 256.128 109.18 255.936Z" fill="#6ABF4B"/>
<path d="M114.076 255.92C114.066 255.737 113.987 255.565 113.855 255.439C113.723 255.313 113.547 255.242 113.364 255.24C113.277 255.238 113.189 255.255 113.109 255.29C113.028 255.324 112.955 255.375 112.894 255.439C112.834 255.503 112.788 255.578 112.759 255.661C112.729 255.744 112.718 255.832 112.724 255.92C112.724 256.16 112.86 258.392 112.876 258.632C112.889 258.815 112.97 258.987 113.103 259.113C113.237 259.239 113.413 259.31 113.596 259.312C113.684 259.312 113.771 259.294 113.851 259.26C113.931 259.225 114.004 259.174 114.064 259.11C114.124 259.047 114.17 258.971 114.2 258.889C114.229 258.807 114.242 258.719 114.236 258.632C114.22 258.44 114.092 256.112 114.076 255.92Z" fill="#6ABF4B"/>
<path d="M118.98 255.896C118.968 255.713 118.887 255.542 118.753 255.417C118.619 255.293 118.443 255.223 118.26 255.224C118.172 255.222 118.085 255.239 118.004 255.274C117.923 255.308 117.85 255.358 117.79 255.422C117.73 255.486 117.683 255.562 117.654 255.645C117.625 255.728 117.613 255.816 117.62 255.904C117.62 256.144 117.764 258.376 117.772 258.616C117.786 258.798 117.868 258.968 118.001 259.092C118.134 259.216 118.31 259.286 118.492 259.288C118.58 259.288 118.666 259.27 118.747 259.235C118.827 259.201 118.899 259.15 118.959 259.086C119.019 259.023 119.066 258.947 119.095 258.865C119.125 258.783 119.137 258.695 119.132 258.608C119.116 258.4 118.988 256.088 118.98 255.896Z" fill="#6ABF4B"/>
<path d="M123.877 255.872C123.863 255.69 123.781 255.52 123.648 255.395C123.514 255.271 123.339 255.201 123.157 255.2C123.069 255.2 122.983 255.217 122.902 255.252C122.822 255.287 122.75 255.337 122.69 255.401C122.63 255.465 122.583 255.54 122.554 255.622C122.524 255.705 122.511 255.792 122.517 255.88C122.517 256.12 122.661 258.352 122.677 258.592C122.687 258.774 122.766 258.946 122.898 259.072C123.031 259.199 123.206 259.27 123.389 259.272C123.476 259.272 123.563 259.254 123.643 259.219C123.724 259.185 123.796 259.134 123.856 259.07C123.916 259.007 123.962 258.931 123.992 258.849C124.022 258.767 124.034 258.679 124.029 258.592C124.021 258.4 123.885 256.064 123.877 255.872Z" fill="#6ABF4B"/>
<path d="M128.773 255.856C128.761 255.675 128.681 255.505 128.549 255.38C128.417 255.255 128.242 255.185 128.061 255.184C127.973 255.182 127.886 255.199 127.805 255.233C127.724 255.268 127.651 255.318 127.591 255.382C127.53 255.446 127.484 255.522 127.455 255.605C127.426 255.688 127.414 255.776 127.421 255.864C127.421 256.104 127.557 258.336 127.573 258.576C127.583 258.757 127.663 258.928 127.795 259.053C127.927 259.178 128.103 259.248 128.285 259.248C128.373 259.249 128.46 259.232 128.541 259.198C128.622 259.164 128.695 259.113 128.755 259.049C128.815 258.985 128.861 258.909 128.891 258.826C128.92 258.743 128.931 258.655 128.925 258.568C128.917 258.4 128.781 256.048 128.773 255.856Z" fill="#6ABF4B"/>
<g opacity="0.7">
<path opacity="0.7" d="M109.18 255.936C109.168 255.755 109.088 255.585 108.956 255.46C108.824 255.335 108.65 255.265 108.468 255.264C108.38 255.262 108.293 255.279 108.212 255.314C108.131 255.348 108.058 255.399 107.998 255.463C107.938 255.527 107.892 255.602 107.862 255.685C107.833 255.768 107.821 255.856 107.828 255.944C107.828 256.184 107.964 258.416 107.98 258.656C107.99 258.838 108.07 259.009 108.202 259.134C108.335 259.259 108.51 259.328 108.692 259.328C108.78 259.329 108.867 259.312 108.948 259.278C109.029 259.244 109.102 259.193 109.162 259.129C109.222 259.065 109.269 258.989 109.298 258.906C109.327 258.823 109.339 258.735 109.332 258.648C109.324 258.456 109.196 256.128 109.18 255.936Z" fill="white"/>
<path opacity="0.7" d="M114.076 255.92C114.065 255.737 113.986 255.565 113.854 255.439C113.722 255.313 113.546 255.242 113.364 255.24C113.276 255.238 113.188 255.255 113.108 255.29C113.027 255.324 112.954 255.375 112.893 255.439C112.833 255.503 112.787 255.578 112.758 255.661C112.728 255.744 112.717 255.832 112.724 255.92C112.724 256.16 112.86 258.392 112.876 258.632C112.888 258.815 112.969 258.987 113.102 259.113C113.236 259.239 113.412 259.31 113.596 259.312C113.683 259.312 113.77 259.294 113.85 259.26C113.93 259.225 114.003 259.174 114.063 259.11C114.123 259.047 114.169 258.971 114.199 258.889C114.228 258.807 114.241 258.719 114.236 258.632C114.22 258.44 114.092 256.112 114.076 255.92Z" fill="white"/>
<path opacity="0.7" d="M118.98 255.896C118.968 255.713 118.887 255.542 118.753 255.417C118.619 255.293 118.443 255.223 118.26 255.224C118.172 255.222 118.085 255.239 118.004 255.274C117.923 255.308 117.85 255.358 117.79 255.422C117.73 255.486 117.683 255.562 117.654 255.645C117.625 255.728 117.613 255.816 117.62 255.904C117.62 256.144 117.764 258.376 117.772 258.616C117.786 258.798 117.868 258.968 118.001 259.092C118.134 259.216 118.31 259.286 118.492 259.288C118.58 259.288 118.666 259.27 118.747 259.235C118.827 259.201 118.899 259.15 118.959 259.086C119.019 259.023 119.066 258.947 119.095 258.865C119.125 258.783 119.137 258.695 119.132 258.608C119.116 258.4 118.988 256.088 118.98 255.896Z" fill="white"/>
<path opacity="0.7" d="M123.876 255.872C123.862 255.69 123.78 255.52 123.647 255.395C123.513 255.271 123.338 255.201 123.156 255.2C123.068 255.2 122.982 255.217 122.901 255.252C122.821 255.287 122.749 255.337 122.689 255.401C122.629 255.465 122.582 255.54 122.553 255.622C122.523 255.705 122.51 255.792 122.516 255.88C122.516 256.12 122.66 258.352 122.676 258.592C122.686 258.774 122.765 258.946 122.898 259.072C123.03 259.199 123.205 259.27 123.388 259.272C123.475 259.272 123.562 259.254 123.642 259.219C123.723 259.185 123.795 259.134 123.855 259.07C123.915 259.007 123.961 258.931 123.991 258.849C124.021 258.767 124.033 258.679 124.028 258.592C124.02 258.4 123.884 256.064 123.876 255.872Z" fill="white"/>
<path opacity="0.7" d="M128.772 255.856C128.76 255.675 128.68 255.505 128.548 255.38C128.416 255.255 128.241 255.185 128.06 255.184C127.972 255.182 127.885 255.199 127.804 255.233C127.723 255.268 127.65 255.318 127.59 255.382C127.53 255.446 127.483 255.522 127.454 255.605C127.425 255.688 127.413 255.776 127.42 255.864C127.42 256.104 127.556 258.336 127.572 258.576C127.582 258.757 127.662 258.928 127.794 259.053C127.926 259.178 128.102 259.248 128.284 259.248C128.372 259.249 128.459 259.232 128.54 259.198C128.621 259.164 128.694 259.113 128.754 259.049C128.814 258.985 128.86 258.909 128.89 258.826C128.919 258.743 128.93 258.655 128.924 258.568C128.916 258.4 128.78 256.048 128.772 255.856Z" fill="white"/>
</g>
<path d="M133.004 282.656L107.564 282.76L105.612 261.416L131.052 261.312L133.004 282.656Z" fill="#6ABF4B"/>
<path opacity="0.8" d="M133.004 282.656L107.564 282.76L105.612 261.416L131.052 261.312L133.004 282.656Z" fill="white"/>
<path d="M125.669 266.576L113.069 266.632L112.725 262.88L125.325 262.824L125.669 266.576Z" fill="#6ABF4B"/>
<path opacity="0.6" d="M125.669 266.576L113.069 266.632L112.725 262.88L125.325 262.824L125.669 266.576Z" fill="white"/>
<path d="M111.397 271.495L108.029 271.503L107.725 268.143L111.085 268.127L111.397 271.495Z" fill="white"/>
<path d="M116.164 271.471L112.804 271.487L112.492 268.12L115.86 268.104L116.164 271.471Z" fill="white"/>
<path d="M111.805 276.032L108.445 276.048L108.133 272.68L111.501 272.664L111.805 276.032Z" fill="#6ABF4B"/>
<path d="M112.221 280.568L108.861 280.584L108.549 277.216L111.917 277.2L112.221 280.568Z" fill="#6ABF4B"/>
<path d="M116.58 276.007L113.22 276.023L112.908 272.655L116.276 272.647L116.58 276.007Z" fill="#6ABF4B"/>
<path opacity="0.2" d="M116.58 276.007L113.22 276.023L112.908 272.655L116.276 272.647L116.58 276.007Z" fill="white"/>
<path d="M121.357 275.992L117.989 276L117.685 272.64L121.045 272.624L121.357 275.992Z" fill="#6ABF4B"/>
<path opacity="0.2" d="M121.357 275.992L117.989 276L117.685 272.64L121.045 272.624L121.357 275.992Z" fill="white"/>
<path d="M126.124 275.967L122.764 275.983L122.452 272.615L125.82 272.607L126.124 275.967Z" fill="#6ABF4B"/>
<path opacity="0.2" d="M126.124 275.967L122.764 275.983L122.452 272.615L125.82 272.607L126.124 275.967Z" fill="white"/>
<path d="M130.901 275.952L127.533 275.967L127.229 272.599L130.589 272.583L130.901 275.952Z" fill="#6ABF4B"/>
<path opacity="0.2" d="M130.901 275.952L127.533 275.967L127.229 272.599L130.589 272.583L130.901 275.952Z" fill="white"/>
<path d="M116.996 280.552L113.628 280.56L113.324 277.2L116.684 277.184L116.996 280.552Z" fill="#6ABF4B"/>
<path opacity="0.2" d="M116.996 280.552L113.628 280.56L113.324 277.2L116.684 277.184L116.996 280.552Z" fill="white"/>
<path d="M121.773 280.528L118.405 280.544L118.101 277.176L121.461 277.16L121.773 280.528Z" fill="#6ABF4B"/>
<path opacity="0.2" d="M121.773 280.528L118.405 280.544L118.101 277.176L121.461 277.16L121.773 280.528Z" fill="white"/>
<path d="M126.54 280.512L123.172 280.52L122.868 277.16L126.236 277.144L126.54 280.512Z" fill="#6ABF4B"/>
<path opacity="0.2" d="M126.54 280.512L123.172 280.52L122.868 277.16L126.236 277.144L126.54 280.512Z" fill="white"/>
<path d="M120.941 271.448L117.573 271.464L117.269 268.104L120.629 268.088L120.941 271.448Z" fill="#6ABF4B"/>
<path opacity="0.2" d="M120.941 271.448L117.573 271.464L117.269 268.104L120.629 268.088L120.941 271.448Z" fill="white"/>
<path d="M125.708 271.431L122.348 271.447L122.036 268.079L125.404 268.063L125.708 271.431Z" fill="#6ABF4B"/>
<path opacity="0.2" d="M125.708 271.431L122.348 271.447L122.036 268.079L125.404 268.063L125.708 271.431Z" fill="white"/>
<path d="M130.485 271.408L127.117 271.424L126.812 268.064L130.173 268.048L130.485 271.408Z" fill="#6ABF4B"/>
<path opacity="0.2" d="M130.485 271.408L127.117 271.424L126.812 268.064L130.173 268.048L130.485 271.408Z" fill="white"/>
<path d="M131.317 280.488L127.949 280.504L127.645 277.136L131.005 277.12L131.317 280.488Z" fill="white"/>
<path d="M159.157 277.175V282.263C159.274 282.279 159.383 282.336 159.461 282.425C159.539 282.514 159.582 282.629 159.582 282.747C159.582 282.866 159.539 282.981 159.461 283.07C159.383 283.159 159.274 283.216 159.157 283.232C157.221 283.232 155.277 283.232 153.341 283.232V276.167H159.157C159.291 276.167 159.419 276.221 159.513 276.315C159.608 276.41 159.661 276.538 159.661 276.671C159.661 276.805 159.608 276.933 159.513 277.028C159.419 277.122 159.291 277.175 159.157 277.175Z" fill="#6ABF4B"/>
<path opacity="0.3" d="M159.157 277.175V282.263C159.274 282.279 159.383 282.336 159.461 282.425C159.539 282.514 159.582 282.629 159.582 282.747C159.582 282.866 159.539 282.981 159.461 283.07C159.383 283.159 159.274 283.216 159.157 283.232C157.221 283.232 155.277 283.232 153.341 283.232V276.167H159.157C159.291 276.167 159.419 276.221 159.513 276.315C159.608 276.41 159.661 276.538 159.661 276.671C159.661 276.805 159.608 276.933 159.513 277.028C159.419 277.122 159.291 277.175 159.157 277.175Z" fill="white"/>
<path d="M159.157 277.184H154.637V282.264H159.157V277.184Z" fill="#6ABF4B"/>
<path opacity="0.6" d="M159.157 277.184H154.637V282.264H159.157V277.184Z" fill="white"/>
<path d="M155.588 276.688H130.636C129.564 276.688 128.692 278.048 128.692 279.72C128.692 281.392 129.564 282.752 130.636 282.752H155.588V276.688Z" fill="#6ABF4B"/>
<path opacity="0.9" d="M155.588 276.688H130.636C129.564 276.688 128.692 278.048 128.692 279.72C128.692 281.392 129.564 282.752 130.636 282.752H155.588V276.688Z" fill="white"/>
<path d="M155.589 283.2C150.461 283.2 136.037 283.296 130.909 283.2C127.397 283.144 127.213 276.408 130.653 276.168C133.053 276.008 135.533 276.168 137.933 276.168H155.589C155.718 276.168 155.842 276.219 155.934 276.311C156.025 276.402 156.077 276.526 156.077 276.656C156.077 276.785 156.025 276.909 155.934 277.001C155.842 277.092 155.718 277.144 155.589 277.144H131.725C130.597 277.144 129.797 277.144 129.325 278.48C128.949 279.632 129.069 281.976 130.605 282.232C130.78 282.244 130.957 282.244 131.133 282.232H155.557C155.674 282.247 155.782 282.304 155.861 282.394C155.939 282.483 155.982 282.597 155.982 282.716C155.982 282.834 155.939 282.949 155.861 283.038C155.782 283.127 155.674 283.185 155.557 283.2H155.589Z" fill="#6ABF4B"/>
<path d="M157.541 276.072L153.477 276.128C153.475 275.708 153.572 275.294 153.758 274.918C153.944 274.541 154.214 274.213 154.549 273.96C154.772 273.819 155.015 273.712 155.269 273.64C155.689 273.79 156.05 274.07 156.301 274.44C156.557 274.813 156.78 275.21 156.965 275.624C157.018 275.739 157.098 275.839 157.199 275.917C157.299 275.995 157.416 276.048 157.541 276.072Z" fill="#6ABF4B"/>
<g opacity="0.3">
<path opacity="0.3" d="M157.541 276.072L153.541 276.024C153.519 275.626 153.597 275.229 153.767 274.868C153.938 274.508 154.195 274.196 154.517 273.96C154.74 273.819 154.983 273.712 155.237 273.64C155.657 273.79 156.018 274.07 156.269 274.44C156.525 274.813 156.748 275.21 156.933 275.624C156.989 275.743 157.074 275.846 157.18 275.924C157.286 276.002 157.41 276.053 157.541 276.072Z" fill="black"/>
</g>
<path d="M150.764 276.08H146.316C146.415 275.248 146.647 274.438 147.004 273.68C147.324 273.051 147.784 272.503 148.348 272.08C148.758 271.824 149.203 271.63 149.668 271.504C150.468 271.872 150.292 275.424 150.756 275.8L150.764 276.08Z" fill="#6ABF4B"/>
<path d="M133.844 271.4H133.524C133.631 271.39 133.738 271.39 133.844 271.4Z" fill="#6ABF4B"/>
<path d="M150.756 276.08H146.316C146.415 275.248 146.647 274.438 147.004 273.68C147.324 273.051 147.784 272.503 148.348 272.08C148.758 271.824 149.203 271.63 149.668 271.504C150.468 271.872 150.3 275.424 150.764 275.8L150.756 276.08Z" fill="#6ABF4B"/>
<path opacity="0.3" d="M153.636 276.072H146.316C146.415 275.24 146.647 274.429 147.004 273.672C147.324 273.042 147.784 272.495 148.348 272.072C148.758 271.816 149.203 271.622 149.668 271.496C150.468 271.864 150.3 275.416 150.764 275.792C150.956 275.952 153.084 275.736 153.356 275.904C153.434 275.982 153.53 276.04 153.636 276.072Z" fill="black"/>
<path d="M149.821 271.512C149.355 271.638 148.91 271.832 148.501 272.088C147.936 272.511 147.476 273.058 147.157 273.688C146.783 274.434 146.581 275.253 146.565 276.088C146.55 276.534 146.569 276.98 146.621 277.424C146.679 277.968 146.794 278.504 146.965 279.024H130.797C130.147 277.616 130.078 276.009 130.605 274.552C131.151 273.183 132.215 272.085 133.565 271.496H134.077L149.821 271.512Z" fill="#6ABF4B"/>
<path opacity="0.3" d="M149.821 271.512C149.355 271.638 148.91 271.832 148.501 272.088C147.936 272.511 147.476 273.058 147.157 273.688C146.783 274.434 146.581 275.253 146.565 276.088C146.55 276.534 146.569 276.98 146.621 277.424C146.679 277.968 146.794 278.504 146.965 279.024H130.797C130.147 277.616 130.078 276.009 130.605 274.552C131.151 273.183 132.215 272.085 133.565 271.496H134.077L149.821 271.512Z" fill="white"/>
<path d="M316.724 321.04L321.372 247.032C321.782 240.524 320.854 234.001 318.645 227.865C316.436 221.73 312.994 216.112 308.53 211.358C304.066 206.605 298.675 202.817 292.69 200.228C286.705 197.638 280.253 196.303 273.732 196.304C261.535 196.303 249.801 200.971 240.937 209.35C232.073 217.728 226.753 229.182 226.068 241.36L221.196 327.76H309.54C311.367 327.76 313.125 327.066 314.459 325.818C315.793 324.57 316.602 322.862 316.724 321.04Z" fill="#6ABF4B"/>
<path opacity="0.1" d="M316.892 318.4L321.372 247.072C321.782 240.564 320.854 234.041 318.645 227.905C316.436 221.77 312.994 216.152 308.53 211.399C304.066 206.645 298.675 202.857 292.69 200.268C286.705 197.678 280.253 196.343 273.732 196.344C261.535 196.343 249.801 201.011 240.937 209.39C232.073 217.768 226.753 229.222 226.068 241.4L221.196 327.8H306.852C309.407 327.801 311.866 326.83 313.731 325.085C315.595 323.339 316.726 320.949 316.892 318.4Z" fill="black"/>
<path d="M302.388 327.792L307.5 247.032C307.909 240.524 306.98 234.001 304.771 227.866C302.562 221.731 299.119 216.114 294.655 211.361C290.191 206.608 284.801 202.82 278.817 200.23C272.832 197.64 266.381 196.304 259.86 196.304C247.663 196.303 235.929 200.971 227.065 209.35C218.201 217.728 212.881 229.182 212.196 241.36L207.316 327.76L302.388 327.792Z" fill="#6ABF4B"/>
<path d="M303.908 341.696H305.1C305.429 341.675 305.74 341.54 305.978 341.313C306.217 341.086 306.367 340.783 306.404 340.456L308.204 327.8H300.772L302.572 340.456C302.61 340.788 302.766 341.096 303.011 341.323C303.256 341.55 303.574 341.683 303.908 341.696Z" fill="#263238"/>
<path d="M184.301 341.696H185.405C185.716 341.661 186.006 341.517 186.222 341.291C186.439 341.064 186.568 340.769 186.589 340.456L188.189 327.8H181.461L183.061 340.456C183.082 340.778 183.219 341.081 183.447 341.31C183.675 341.538 183.979 341.675 184.301 341.696Z" fill="#263238"/>
<path d="M218.757 341.696H219.869C220.18 341.662 220.469 341.519 220.685 341.292C220.9 341.065 221.028 340.768 221.045 340.456L222.645 327.8H215.917L217.517 340.456C217.536 340.778 217.673 341.083 217.901 341.311C218.13 341.54 218.434 341.677 218.757 341.696Z" fill="#263238"/>
<path d="M266.844 341.696H268.06C268.389 341.677 268.701 341.542 268.94 341.315C269.178 341.088 269.329 340.783 269.364 340.456L271.164 327.8H263.74L265.54 340.456C265.577 340.783 265.728 341.086 265.967 341.313C266.205 341.54 266.516 341.675 266.844 341.696Z" fill="#263238"/>
<path d="M226.548 297.296H193.996L191.844 265.92L191.38 259.184L191.172 256.088C191.11 255.282 191.004 254.481 190.852 253.688C190.852 253.52 190.772 253.328 190.74 253.152C190.721 253.021 190.689 252.892 190.644 252.768C189.762 249.572 188.051 246.665 185.684 244.344C182.957 241.647 179.351 240.021 175.524 239.76H206.132H207.14C211.297 239.787 215.277 241.441 218.228 244.368C220.595 246.689 222.306 249.596 223.188 252.792C223.233 252.916 223.265 253.045 223.284 253.176C223.499 254.153 223.644 255.145 223.716 256.144L223.932 259.24L226.548 297.296Z" fill="#6ABF4B"/>
<path opacity="0.1" d="M226.548 297.296H193.996L191.844 265.92L191.38 259.184L191.172 256.088C191.11 255.282 191.004 254.481 190.852 253.688C190.852 253.52 190.772 253.328 190.74 253.152C190.721 253.021 190.689 252.892 190.644 252.768C189.762 249.572 188.051 246.665 185.684 244.344C182.957 241.647 179.351 240.021 175.524 239.76H206.132H207.14C211.297 239.787 215.277 241.441 218.228 244.368C220.595 246.689 222.306 249.596 223.188 252.792C223.233 252.916 223.265 253.045 223.284 253.176C223.499 254.153 223.644 255.145 223.716 256.144L223.932 259.24L226.548 297.296Z" fill="black"/>
<g opacity="0.1">
<path opacity="0.1" d="M252.341 280.576H265.413C268.613 280.576 271.165 282.592 271.165 285.072V292.8C271.165 295.28 268.589 297.288 265.413 297.288H252.341V280.576Z" fill="black"/>
</g>
<path d="M198.34 297.304H257.156C259.551 297.304 261.492 295.362 261.492 292.968V284.92C261.492 282.525 259.551 280.584 257.156 280.584H198.34C195.945 280.584 194.004 282.525 194.004 284.92V292.968C194.004 295.362 195.945 297.304 198.34 297.304Z" fill="#6ABF4B"/>
<path d="M334.741 258.224C334.743 262.595 333.2 266.827 330.385 270.172C327.571 273.516 323.665 275.759 319.357 276.504L315.981 321.096C315.693 324.888 312.941 327.792 309.645 327.792H273.749C277.037 327.792 279.789 324.888 280.085 321.096L281.901 297.296L283.501 276.496C286.323 276.011 288.994 274.877 291.303 273.183C293.612 271.489 295.495 269.282 296.805 266.736C296.981 266.416 297.141 266.072 297.285 265.736C298.867 262.189 299.289 258.233 298.493 254.432C298.397 253.936 298.269 253.44 298.133 252.96C297.48 250.779 296.436 248.736 295.053 246.928C293.347 244.706 291.159 242.9 288.653 241.648C286.064 240.341 283.201 239.669 280.301 239.688H316.205C318.061 239.679 319.909 239.948 321.685 240.488C322.651 240.787 323.591 241.167 324.493 241.624C326.999 242.876 329.188 244.681 330.893 246.904C333.391 250.148 334.745 254.129 334.741 258.224Z" fill="#6ABF4B"/>
<path opacity="0.1" d="M334.741 258.224C334.743 262.595 333.2 266.827 330.385 270.172C327.571 273.516 323.665 275.759 319.357 276.504L315.981 321.096C315.693 324.888 312.941 327.792 309.645 327.792H273.749C277.037 327.792 279.789 324.888 280.085 321.096L281.901 297.296L283.501 276.496C286.323 276.011 288.994 274.877 291.303 273.183C293.612 271.489 295.495 269.282 296.805 266.736C296.981 266.416 297.141 266.072 297.285 265.736C298.867 262.189 299.289 258.233 298.493 254.432C298.397 253.936 298.269 253.44 298.133 252.96C297.48 250.779 296.436 248.736 295.053 246.928C293.347 244.706 291.159 242.9 288.653 241.648C286.064 240.341 283.201 239.669 280.301 239.688H316.205C318.061 239.679 319.909 239.948 321.685 240.488C322.651 240.787 323.591 241.167 324.493 241.624C326.999 242.876 329.188 244.681 330.893 246.904C333.391 250.148 334.745 254.129 334.741 258.224Z" fill="black"/>
<path d="M298.837 258.224C298.837 267.384 292.813 275.024 284.893 276.504L281.837 321.096C281.573 324.888 279.085 327.8 276.085 327.8H180.229C177.237 327.8 174.749 324.888 174.477 321.096L171.413 276.432C163.653 274.832 157.813 267.272 157.813 258.224C157.794 254.429 158.872 250.709 160.917 247.512C162.462 245.071 164.593 243.055 167.117 241.648C169.41 240.357 171.997 239.68 174.629 239.68C178.786 239.71 182.766 241.367 185.717 244.296C188.086 246.613 189.798 249.517 190.677 252.712C190.721 252.842 190.753 252.976 190.773 253.112C190.992 254.086 191.137 255.076 191.205 256.072L191.421 259.168L194.029 297.288H262.349L265.173 256.064C265.581 250.24 268.413 245.392 272.373 243.088C274.864 241.106 277.9 239.931 281.077 239.72C281.411 239.684 281.748 239.668 282.085 239.672C284.636 239.672 287.147 240.31 289.389 241.528L289.597 241.64C291.915 242.93 293.905 244.737 295.413 246.92C297.681 250.25 298.876 254.195 298.837 258.224Z" fill="#6ABF4B"/>
<path opacity="0.1" d="M260.733 327.8H180.229C177.237 327.8 174.749 324.888 174.477 321.096L171.413 276.432C163.653 274.832 157.813 267.272 157.813 258.224C157.794 254.429 158.872 250.709 160.917 247.512C162.462 245.07 164.593 243.054 167.117 241.648C169.41 240.357 171.997 239.679 174.629 239.68C178.786 239.71 182.766 241.367 185.717 244.296C188.086 246.612 189.798 249.517 190.677 252.712C190.721 252.842 190.753 252.976 190.773 253.112C190.992 254.086 191.137 255.075 191.205 256.072L191.421 259.168L194.029 297.288H262.349L260.733 327.8Z" fill="white"/>
<path d="M262.316 297.296L265.14 256.072C265.548 250.248 268.38 245.4 272.34 243.096C274.831 241.113 277.868 239.938 281.044 239.728C281.379 239.692 281.716 239.676 282.052 239.68C284.604 239.68 287.114 240.318 289.356 241.536L289.564 241.648C291.883 242.938 293.873 244.745 295.38 246.928C297.663 250.248 298.874 254.187 298.852 258.216C298.852 267.376 292.828 275.016 284.908 276.496L281.852 321.088C281.588 324.88 279.1 327.792 276.1 327.792H260.732L262.316 297.296Z" fill="#6ABF4B"/>
<path opacity="0.1" d="M262.316 297.296L265.14 256.072C265.548 250.248 268.38 245.4 272.34 243.096C274.831 241.113 277.868 239.938 281.044 239.728C281.379 239.692 281.716 239.676 282.052 239.68C284.604 239.68 287.114 240.318 289.356 241.536L289.564 241.648C291.883 242.938 293.873 244.745 295.38 246.928C297.663 250.248 298.874 254.187 298.852 258.216C298.852 267.376 292.828 275.016 284.908 276.496L281.852 321.088C281.588 324.88 279.1 327.792 276.1 327.792H260.732L262.316 297.296Z" fill="white"/>
<path d="M236.733 192.432C228.933 193.976 213.485 200.616 213.389 200.248C213.389 200.248 200.381 197.168 195.045 191.272C195.045 191.272 189.941 190.64 187.261 190.12C189.205 194.688 192.981 200.224 197.181 202.864C202.517 206.216 203.973 207.232 209.253 209.264C215.861 211.776 225.973 209.104 232.509 206.424C234.909 205.44 237.397 204.184 238.813 201.992C240.229 199.8 238.893 193.896 236.733 192.432Z" fill="#263238"/>
<path opacity="0.3" d="M236.733 192.432C228.933 193.976 213.485 200.616 213.389 200.248C213.389 200.248 200.381 197.168 195.045 191.272C195.045 191.272 189.941 190.64 187.261 190.12C189.205 194.688 192.981 200.224 197.181 202.864C202.517 206.216 203.973 207.232 209.253 209.264C215.861 211.776 225.973 209.104 232.509 206.424C234.909 205.44 237.397 204.184 238.813 201.992C240.229 199.8 238.893 193.896 236.733 192.432Z" fill="black"/>
<path d="M206.236 192.888L195.836 193.48C195.69 193.483 195.547 193.433 195.435 193.339C195.323 193.244 195.25 193.112 195.228 192.968L192.756 172.368C192.746 172.299 192.751 172.228 192.769 172.161C192.788 172.094 192.821 172.032 192.865 171.978C192.91 171.925 192.965 171.881 193.028 171.85C193.09 171.819 193.159 171.802 193.228 171.8L203.5 171.2C203.647 171.194 203.791 171.244 203.903 171.338C204.015 171.433 204.089 171.566 204.108 171.712L206.7 192.32C206.71 192.388 206.706 192.458 206.688 192.524C206.669 192.591 206.637 192.653 206.594 192.706C206.55 192.76 206.496 192.803 206.434 192.835C206.373 192.866 206.305 192.884 206.236 192.888Z" fill="#263238"/>
<path opacity="0.7" d="M206.236 192.888L195.836 193.48C195.69 193.483 195.547 193.433 195.435 193.339C195.323 193.244 195.25 193.112 195.228 192.968L192.756 172.368C192.746 172.299 192.751 172.228 192.769 172.161C192.788 172.094 192.821 172.032 192.865 171.978C192.91 171.925 192.965 171.881 193.028 171.85C193.09 171.819 193.159 171.802 193.228 171.8L203.5 171.2C203.647 171.194 203.791 171.244 203.903 171.338C204.015 171.433 204.089 171.566 204.108 171.712L206.7 192.32C206.71 192.388 206.706 192.458 206.688 192.524C206.669 192.591 206.637 192.653 206.594 192.706C206.55 192.76 206.496 192.803 206.434 192.835C206.373 192.866 206.305 192.884 206.236 192.888Z" fill="white"/>
<path d="M205.773 192.576L195.661 193.144C195.492 193.152 195.326 193.096 195.196 192.988C195.066 192.88 194.981 192.727 194.957 192.56L192.365 172.136C192.354 172.056 192.359 171.975 192.381 171.897C192.403 171.82 192.441 171.747 192.492 171.685C192.543 171.623 192.606 171.571 192.678 171.535C192.75 171.498 192.829 171.477 192.909 171.472L203.021 170.904C203.19 170.896 203.356 170.952 203.486 171.06C203.616 171.168 203.701 171.321 203.725 171.488L206.317 191.92C206.328 191.999 206.323 192.08 206.301 192.158C206.279 192.235 206.241 192.307 206.19 192.368C206.139 192.43 206.075 192.48 206.003 192.516C205.932 192.552 205.853 192.572 205.773 192.576Z" fill="#263238"/>
<path opacity="0.2" d="M205.773 192.576L195.661 193.144C195.492 193.152 195.326 193.096 195.196 192.988C195.066 192.88 194.981 192.727 194.957 192.56L192.365 172.136C192.354 172.056 192.359 171.975 192.381 171.897C192.403 171.82 192.441 171.747 192.492 171.685C192.543 171.623 192.606 171.571 192.678 171.535C192.75 171.498 192.829 171.477 192.909 171.472L203.021 170.904C203.19 170.896 203.356 170.952 203.486 171.06C203.616 171.168 203.701 171.321 203.725 171.488L206.317 191.92C206.328 191.999 206.323 192.08 206.301 192.158C206.279 192.235 206.241 192.307 206.19 192.368C206.139 192.43 206.075 192.48 206.003 192.516C205.932 192.552 205.853 192.572 205.773 192.576Z" fill="white"/>
<path opacity="0.4" d="M195.733 172.224L196.413 177.576C196.417 177.61 196.415 177.644 196.405 177.677C196.396 177.71 196.38 177.74 196.358 177.766C196.336 177.793 196.309 177.814 196.279 177.83C196.248 177.845 196.215 177.854 196.181 177.856L193.877 177.984C193.832 177.995 193.785 177.995 193.741 177.984C193.697 177.965 193.658 177.936 193.628 177.898C193.599 177.86 193.58 177.815 193.573 177.768L192.893 172.416C192.888 172.381 192.891 172.345 192.901 172.312C192.911 172.278 192.927 172.247 192.95 172.22C192.972 172.193 193 172.17 193.032 172.155C193.063 172.139 193.098 172.13 193.133 172.128L195.429 172C195.478 171.995 195.528 172.004 195.572 172.027C195.616 172.05 195.652 172.085 195.677 172.128C195.703 172.155 195.722 172.188 195.733 172.224Z" fill="black"/>
<path opacity="0.5" d="M195.852 172.32L196.532 177.672C196.537 177.706 196.534 177.741 196.525 177.774C196.515 177.808 196.499 177.839 196.478 177.865C196.456 177.892 196.429 177.915 196.399 177.931C196.368 177.947 196.335 177.957 196.3 177.96L193.996 178.088C193.945 178.091 193.894 178.08 193.849 178.056C193.804 178.032 193.766 177.996 193.74 177.952C193.785 177.963 193.832 177.963 193.876 177.952L196.18 177.824C196.214 177.822 196.248 177.813 196.278 177.798C196.309 177.782 196.336 177.761 196.357 177.735C196.379 177.708 196.395 177.678 196.405 177.645C196.414 177.612 196.417 177.578 196.412 177.544L195.732 172.192C195.727 172.145 195.708 172.1 195.676 172.064C195.727 172.085 195.771 172.121 195.802 172.166C195.833 172.212 195.85 172.265 195.852 172.32Z" fill="black"/>
<path d="M195.501 173.488C195.52 173.619 195.511 173.753 195.475 173.881C195.44 174.009 195.378 174.128 195.293 174.23C195.209 174.333 195.104 174.416 194.985 174.476C194.867 174.536 194.737 174.57 194.605 174.576C194.325 174.589 194.051 174.496 193.837 174.317C193.622 174.138 193.482 173.885 193.445 173.608C193.425 173.477 193.434 173.344 193.47 173.216C193.505 173.089 193.568 172.97 193.652 172.869C193.737 172.767 193.841 172.684 193.96 172.625C194.079 172.566 194.208 172.533 194.341 172.528C194.619 172.515 194.891 172.607 195.106 172.784C195.32 172.961 195.461 173.212 195.501 173.488Z" fill="black"/>
<path d="M195.845 176.2C195.864 176.331 195.855 176.464 195.819 176.591C195.784 176.719 195.722 176.837 195.637 176.939C195.553 177.041 195.448 177.124 195.329 177.183C195.21 177.241 195.081 177.274 194.949 177.28C194.669 177.292 194.395 177.2 194.181 177.021C193.966 176.842 193.826 176.589 193.789 176.312C193.764 176.177 193.769 176.039 193.804 175.906C193.838 175.774 193.901 175.651 193.988 175.545C194.074 175.439 194.183 175.353 194.306 175.294C194.429 175.234 194.564 175.202 194.701 175.2C194.982 175.192 195.256 175.291 195.468 175.476C195.68 175.661 195.814 175.92 195.845 176.2Z" fill="black"/>
<path opacity="0.2" d="M195.036 176.24C195.039 176.268 195.037 176.296 195.029 176.323C195.021 176.35 195.008 176.375 194.99 176.397C194.972 176.419 194.95 176.436 194.925 176.449C194.9 176.462 194.872 176.47 194.844 176.472C194.784 176.474 194.726 176.454 194.68 176.416C194.634 176.377 194.604 176.323 194.596 176.264C194.593 176.236 194.595 176.207 194.603 176.18C194.611 176.153 194.625 176.128 194.642 176.107C194.66 176.085 194.683 176.067 194.708 176.054C194.733 176.041 194.76 176.034 194.788 176.032C194.848 176.031 194.905 176.052 194.951 176.09C194.996 176.128 195.027 176.181 195.036 176.24Z" fill="white"/>
<path opacity="0.2" d="M194.7 173.6C194.704 173.628 194.701 173.656 194.693 173.683C194.685 173.71 194.672 173.735 194.654 173.757C194.636 173.779 194.614 173.796 194.589 173.809C194.564 173.822 194.536 173.83 194.508 173.832C194.449 173.833 194.391 173.812 194.346 173.774C194.3 173.736 194.27 173.682 194.26 173.624C194.257 173.596 194.259 173.568 194.267 173.54C194.275 173.513 194.289 173.488 194.307 173.467C194.325 173.445 194.347 173.427 194.372 173.414C194.397 173.401 194.424 173.394 194.452 173.392C194.512 173.389 194.571 173.409 194.617 173.448C194.662 173.486 194.692 173.54 194.7 173.6Z" fill="white"/>
<path d="M199.605 189.024L196.205 189.712C195.628 190.604 194.79 191.297 193.805 191.696C192.835 191.956 191.84 192.107 190.837 192.144C190.115 192.181 189.399 192.01 188.772 191.651C188.145 191.292 187.634 190.76 187.301 190.12C187.149 189.862 187.079 189.565 187.099 189.266C187.119 188.968 187.228 188.683 187.413 188.448L191.685 183.784C191.924 183.52 192.222 183.316 192.553 183.187C192.885 183.058 193.242 183.008 193.597 183.04L198.541 183.504C198.843 183.535 199.131 183.646 199.376 183.826C199.621 184.006 199.813 184.248 199.933 184.528L200.861 186.712C200.958 186.945 201.002 187.196 200.989 187.449C200.976 187.701 200.907 187.947 200.787 188.169C200.666 188.39 200.497 188.582 200.293 188.73C200.088 188.878 199.853 188.979 199.605 189.024Z" fill="#FFC3BD"/>
<path d="M272.237 203.632C269.653 228.68 263.213 258.528 263.213 258.528C260.589 256.08 257.693 254.808 253.613 253.824C246.309 252.072 231.213 248.416 231.213 248.296C229.533 247.952 225.749 245.824 225.525 245.896C215.125 241.28 219.989 229.392 223.669 222.88C225.361 219.831 226.473 216.494 226.949 213.04C227.749 207.6 229.469 200.24 232.157 195.592C232.635 194.761 233.291 194.047 234.078 193.501C234.865 192.954 235.764 192.589 236.709 192.432C239.413 191.976 243.293 191.336 243.245 191.448C248.973 191.016 259.037 191.776 259.509 191.784L262.309 191.96C263.738 192.045 265.134 192.419 266.415 193.058C267.696 193.697 268.834 194.588 269.762 195.679C270.689 196.769 271.386 198.036 271.812 199.402C272.237 200.769 272.382 202.208 272.237 203.632Z" fill="#263238"/>
<path d="M258.012 192.632C253.798 196.603 248.441 199.147 242.7 199.904C235.236 201.12 237.1 196.608 239.116 194.12C244.308 191.784 244.364 190.92 243.516 187.928C243.504 187.866 243.488 187.804 243.468 187.744C243.372 187.416 243.268 187.08 243.164 186.744C243.06 186.408 242.98 186.152 242.892 185.848L243.084 185.704L249.14 180.56L256.46 175.072C255.052 180.392 253.74 189.776 258.012 192.632Z" fill="#FFC3BD"/>
<path d="M212.213 335.976L205.677 336.608L201.805 318.192L209.509 317.304L212.213 335.976Z" fill="#FFC3BD"/>
<path d="M202.973 335.088C203.58 334.47 204.396 334.102 205.261 334.056L212.301 333.6C212.458 333.581 212.616 333.622 212.744 333.716C212.872 333.809 212.959 333.948 212.989 334.104L214.333 340.616C214.399 340.966 214.328 341.329 214.132 341.628C213.936 341.926 213.633 342.137 213.285 342.216H213.237C210.589 342.904 208.925 342.352 204.885 342.624C202.389 342.8 197.085 343.792 193.685 343.232C190.285 342.672 190.717 339.296 192.181 339.232C197.349 339.064 201.621 336.488 202.973 335.088Z" fill="#263238"/>
<g opacity="0.2">
<path opacity="0.2" d="M201.797 318.2L204.053 328.912L210.989 327.464L209.517 317.304L201.797 318.2Z" fill="black"/>
</g>
<path d="M242.772 280C242.508 280 242.244 280 241.972 280C241.526 279.992 241.08 279.96 240.636 279.904L205.644 278.032C211.292 283.208 212.22 324.736 212.22 324.736L210.54 325.096L202.956 326.696L201.564 326.992C201.564 326.992 198.364 313.392 194.708 297.792C192.852 289.896 190.444 281.728 189.412 273.888C189.123 271.803 188.955 269.704 188.908 267.6C188.908 266.96 188.908 266.32 188.908 265.68C188.904 265.613 188.904 265.547 188.908 265.48C188.908 265.208 188.908 264.944 188.972 264.68C189.146 263.412 189.676 262.219 190.5 261.24L190.756 260.944C190.844 260.848 190.932 260.752 191.028 260.664C191.213 260.473 191.408 260.291 191.612 260.12C191.82 259.944 192.036 259.776 192.26 259.608L192.852 259.2C193.092 259.048 193.34 258.904 193.596 258.76C193.724 258.688 193.852 258.616 193.988 258.552C194.388 258.344 194.788 258.144 195.228 257.96L195.604 257.8L196.116 257.608C196.266 257.544 196.418 257.488 196.572 257.44C197.036 257.272 197.516 257.112 198.012 256.976L198.26 256.904H198.332C211.604 253.144 234.196 256.048 234.196 256.048C234.196 256.048 240.156 251.632 246.5 250.792L247.396 250.896L250.22 251.208H250.34C259.612 267.544 253.852 279.896 242.772 280Z" fill="#6ABF4B"/>
<g opacity="0.3">
<path opacity="0.3" d="M242.772 280C242.508 280 242.244 280 241.972 280C241.526 279.992 241.08 279.96 240.636 279.904L205.644 278.032C211.292 283.208 212.22 324.736 212.22 324.736L210.54 325.096L202.956 326.696L201.564 326.992C201.564 326.992 198.364 313.392 194.708 297.792C192.852 289.896 190.444 281.728 189.412 273.888C189.123 271.803 188.955 269.704 188.908 267.6C188.908 266.96 188.908 266.32 188.908 265.68C188.904 265.613 188.904 265.547 188.908 265.48C188.908 265.208 188.908 264.944 188.972 264.68C189.146 263.412 189.676 262.219 190.5 261.24L190.756 260.944C190.844 260.848 190.932 260.752 191.028 260.664C191.213 260.473 191.408 260.291 191.612 260.12C191.82 259.944 192.036 259.776 192.26 259.608L192.852 259.2C193.092 259.048 193.34 258.904 193.596 258.76C193.724 258.688 193.852 258.616 193.988 258.552C194.388 258.344 194.788 258.144 195.228 257.96L195.604 257.8L196.116 257.608C196.266 257.544 196.418 257.488 196.572 257.44C197.036 257.272 197.516 257.112 198.012 256.976L198.26 256.904H198.332C211.604 253.144 234.196 256.048 234.196 256.048C234.196 256.048 240.156 251.632 246.5 250.792L247.396 250.896L250.22 251.208H250.34C259.612 267.544 253.852 279.896 242.772 280Z" fill="white"/>
</g>
<path d="M168.933 304.712L167.061 307.576L162.893 313.976L155.917 314.704L161.205 303.592L164.797 296.032L168.933 304.712Z" fill="#FFC3BD"/>
<path d="M157.685 309.92L163.461 313.52C163.601 313.592 163.708 313.715 163.758 313.865C163.809 314.014 163.8 314.177 163.733 314.32L160.901 320.928C160.738 321.247 160.456 321.488 160.115 321.599C159.775 321.71 159.404 321.682 159.085 321.52C156.397 319.88 155.189 318.952 151.765 316.952L143.245 312C140.341 310.296 141.909 307.36 143.245 307.808C149.381 309.832 153.477 310.112 156.229 309.664C156.729 309.571 157.246 309.662 157.685 309.92Z" fill="#263238"/>
<g opacity="0.2">
<path opacity="0.2" d="M168.933 304.712L167.069 307.576H167.061L161.205 303.592L164.797 296.032L168.933 304.712Z" fill="black"/>
</g>
<path d="M245.02 280.656C244.262 280.557 243.511 280.41 242.772 280.216C242.508 280.152 242.244 280.08 241.972 279.992C235.572 278.144 226.3 273.08 217.692 268.096C209.764 263.512 202.404 258.992 198.332 257.112H198.26L198.012 257.184C197.516 257.32 197.036 257.48 196.572 257.648C196.423 257.696 196.271 257.752 196.116 257.816L195.604 258.008L195.228 258.168C194.796 258.352 194.428 258.552 193.988 258.76C193.852 258.824 193.724 258.896 193.596 258.968C193.34 259.112 193.092 259.256 192.852 259.408L192.26 259.816C192.036 259.984 191.82 260.152 191.612 260.328C191.408 260.499 191.213 260.68 191.028 260.872C190.932 260.96 190.844 261.056 190.756 261.152L190.5 261.448C189.676 262.427 189.146 263.62 188.972 264.888C188.972 265.144 188.916 265.408 188.908 265.688C188.908 266.328 188.908 266.968 188.908 267.608C188.947 269.724 189.107 271.837 189.388 273.936V274.096C179.844 291.336 169.9 306.968 169.9 306.968L168.212 305.808L162.132 301.6L161.076 300.872C161.076 300.872 171.684 276.016 178.988 253.872C180.33 249.808 182.926 246.276 186.404 243.783C189.882 241.29 194.061 239.965 198.34 240C216.356 240.16 240.004 250.12 240.004 250.12L246.5 250.808L247.396 250.912L250.22 251.224H250.34C251.884 251.392 253.54 251.52 255.22 251.64C257.047 251.767 258.79 252.461 260.204 253.625C261.618 254.79 262.633 256.367 263.108 258.136C267.892 275.672 256.38 282.048 245.02 280.656Z" fill="#6ABF4B"/>
<g opacity="0.4">
<path opacity="0.4" d="M245.02 280.656C244.262 280.557 243.511 280.41 242.772 280.216C242.508 280.152 242.244 280.08 241.972 279.992C235.572 278.144 226.3 273.08 217.692 268.096C209.764 263.512 202.404 258.992 198.332 257.112H198.26L198.012 257.184C197.516 257.32 197.036 257.48 196.572 257.648C196.423 257.696 196.271 257.752 196.116 257.816L195.604 258.008L195.228 258.168C194.796 258.352 194.428 258.552 193.988 258.76C193.852 258.824 193.724 258.896 193.596 258.968C193.34 259.112 193.092 259.256 192.852 259.408L192.26 259.816C192.036 259.984 191.82 260.152 191.612 260.328C191.408 260.499 191.213 260.68 191.028 260.872C190.932 260.96 190.844 261.056 190.756 261.152L190.5 261.448C189.676 262.427 189.146 263.62 188.972 264.888C188.972 265.144 188.916 265.408 188.908 265.688C188.908 266.328 188.908 266.968 188.908 267.608C188.947 269.724 189.107 271.837 189.388 273.936V274.096C179.844 291.336 169.9 306.968 169.9 306.968L168.212 305.808L162.132 301.6L161.076 300.872C161.076 300.872 171.684 276.016 178.988 253.872C180.33 249.808 182.926 246.276 186.404 243.783C189.882 241.29 194.061 239.965 198.34 240C216.356 240.16 240.004 250.12 240.004 250.12L246.5 250.808L247.396 250.912L250.22 251.224H250.34C251.756 251.376 253.3 251.496 254.82 251.608C256.764 251.743 258.618 252.481 260.123 253.72C261.627 254.959 262.707 256.637 263.212 258.52C267.724 275.768 256.3 282.04 245.02 280.656Z" fill="white"/>
</g>
<path d="M198.261 256.92L198.013 256.992L198.261 256.92Z" fill="#6ABF4B"/>
<path opacity="0.3" d="M243.501 187.928C243.489 187.866 243.473 187.804 243.453 187.744C243.357 187.416 243.253 187.08 243.149 186.744C243.045 186.408 242.965 186.152 242.877 185.848L243.069 185.704L249.125 180.56L250.501 179.696C251.501 185.456 246.293 187.488 243.501 187.928Z" fill="black"/>
<path d="M240.933 160.8C234.533 164.416 234.461 174.648 236.437 180.56C236.93 182.11 237.841 183.494 239.068 184.56C240.296 185.627 241.793 186.336 243.397 186.608C245 186.881 246.648 186.707 248.159 186.106C249.67 185.505 250.987 184.499 251.965 183.2C255.093 179.24 254.645 175.248 254.493 168.376C254.341 161.504 247.333 157.2 240.933 160.8Z" fill="#FFC3BD"/>
<path d="M251.061 158.472C251.061 158.472 251.061 154.608 246.477 155.624C242.661 156.464 238.165 159.16 236.029 159.312C235.068 159.296 234.108 159.382 233.165 159.568C232.694 159.671 232.264 159.91 231.928 160.256C231.593 160.602 231.366 161.038 231.277 161.512C231.205 162.472 232.357 163.4 233.165 162.88C233.037 162.88 232.629 163.032 232.493 163.016C231.877 162.944 230.549 164.768 231.789 166.104C233.765 168.232 244.213 164.256 246.589 163.552C246.893 163.461 247.218 163.462 247.521 163.556C247.825 163.65 248.093 163.833 248.293 164.08C249.685 165.872 249.981 169.088 249.981 169.088C250.412 169 250.857 169.014 251.282 169.128C251.707 169.241 252.099 169.452 252.429 169.744C253.629 170.848 254.101 172.504 254.517 174.08C254.964 176.518 255.231 178.986 255.317 181.464C255.741 177.944 256.229 172.752 256.477 169.192C256.765 164.744 255.645 158.096 251.061 158.472Z" fill="#263238"/>
<path d="M255.501 171.112C253.581 171.544 252.765 174.312 252.821 176.072C252.821 178.072 254.309 179.384 255.973 178.176C257.235 177.24 258.094 175.858 258.373 174.312C258.741 172.416 257.445 170.68 255.501 171.112Z" fill="#FFC3BD"/>
<path d="M241.388 177.416C241.098 177.608 240.77 177.735 240.426 177.787C240.082 177.84 239.731 177.817 239.396 177.72C240.14 176.064 240.044 176.44 240.268 173.624L241.388 177.416Z" fill="#ED847E"/>
<path d="M245.357 168.944C244.54 168.33 243.513 168.065 242.501 168.208C242.419 168.219 242.336 168.198 242.27 168.148C242.204 168.099 242.161 168.025 242.149 167.944C242.137 167.857 242.158 167.769 242.209 167.698C242.259 167.627 242.335 167.577 242.421 167.56C243.445 167.4 245.149 167.712 245.845 168.48C245.875 168.51 245.899 168.545 245.915 168.584C245.932 168.623 245.94 168.665 245.94 168.708C245.94 168.75 245.932 168.792 245.915 168.831C245.899 168.871 245.875 168.906 245.845 168.936C245.803 168.977 245.754 169.009 245.701 169.032C245.641 169.051 245.577 169.053 245.516 169.037C245.455 169.021 245.4 168.989 245.357 168.944Z" fill="#263238"/>
<path d="M235.893 170.344C235.824 170.298 235.776 170.227 235.759 170.146C235.743 170.065 235.759 169.981 235.805 169.912C236.062 169.45 236.422 169.055 236.858 168.757C237.294 168.458 237.793 168.265 238.317 168.192C238.397 168.192 238.474 168.224 238.532 168.281C238.589 168.338 238.621 168.415 238.621 168.496C238.623 168.584 238.591 168.671 238.531 168.736C238.472 168.802 238.389 168.842 238.301 168.848C237.888 168.915 237.497 169.076 237.156 169.317C236.815 169.558 236.533 169.874 236.333 170.24C236.304 170.286 236.266 170.326 236.22 170.355C236.174 170.384 236.123 170.402 236.069 170.408C236.005 170.402 235.945 170.38 235.893 170.344Z" fill="#263238"/>
<path d="M241.221 180.312C241.923 181.21 242.569 182.151 243.157 183.128L243.613 182.936C245.669 182.04 246.253 180.8 246.277 179.736C246.273 179.186 246.162 178.643 245.949 178.136C245.831 177.84 245.681 177.558 245.501 177.296C244.765 178.56 242.925 179.568 241.917 180.056C241.493 180.208 241.221 180.312 241.221 180.312Z" fill="#263238"/>
<path d="M241.9 180L242.188 180.408C242.272 180.524 242.394 180.608 242.532 180.645C242.671 180.681 242.818 180.668 242.948 180.608C244.468 179.896 245.476 179.128 245.844 178.32C245.88 178.242 245.898 178.157 245.898 178.072C245.898 177.986 245.88 177.902 245.844 177.824C245.747 177.621 245.635 177.426 245.508 177.24C244.764 178.496 242.924 179.504 241.9 180Z" fill="white"/>
<path d="M243.612 182.936C245.668 182.04 246.252 180.8 246.276 179.736C245.496 180.1 244.801 180.623 244.236 181.272C243.861 181.748 243.643 182.33 243.612 182.936Z" fill="#DE5753"/>
<path d="M245.765 177.536C245.852 177.796 245.852 178.076 245.765 178.336C245.738 178.69 245.595 179.025 245.357 179.288C245.152 179.445 244.909 179.544 244.653 179.576C243.833 179.691 242.997 179.557 242.253 179.192C242.124 179.537 241.925 179.852 241.669 180.117C241.412 180.382 241.103 180.59 240.762 180.729C240.421 180.868 240.054 180.935 239.686 180.925C239.317 180.915 238.955 180.829 238.621 180.672V180.416C238.931 180.185 239.147 179.85 239.229 179.472C239.305 179.097 239.423 178.732 239.581 178.384C239.663 178.211 239.792 178.065 239.954 177.962C240.115 177.858 240.302 177.802 240.493 177.8C241.093 177.451 241.735 177.182 242.405 177C243.069 176.864 243.759 176.972 244.349 177.304C244.555 177.465 244.784 177.595 245.029 177.688C245.293 177.744 245.717 177.792 245.765 177.536Z" fill="#263238"/>
<path d="M238.245 172.664C237.893 172.728 237.685 173.24 237.797 173.784C237.909 174.328 238.285 174.728 238.637 174.656C238.989 174.584 239.197 174.08 239.093 173.536C238.989 172.992 238.605 172.6 238.245 172.664Z" fill="#263238"/>
<path d="M244.524 171.624C244.164 171.688 243.964 172.192 244.068 172.744C244.172 173.296 244.556 173.688 244.908 173.616C245.26 173.544 245.476 173.04 245.364 172.496C245.252 171.952 244.876 171.56 244.524 171.624Z" fill="#263238"/>
<path d="M263.236 211.72C257.636 215.2 250.284 219.72 249.196 219.976C238.94 226.456 235.492 215.296 234.756 213.96C233.46 211.64 232.7 208.632 231.676 206.184C229.668 201.464 227.556 197.24 226.156 192.304L231.068 190.256C231.068 190.256 240.964 204.296 242.268 206.12C242.828 206.92 245.82 210.736 247.452 208.768C248.396 208.464 258.732 197.856 263.74 194.44C264.303 194.047 264.94 193.775 265.612 193.64L265.836 193.6C266.615 193.502 267.406 193.597 268.139 193.876C268.873 194.155 269.527 194.609 270.044 195.2C271.274 196.481 272.007 198.159 272.109 199.932C272.212 201.706 271.678 203.457 270.604 204.872C268.601 207.598 266.101 209.921 263.236 211.72Z" fill="#263238"/>
<g opacity="0.1">
<path opacity="0.1" d="M263.236 211.72C257.636 215.2 250.284 219.72 249.196 219.976C238.94 226.456 235.492 215.296 234.756 213.96C233.46 211.64 232.7 208.632 231.676 206.184C229.668 201.464 227.556 197.24 226.156 192.304L231.068 190.256C231.068 190.256 240.964 204.296 242.268 206.12C242.828 206.92 245.82 210.736 247.452 208.768C248.396 208.464 258.732 197.856 263.74 194.44C264.303 194.047 264.94 193.775 265.612 193.64L265.836 193.6C266.615 193.502 267.406 193.597 268.139 193.876C268.873 194.155 269.527 194.609 270.044 195.2C271.274 196.481 272.007 198.159 272.109 199.932C272.212 201.706 271.678 203.457 270.604 204.872C268.601 207.598 266.101 209.921 263.236 211.72Z" fill="white"/>
</g>
<path d="M230.836 190.824C230.535 191.346 230.13 191.801 229.645 192.16C229.161 192.52 228.608 192.776 228.021 192.912C227.433 193.049 226.824 193.063 226.231 192.954C225.638 192.845 225.073 192.616 224.572 192.28C223.454 191.519 222.419 190.642 221.484 189.664L226.876 183.344L230.708 188.552C230.947 188.878 231.086 189.266 231.109 189.669C231.132 190.072 231.037 190.473 230.836 190.824Z" fill="#FFC3BD"/>
<path d="M226.877 183.344L221.493 189.688L219.093 187.744C218.388 187.174 217.908 186.373 217.738 185.482C217.568 184.592 217.719 183.67 218.165 182.88L218.261 182.712C218.514 182.257 218.858 181.859 219.271 181.541C219.683 181.223 220.156 180.993 220.661 180.864C221.166 180.735 221.691 180.711 222.206 180.792C222.72 180.873 223.212 181.058 223.653 181.336L226.877 183.344Z" fill="#FFC3BD"/>
<mask id="path-161-outside-1_1220_7119" maskUnits="userSpaceOnUse" x="30.4004" y="44.7998" width="150" height="231" fill="black">
<rect fill="white" x="30.4004" y="44.7998" width="150" height="231"/>
<path d="M49.0426 116.232C44.5162 116.232 40.8502 112.47 41.3758 107.974C43.2846 91.6471 49.2025 78.7551 59.1297 69.298C70.6751 58.2992 86.3314 52.7998 106.099 52.7998C119.218 52.7998 130.414 55.2651 139.685 60.1955C149.131 65.126 156.216 71.858 160.939 80.3916C165.837 88.9251 168.286 98.5017 168.286 109.121C168.286 121.637 165.4 131.877 159.627 139.842C153.987 147.438 147.429 152.681 139.953 155.571C139.635 155.694 139.423 155.997 139.423 156.338C139.423 156.681 139.639 156.986 139.96 157.106C149.677 160.728 157.37 166.636 163.038 174.829C168.811 183.173 171.697 193.888 171.697 206.972C171.697 218.73 169.161 229.16 164.088 238.262C159.19 247.175 151.93 254.191 142.309 259.312C132.863 264.432 121.58 266.992 108.46 266.992C87.4684 266.992 70.6751 261.398 58.0801 250.209C47.2198 240.426 40.8402 226.293 38.9413 207.81C38.4798 203.318 42.1369 199.577 46.6523 199.577H74.1241C78.477 199.577 81.9077 203.095 82.8042 207.354C83.815 212.157 85.7197 216.202 88.518 219.488C92.7163 224.229 98.8389 226.6 106.886 226.6C113.708 226.6 118.956 224.514 122.629 220.342C126.478 215.98 128.402 210.291 128.402 203.275C128.402 194.172 125.691 187.63 120.268 183.647C115.02 179.476 106.536 177.39 94.8155 177.39H94.4188C90.0006 177.39 86.4188 173.808 86.4188 169.39V145.851C86.4188 141.433 90.0006 137.851 94.4188 137.851H94.8155C103.737 137.851 110.909 136.239 116.332 133.015C121.93 129.602 124.729 123.628 124.729 115.095C124.729 108.268 122.979 102.958 119.481 99.1654C115.982 95.3727 111.172 93.4764 105.049 93.4764C98.4016 93.4764 93.4161 95.6572 90.0924 100.019C88.2066 102.631 86.7914 105.617 85.8467 108.978C84.7192 112.989 81.3734 116.232 77.2068 116.232H49.0426Z"/>
</mask>
<path d="M59.1297 69.298L64.6477 75.0903L64.6477 75.0903L59.1297 69.298ZM139.685 60.1955L135.929 67.2589L135.956 67.2733L135.983 67.2876L139.685 60.1955ZM160.939 80.3916L153.94 84.2656L153.97 84.3201L154.001 84.374L160.939 80.3916ZM159.627 139.842L166.05 144.611L166.078 144.574L166.105 144.537L159.627 139.842ZM164.088 238.262L157.1 234.368L157.088 234.388L157.077 234.409L164.088 238.262ZM142.309 259.312L138.551 252.249L138.524 252.264L138.497 252.278L142.309 259.312ZM58.0801 250.209L52.7256 256.153L52.7463 256.172L52.7671 256.19L58.0801 250.209ZM88.518 219.488L82.427 224.675L82.4774 224.734L82.5289 224.792L88.518 219.488ZM122.629 220.342L116.631 215.049L116.625 215.055L122.629 220.342ZM120.268 183.647L115.29 189.91L115.409 190.005L115.533 190.096L120.268 183.647ZM116.332 133.015L120.42 139.892L120.459 139.869L120.497 139.845L116.332 133.015ZM119.481 99.1654L125.361 93.7411V93.7411L119.481 99.1654ZM90.0924 100.019L83.7293 95.1699L83.6666 95.2522L83.606 95.3361L90.0924 100.019ZM82.8042 207.354L74.9757 209.002L82.8042 207.354ZM139.96 157.106L137.166 164.602L139.96 157.106ZM139.953 155.571L142.837 163.033L139.953 155.571ZM49.3217 108.903C51.0586 94.0463 56.3288 83.0154 64.6477 75.0903L53.6116 63.5057C42.0763 74.4948 35.5106 89.2478 33.4299 107.045L49.3217 108.903ZM64.6477 75.0903C74.3688 65.8295 87.8683 60.7998 106.099 60.7998V44.7998C84.7944 44.7998 66.9814 50.7689 53.6116 63.5057L64.6477 75.0903ZM106.099 60.7998C118.229 60.7998 128.068 63.0782 135.929 67.2589L143.441 53.1322C132.76 47.4519 120.208 44.7998 106.099 44.7998V60.7998ZM135.983 67.2876C144.173 71.5621 150.047 77.2316 153.94 84.2656L167.939 76.5176C162.386 66.4845 154.09 58.69 143.387 53.1035L135.983 67.2876ZM154.001 84.374C158.149 91.6001 160.286 99.7847 160.286 109.121H176.286C176.286 97.2186 173.526 86.2501 167.878 76.4092L154.001 84.374ZM160.286 109.121C160.286 120.412 157.693 128.879 153.15 135.147L166.105 144.537C173.107 134.875 176.286 122.862 176.286 109.121H160.286ZM153.204 135.073C148.301 141.677 142.897 145.856 137.069 148.109L142.837 163.033C151.962 159.506 159.674 153.199 166.05 144.611L153.204 135.073ZM137.166 164.602C145.416 167.678 151.761 172.59 156.459 179.381L169.617 170.278C162.978 160.682 153.937 153.779 142.754 149.61L137.166 164.602ZM156.459 179.381C161.072 186.048 163.698 195.045 163.698 206.972H179.697C179.697 192.73 176.55 180.299 169.617 170.278L156.459 179.381ZM163.698 206.972C163.698 217.544 161.428 226.602 157.1 234.368L171.076 242.157C176.894 231.717 179.697 219.915 179.697 206.972H163.698ZM157.077 234.409C152.982 241.86 146.902 247.805 138.551 252.249L146.067 266.374C156.959 260.578 165.398 252.49 171.099 242.115L157.077 234.409ZM138.497 252.278C130.453 256.638 120.54 258.992 108.46 258.992V274.992C122.62 274.992 135.273 272.225 146.121 266.345L138.497 252.278ZM108.46 258.992C88.9263 258.992 74.1885 253.818 63.3931 244.228L52.7671 256.19C67.1616 268.977 86.0106 274.992 108.46 274.992V258.992ZM63.4345 244.265C54.4141 236.139 48.6525 224.056 46.8994 206.992L30.9832 208.627C33.0278 228.529 40.0254 244.712 52.7256 256.153L63.4345 244.265ZM46.6523 207.577H74.1241V191.577H46.6523V207.577ZM74.9757 209.002C76.2233 214.93 78.6507 220.24 82.427 224.675L94.609 214.302C92.7886 212.164 91.4068 209.385 90.6327 205.707L74.9757 209.002ZM82.5289 224.792C88.6364 231.689 97.2128 234.6 106.886 234.6V218.6C100.465 218.6 96.7962 216.769 94.5072 214.185L82.5289 224.792ZM106.886 234.6C115.439 234.6 123.103 231.909 128.634 225.629L116.625 215.055C114.809 217.118 111.977 218.6 106.886 218.6V234.6ZM128.628 225.635C134.02 219.524 136.402 211.819 136.402 203.275H120.402C120.402 208.764 118.936 212.437 116.631 215.049L128.628 225.635ZM136.402 203.275C136.402 192.599 133.154 183.185 125.003 177.199L115.533 190.096C118.228 192.075 120.402 195.745 120.402 203.275H136.402ZM125.246 177.385C117.86 171.513 107.13 169.39 94.8155 169.39V185.39C105.942 185.39 112.18 187.438 115.29 189.91L125.246 177.385ZM94.8155 169.39H94.4188V185.39H94.8155V169.39ZM94.4188 169.39V145.851H78.4188V169.39H94.4188ZM94.4188 145.851H94.8155V129.851H94.4188V145.851ZM94.8155 145.851C104.61 145.851 113.351 144.094 120.42 139.892L112.244 126.138C108.467 128.384 102.864 129.851 94.8155 129.851V145.851ZM120.497 139.845C129.193 134.543 132.729 125.462 132.729 115.095H116.729C116.729 121.795 114.667 124.66 112.167 126.185L120.497 139.845ZM132.729 115.095C132.729 106.922 130.615 99.4364 125.361 93.7411L113.6 104.59C115.344 106.48 116.729 109.613 116.729 115.095H132.729ZM125.361 93.7411C120.065 88.0005 112.952 85.4764 105.049 85.4764V101.476C109.391 101.476 111.899 102.745 113.6 104.59L125.361 93.7411ZM105.049 85.4764C96.497 85.4764 88.8921 88.3949 83.7293 95.1699L96.4554 104.868C97.94 102.919 100.306 101.476 105.049 101.476V85.4764ZM83.606 95.3361C81.1264 98.7709 79.3227 102.624 78.1452 106.813L93.5482 111.143C94.26 108.611 95.2868 106.491 96.5787 104.701L83.606 95.3361ZM77.2068 108.232H49.0426V124.232H77.2068V108.232ZM78.1452 106.813C77.975 107.418 77.6568 107.862 77.3953 108.091C77.2768 108.195 77.201 108.229 77.1857 108.235C77.178 108.238 77.1798 108.236 77.1892 108.235C77.1934 108.234 77.1977 108.233 77.2016 108.233C77.2055 108.232 77.2074 108.232 77.2068 108.232V124.232C85.8623 124.232 91.7195 117.648 93.5482 111.143L78.1452 106.813ZM94.4188 145.851V145.851V129.851C85.5823 129.851 78.4188 137.014 78.4188 145.851H94.4188ZM94.4188 169.39H78.4188C78.4188 178.226 85.5823 185.39 94.4188 185.39V169.39ZM74.1241 207.577C74.127 207.577 74.1208 207.577 74.1104 207.575C74.1005 207.573 74.0977 207.571 74.1039 207.574C74.1162 207.579 74.1897 207.612 74.3037 207.719C74.5567 207.955 74.8504 208.407 74.9757 209.002L90.6327 205.707C89.1601 198.71 83.1661 191.577 74.1241 191.577V207.577ZM131.423 156.338C131.423 160.077 133.767 163.335 137.166 164.602L142.754 149.61C145.51 150.637 147.423 153.284 147.423 156.338H131.423ZM137.069 148.109C133.732 149.398 131.423 152.623 131.423 156.338H147.423C147.423 159.371 145.538 161.989 142.837 163.033L137.069 148.109ZM46.8994 206.992C46.9071 207.067 46.8984 207.183 46.8561 207.303C46.8172 207.412 46.766 207.481 46.7321 207.517C46.6708 207.582 46.6288 207.577 46.6523 207.577V191.577C37.8017 191.577 29.9965 199.023 30.9832 208.627L46.8994 206.992ZM33.4299 107.045C32.2957 116.746 40.1964 124.232 49.0426 124.232V108.232C49.0182 108.232 49.0652 108.226 49.1358 108.301C49.1751 108.343 49.2333 108.422 49.2765 108.547C49.3233 108.683 49.332 108.815 49.3217 108.903L33.4299 107.045Z" fill="url(#paint0_linear_1220_7119)" mask="url(#path-161-outside-1_1220_7119)"/>
<defs>
<linearGradient id="paint0_linear_1220_7119" x1="106.816" y1="49.9148" x2="251.549" y2="270.364" gradientUnits="userSpaceOnUse">
<stop offset="0.114583" stop-color="#6ABF4B"/>
<stop offset="0.354167" stop-color="#6ABF4B"/>
<stop offset="0.755208" stop-color="#6ABF4B"/>
</linearGradient>
</defs>
</svg>
